<svg width="31" height="31" viewBox="0 0 31 31" fill="none" xmlns="http://www.w3.org/2000/svg">
<path d="M3.33935 0.676758H0.441375C0.19761 0.676758 0 0.872117 0 1.1131V3.97807C0 4.21905 0.19761 4.41441 0.441375 4.41441H3.33935C3.58312 4.41441 3.78073 4.21905 3.78073 3.97807V1.1131C3.78073 0.872117 3.58312 0.676758 3.33935 0.676758Z" fill="#E2FF6F"/>
<path d="M8.56906 0.676758H5.74948C5.50556 0.676758 5.30811 0.871965 5.30811 1.1131V3.97807C5.30811 4.21921 5.50556 4.41441 5.74948 4.41441H8.56906C8.85653 4.41441 9.08883 4.18476 9.08883 3.90056V1.19348C9.08883 0.909285 8.85653 0.679628 8.56906 0.679628V0.676758Z" fill="#E2FF6F"/>
<path d="M13.9512 0.676758H11.0532C10.8094 0.676758 10.6118 0.872117 10.6118 1.1131V3.97807C10.6118 4.21905 10.8094 4.41441 11.0532 4.41441H13.9512C14.1949 4.41441 14.3925 4.21905 14.3925 3.97807V1.1131C14.3925 0.872117 14.1949 0.676758 13.9512 0.676758Z" fill="#E2FF6F"/>
<path d="M19.2593 0.676758H16.3613C16.1175 0.676758 15.9199 0.872117 15.9199 1.1131V3.97807C15.9199 4.21905 16.1175 4.41441 16.3613 4.41441H19.2593C19.503 4.41441 19.7007 4.21905 19.7007 3.97807V1.1131C19.7007 0.872117 19.503 0.676758 19.2593 0.676758Z" fill="#E2FF6F"/>
<path d="M24.5813 5.88867H21.6833C21.4396 5.88867 21.2419 6.08403 21.2419 6.32502V9.18998C21.2419 9.43097 21.4396 9.62633 21.6833 9.62633H24.5813C24.8251 9.62633 25.0227 9.43097 25.0227 9.18998V6.32502C25.0227 6.08403 24.8251 5.88867 24.5813 5.88867Z" fill="#E2FF6F"/>
<path d="M19.2593 5.88867H16.3613C16.1175 5.88867 15.9199 6.08403 15.9199 6.32502V9.18998C15.9199 9.43097 16.1175 9.62633 16.3613 9.62633H19.2593C19.503 9.62633 19.7007 9.43097 19.7007 9.18998V6.32502C19.7007 6.08403 19.503 5.88867 19.2593 5.88867Z" fill="#E2FF6F"/>
<path d="M13.9512 5.88867H11.0532C10.8094 5.88867 10.6118 6.08403 10.6118 6.32502V9.18998C10.6118 9.43097 10.8094 9.62633 11.0532 9.62633H13.9512C14.1949 9.62633 14.3925 9.43097 14.3925 9.18998V6.32502C14.3925 6.08403 14.1949 5.88867 13.9512 5.88867Z" fill="#E2FF6F"/>
<path d="M8.64746 5.88959H5.82788C5.54041 5.88959 5.30811 6.11925 5.30811 6.40345V9.11052C5.30811 9.39472 5.54041 9.62438 5.82788 9.62438H8.64746C8.89138 9.62438 9.08883 9.42917 9.08883 9.18803V6.32307C9.08883 6.08193 8.89138 5.88672 8.64746 5.88672V5.88959Z" fill="#E2FF6F"/>
<path d="M3.33935 5.88867H0.441375C0.19761 5.88867 0 6.08403 0 6.32502V9.18998C0 9.43097 0.19761 9.62633 0.441375 9.62633H3.33935C3.58312 9.62633 3.78073 9.43097 3.78073 9.18998V6.32502C3.78073 6.08403 3.58312 5.88867 3.33935 5.88867Z" fill="#E2FF6F"/>
<path d="M3.26095 11.0977H0.519778C0.232712 11.0977 0 11.3277 0 11.6115V14.3215C0 14.6053 0.232712 14.8353 0.519778 14.8353H3.26095C3.54802 14.8353 3.78073 14.6053 3.78073 14.3215V11.6115C3.78073 11.3277 3.54802 11.0977 3.26095 11.0977Z" fill="#E2FF6F"/>
<path d="M8.64746 11.0995H5.82788C5.54041 11.0995 5.30811 11.3292 5.30811 11.6134V14.3205C5.30811 14.6047 5.54041 14.8343 5.82788 14.8343H8.64746C8.89138 14.8343 9.08883 14.6391 9.08883 14.398V11.533C9.08883 11.2919 8.89138 11.0967 8.64746 11.0967V11.0995Z" fill="#E2FF6F"/>
<path d="M13.9512 11.0977H11.0532C10.8094 11.0977 10.6118 11.293 10.6118 11.534V14.399C10.6118 14.64 10.8094 14.8353 11.0532 14.8353H13.9512C14.1949 14.8353 14.3925 14.64 14.3925 14.399V11.534C14.3925 11.293 14.1949 11.0977 13.9512 11.0977Z" fill="#E2FF6F"/>
<path d="M19.2593 11.0977H16.3613C16.1175 11.0977 15.9199 11.293 15.9199 11.534V14.399C15.9199 14.64 16.1175 14.8353 16.3613 14.8353H19.2593C19.503 14.8353 19.7007 14.64 19.7007 14.399V11.534C19.7007 11.293 19.503 11.0977 19.2593 11.0977Z" fill="#E2FF6F"/>
<path d="M24.5813 11.0977H21.6833C21.4396 11.0977 21.2419 11.293 21.2419 11.534V14.399C21.2419 14.64 21.4396 14.8353 21.6833 14.8353H24.5813C24.8251 14.8353 25.0227 14.64 25.0227 14.399V11.534C25.0227 11.293 24.8251 11.0977 24.5813 11.0977Z" fill="#E2FF6F"/>
<path d="M29.8884 11.0977H26.9904C26.7467 11.0977 26.5491 11.293 26.5491 11.534V14.399C26.5491 14.64 26.7467 14.8353 26.9904 14.8353H29.8884C30.1322 14.8353 30.3298 14.64 30.3298 14.399V11.534C30.3298 11.293 30.1322 11.0977 29.8884 11.0977Z" fill="#E2FF6F"/>
<path d="M29.8884 16.3076H26.9904C26.7467 16.3076 26.5491 16.503 26.5491 16.744V19.6089C26.5491 19.8499 26.7467 20.0453 26.9904 20.0453H29.8884C30.1322 20.0453 30.3298 19.8499 30.3298 19.6089V16.744C30.3298 16.503 30.1322 16.3076 29.8884 16.3076Z" fill="#E2FF6F"/>
<path d="M24.5813 16.3076H21.6833C21.4396 16.3076 21.2419 16.503 21.2419 16.744V19.6089C21.2419 19.8499 21.4396 20.0453 21.6833 20.0453H24.5813C24.8251 20.0453 25.0227 19.8499 25.0227 19.6089V16.744C25.0227 16.503 24.8251 16.3076 24.5813 16.3076Z" fill="#E2FF6F"/>
<path d="M19.2593 16.3076H16.3613C16.1175 16.3076 15.9199 16.503 15.9199 16.744V19.6089C15.9199 19.8499 16.1175 20.0453 16.3613 20.0453H19.2593C19.503 20.0453 19.7007 19.8499 19.7007 19.6089V16.744C19.7007 16.503 19.503 16.3076 19.2593 16.3076Z" fill="#E2FF6F"/>
<path d="M13.9512 16.3076H11.0532C10.8094 16.3076 10.6118 16.503 10.6118 16.744V19.6089C10.6118 19.8499 10.8094 20.0453 11.0532 20.0453H13.9512C14.1949 20.0453 14.3925 19.8499 14.3925 19.6089V16.744C14.3925 16.503 14.1949 16.3076 13.9512 16.3076Z" fill="#E2FF6F"/>
<path d="M8.64746 16.3085H5.82788C5.54041 16.3085 5.30811 16.5382 5.30811 16.8224V19.5295C5.30811 19.8137 5.54041 20.0433 5.82788 20.0433H8.64746C8.89138 20.0433 9.08883 19.8481 9.08883 19.607V16.742C9.08883 16.5009 8.89138 16.3057 8.64746 16.3057V16.3085Z" fill="#E2FF6F"/>
<path d="M3.33935 16.3076H0.441375C0.19761 16.3076 0 16.503 0 16.744V19.6089C0 19.8499 0.19761 20.0453 0.441375 20.0453H3.33935C3.58312 20.0453 3.78073 19.8499 3.78073 19.6089V16.744C3.78073 16.503 3.58312 16.3076 3.33935 16.3076Z" fill="#E2FF6F"/>
<path d="M3.33935 21.5205H0.441375C0.19761 21.5205 0 21.7159 0 21.9569V24.8218C0 25.0628 0.19761 25.2582 0.441375 25.2582H3.33935C3.58312 25.2582 3.78073 25.0628 3.78073 24.8218V21.9569C3.78073 21.7159 3.58312 21.5205 3.33935 21.5205Z" fill="#E2FF6F"/>
<path d="M8.56909 21.5058H5.74951C5.46204 21.5058 5.22974 21.7355 5.22974 22.0197V24.7267C5.22974 25.0109 5.46204 25.2406 5.74951 25.2406H8.56909C8.81301 25.2406 9.01047 25.0454 9.01047 24.8042V21.9393C9.01047 21.6981 8.81301 21.5029 8.56909 21.5029V21.5058Z" fill="#E2FF6F"/>
<path d="M13.9512 21.5205H11.0532C10.8094 21.5205 10.6118 21.7159 10.6118 21.9569V24.8218C10.6118 25.0628 10.8094 25.2582 11.0532 25.2582H13.9512C14.1949 25.2582 14.3925 25.0628 14.3925 24.8218V21.9569C14.3925 21.7159 14.1949 21.5205 13.9512 21.5205Z" fill="#E2FF6F"/>
<path d="M19.2593 21.5205H16.3613C16.1175 21.5205 15.9199 21.7159 15.9199 21.9569V24.8218C15.9199 25.0628 16.1175 25.2582 16.3613 25.2582H19.2593C19.503 25.2582 19.7007 25.0628 19.7007 24.8218V21.9569C19.7007 21.7159 19.503 21.5205 19.2593 21.5205Z" fill="#E2FF6F"/>
<path d="M24.5813 21.5205H21.6833C21.4396 21.5205 21.2419 21.7159 21.2419 21.9569V24.8218C21.2419 25.0628 21.4396 25.2582 21.6833 25.2582H24.5813C24.8251 25.2582 25.0227 25.0628 25.0227 24.8218V21.9569C25.0227 21.7159 24.8251 21.5205 24.5813 21.5205Z" fill="#E2FF6F"/>
<path d="M19.2593 26.7275H16.3613C16.1175 26.7275 15.9199 26.9229 15.9199 27.1639V30.0288C15.9199 30.2698 16.1175 30.4652 16.3613 30.4652H19.2593C19.503 30.4652 19.7007 30.2698 19.7007 30.0288V27.1639C19.7007 26.9229 19.503 26.7275 19.2593 26.7275Z" fill="#E2FF6F"/>
<path d="M13.9512 26.7275H11.0532C10.8094 26.7275 10.6118 26.9229 10.6118 27.1639V30.0288C10.6118 30.2698 10.8094 30.4652 11.0532 30.4652H13.9512C14.1949 30.4652 14.3925 30.2698 14.3925 30.0288V27.1639C14.3925 26.9229 14.1949 26.7275 13.9512 26.7275Z" fill="#E2FF6F"/>
<path d="M8.64746 26.7275H5.82788C5.54041 26.7275 5.30811 26.9571 5.30811 27.2413V29.9484C5.30811 30.2326 5.54041 30.4623 5.82788 30.4623H8.64746C8.89138 30.4623 9.08883 30.2671 9.08883 30.0259V27.161C9.08883 26.9198 8.89138 26.7246 8.64746 26.7246V26.7275Z" fill="#E2FF6F"/>
<path d="M3.33935 26.7275H0.441375C0.19761 26.7275 0 26.9229 0 27.1639V30.0288C0 30.2698 0.19761 30.4652 0.441375 30.4652H3.33935C3.58312 30.4652 3.78073 30.2698 3.78073 30.0288V27.1639C3.78073 26.9229 3.58312 26.7275 3.33935 26.7275Z" fill="#E2FF6F"/>
</svg>
