<svg width="195" height="44" viewBox="0 0 195 44" fill="none" xmlns="http://www.w3.org/2000/svg">
<path d="M4.19873 6.91113H1.30075C1.05699 6.91113 0.859375 7.10649 0.859375 7.34748V10.2124C0.859375 10.4534 1.05699 10.6488 1.30075 10.6488H4.19873C4.44249 10.6488 4.6401 10.4534 4.6401 10.2124V7.34748C4.6401 7.10649 4.44249 6.91113 4.19873 6.91113Z" fill="#E2FF6F"/>
<path d="M9.42843 6.91113H6.60886C6.36494 6.91113 6.16748 7.10634 6.16748 7.34748V10.2124C6.16748 10.4536 6.36494 10.6488 6.60886 10.6488H9.42843C9.71591 10.6488 9.94821 10.4191 9.94821 10.1349V7.42786C9.94821 7.14366 9.71591 6.914 9.42843 6.914V6.91113Z" fill="#E2FF6F"/>
<path d="M14.8105 6.91113H11.9126C11.6688 6.91113 11.4712 7.10649 11.4712 7.34748V10.2124C11.4712 10.4534 11.6688 10.6488 11.9126 10.6488H14.8105C15.0543 10.6488 15.2519 10.4534 15.2519 10.2124V7.34748C15.2519 7.10649 15.0543 6.91113 14.8105 6.91113Z" fill="#E2FF6F"/>
<path d="M20.1187 6.91113H17.2207C16.9769 6.91113 16.7793 7.10649 16.7793 7.34748V10.2124C16.7793 10.4534 16.9769 10.6488 17.2207 10.6488H20.1187C20.3624 10.6488 20.56 10.4534 20.56 10.2124V7.34748C20.56 7.10649 20.3624 6.91113 20.1187 6.91113Z" fill="#E2FF6F"/>
<path d="M25.4407 12.1226H22.5427C22.2989 12.1226 22.1013 12.3179 22.1013 12.5589V15.4239C22.1013 15.6649 22.2989 15.8602 22.5427 15.8602H25.4407C25.6844 15.8602 25.882 15.6649 25.882 15.4239V12.5589C25.882 12.3179 25.6844 12.1226 25.4407 12.1226Z" fill="#E2FF6F"/>
<path d="M20.1187 12.1226H17.2207C16.9769 12.1226 16.7793 12.3179 16.7793 12.5589V15.4239C16.7793 15.6649 16.9769 15.8602 17.2207 15.8602H20.1187C20.3624 15.8602 20.56 15.6649 20.56 15.4239V12.5589C20.56 12.3179 20.3624 12.1226 20.1187 12.1226Z" fill="#E2FF6F"/>
<path d="M14.8105 12.1226H11.9126C11.6688 12.1226 11.4712 12.3179 11.4712 12.5589V15.4239C11.4712 15.6649 11.6688 15.8602 11.9126 15.8602H14.8105C15.0543 15.8602 15.2519 15.6649 15.2519 15.4239V12.5589C15.2519 12.3179 15.0543 12.1226 14.8105 12.1226Z" fill="#E2FF6F"/>
<path d="M9.50683 12.124H6.68726C6.39978 12.124 6.16748 12.3536 6.16748 12.6378V15.3449C6.16748 15.6291 6.39978 15.8588 6.68726 15.8588H9.50683C9.75075 15.8588 9.94821 15.6635 9.94821 15.4224V12.5574C9.94821 12.3163 9.75075 12.1211 9.50683 12.1211V12.124Z" fill="#E2FF6F"/>
<path d="M4.19873 12.1226H1.30075C1.05699 12.1226 0.859375 12.3179 0.859375 12.5589V15.4239C0.859375 15.6649 1.05699 15.8602 1.30075 15.8602H4.19873C4.44249 15.8602 4.6401 15.6649 4.6401 15.4239V12.5589C4.6401 12.3179 4.44249 12.1226 4.19873 12.1226Z" fill="#E2FF6F"/>
<path d="M4.12033 17.3325H1.37915C1.09209 17.3325 0.859375 17.5626 0.859375 17.8464V20.5563C0.859375 20.8401 1.09209 21.0702 1.37915 21.0702H4.12033C4.40739 21.0702 4.6401 20.8401 4.6401 20.5563V17.8464C4.6401 17.5626 4.40739 17.3325 4.12033 17.3325Z" fill="#E2FF6F"/>
<path d="M9.50683 17.3334H6.68726C6.39978 17.3334 6.16748 17.5631 6.16748 17.8473V20.5544C6.16748 20.8386 6.39978 21.0682 6.68726 21.0682H9.50683C9.75075 21.0682 9.94821 20.873 9.94821 20.6319V17.7669C9.94821 17.5258 9.75075 17.3306 9.50683 17.3306V17.3334Z" fill="#E2FF6F"/>
<path d="M14.8105 17.3325H11.9126C11.6688 17.3325 11.4712 17.5279 11.4712 17.7689V20.6338C11.4712 20.8748 11.6688 21.0702 11.9126 21.0702H14.8105C15.0543 21.0702 15.2519 20.8748 15.2519 20.6338V17.7689C15.2519 17.5279 15.0543 17.3325 14.8105 17.3325Z" fill="#E2FF6F"/>
<path d="M20.1187 17.3325H17.2207C16.9769 17.3325 16.7793 17.5279 16.7793 17.7689V20.6338C16.7793 20.8748 16.9769 21.0702 17.2207 21.0702H20.1187C20.3624 21.0702 20.56 20.8748 20.56 20.6338V17.7689C20.56 17.5279 20.3624 17.3325 20.1187 17.3325Z" fill="#E2FF6F"/>
<path d="M25.4407 17.3325H22.5427C22.2989 17.3325 22.1013 17.5279 22.1013 17.7689V20.6338C22.1013 20.8748 22.2989 21.0702 22.5427 21.0702H25.4407C25.6844 21.0702 25.882 20.8748 25.882 20.6338V17.7689C25.882 17.5279 25.6844 17.3325 25.4407 17.3325Z" fill="#E2FF6F"/>
<path d="M30.7478 17.3325H27.8498C27.6061 17.3325 27.4084 17.5279 27.4084 17.7689V20.6338C27.4084 20.8748 27.6061 21.0702 27.8498 21.0702H30.7478C30.9916 21.0702 31.1892 20.8748 31.1892 20.6338V17.7689C31.1892 17.5279 30.9916 17.3325 30.7478 17.3325Z" fill="#E2FF6F"/>
<path d="M30.7478 22.542H27.8498C27.6061 22.542 27.4084 22.7374 27.4084 22.9783V25.8433C27.4084 26.0843 27.6061 26.2796 27.8498 26.2796H30.7478C30.9916 26.2796 31.1892 26.0843 31.1892 25.8433V22.9783C31.1892 22.7374 30.9916 22.542 30.7478 22.542Z" fill="#E2FF6F"/>
<path d="M25.4407 22.542H22.5427C22.2989 22.542 22.1013 22.7374 22.1013 22.9783V25.8433C22.1013 26.0843 22.2989 26.2796 22.5427 26.2796H25.4407C25.6844 26.2796 25.882 26.0843 25.882 25.8433V22.9783C25.882 22.7374 25.6844 22.542 25.4407 22.542Z" fill="#E2FF6F"/>
<path d="M20.1187 22.542H17.2207C16.9769 22.542 16.7793 22.7374 16.7793 22.9783V25.8433C16.7793 26.0843 16.9769 26.2796 17.2207 26.2796H20.1187C20.3624 26.2796 20.56 26.0843 20.56 25.8433V22.9783C20.56 22.7374 20.3624 22.542 20.1187 22.542Z" fill="#E2FF6F"/>
<path d="M14.8105 22.542H11.9126C11.6688 22.542 11.4712 22.7374 11.4712 22.9783V25.8433C11.4712 26.0843 11.6688 26.2796 11.9126 26.2796H14.8105C15.0543 26.2796 15.2519 26.0843 15.2519 25.8433V22.9783C15.2519 22.7374 15.0543 22.542 14.8105 22.542Z" fill="#E2FF6F"/>
<path d="M9.50683 22.5434H6.68726C6.39978 22.5434 6.16748 22.7731 6.16748 23.0573V25.7643C6.16748 26.0485 6.39978 26.2782 6.68726 26.2782H9.50683C9.75075 26.2782 9.94821 26.083 9.94821 25.8418V22.9769C9.94821 22.7357 9.75075 22.5405 9.50683 22.5405V22.5434Z" fill="#E2FF6F"/>
<path d="M4.19873 22.542H1.30075C1.05699 22.542 0.859375 22.7374 0.859375 22.9783V25.8433C0.859375 26.0843 1.05699 26.2796 1.30075 26.2796H4.19873C4.44249 26.2796 4.6401 26.0843 4.6401 25.8433V22.9783C4.6401 22.7374 4.44249 22.542 4.19873 22.542Z" fill="#E2FF6F"/>
<path d="M4.19873 27.7544H1.30075C1.05699 27.7544 0.859375 27.9498 0.859375 28.1907V31.0557C0.859375 31.2967 1.05699 31.492 1.30075 31.492H4.19873C4.44249 31.492 4.6401 31.2967 4.6401 31.0557V28.1907C4.6401 27.9498 4.44249 27.7544 4.19873 27.7544Z" fill="#E2FF6F"/>
<path d="M9.42846 27.7402H6.60889C6.32141 27.7402 6.08911 27.9698 6.08911 28.254V30.9611C6.08911 31.2453 6.32141 31.475 6.60889 31.475H9.42846C9.67238 31.475 9.86984 31.2798 9.86984 31.0386V28.1737C9.86984 27.9325 9.67238 27.7373 9.42846 27.7373V27.7402Z" fill="#E2FF6F"/>
<path d="M14.8105 27.7544H11.9126C11.6688 27.7544 11.4712 27.9498 11.4712 28.1907V31.0557C11.4712 31.2967 11.6688 31.492 11.9126 31.492H14.8105C15.0543 31.492 15.2519 31.2967 15.2519 31.0557V28.1907C15.2519 27.9498 15.0543 27.7544 14.8105 27.7544Z" fill="#E2FF6F"/>
<path d="M20.1187 27.7544H17.2207C16.9769 27.7544 16.7793 27.9498 16.7793 28.1907V31.0557C16.7793 31.2967 16.9769 31.492 17.2207 31.492H20.1187C20.3624 31.492 20.56 31.2967 20.56 31.0557V28.1907C20.56 27.9498 20.3624 27.7544 20.1187 27.7544Z" fill="#E2FF6F"/>
<path d="M25.4407 27.7544H22.5427C22.2989 27.7544 22.1013 27.9498 22.1013 28.1907V31.0557C22.1013 31.2967 22.2989 31.492 22.5427 31.492H25.4407C25.6844 31.492 25.882 31.2967 25.882 31.0557V28.1907C25.882 27.9498 25.6844 27.7544 25.4407 27.7544Z" fill="#E2FF6F"/>
<path d="M20.1187 32.9614H17.2207C16.9769 32.9614 16.7793 33.1568 16.7793 33.3978V36.2627C16.7793 36.5037 16.9769 36.6991 17.2207 36.6991H20.1187C20.3624 36.6991 20.56 36.5037 20.56 36.2627V33.3978C20.56 33.1568 20.3624 32.9614 20.1187 32.9614Z" fill="#E2FF6F"/>
<path d="M14.8105 32.9614H11.9126C11.6688 32.9614 11.4712 33.1568 11.4712 33.3978V36.2627C11.4712 36.5037 11.6688 36.6991 11.9126 36.6991H14.8105C15.0543 36.6991 15.2519 36.5037 15.2519 36.2627V33.3978C15.2519 33.1568 15.0543 32.9614 14.8105 32.9614Z" fill="#E2FF6F"/>
<path d="M9.50683 32.9619H6.68726C6.39978 32.9619 6.16748 33.1915 6.16748 33.4757V36.1828C6.16748 36.467 6.39978 36.6966 6.68726 36.6966H9.50683C9.75075 36.6966 9.94821 36.5014 9.94821 36.2603V33.3953C9.94821 33.1542 9.75075 32.959 9.50683 32.959V32.9619Z" fill="#E2FF6F"/>
<path d="M4.19873 32.9614H1.30075C1.05699 32.9614 0.859375 33.1568 0.859375 33.3978V36.2627C0.859375 36.5037 1.05699 36.6991 1.30075 36.6991H4.19873C4.44249 36.6991 4.6401 36.5037 4.6401 36.2627V33.3978C4.6401 33.1568 4.44249 32.9614 4.19873 32.9614Z" fill="#E2FF6F"/>
<path d="M59.4362 13.0532C57.9008 10.6843 55.0279 8.99222 50.7682 8.99222C43.7841 8.99222 38.6328 14.0685 38.6328 21.6103C38.6328 29.6356 43.7841 34.2284 50.7682 34.2284C55.0279 34.2284 57.7522 32.2463 59.4362 29.9741L59.9811 33.9384H63.4979V0.0966893H59.4362V13.0532ZM51.1644 30.6992C46.1617 30.6992 42.7935 26.9767 42.7935 21.6103C42.7935 16.244 46.1617 12.5214 51.1644 12.5214C56.1176 12.5214 59.4858 16.2924 59.4858 21.707C59.4858 26.9767 56.1176 30.6992 51.1644 30.6992Z" fill="#E2FF6F"/>
<path d="M80.317 34.2284C86.1617 34.2284 90.3224 30.6025 91.3131 25.6713H87.2019C86.3599 28.8621 83.5861 30.6992 80.0198 30.6992C75.2152 30.6992 72.1937 27.4118 72.0451 22.7223V22.3839H91.6598C91.7093 21.8037 91.7589 21.2236 91.7589 20.6918C91.5607 13.3916 86.9047 8.99222 79.7721 8.99222C72.6395 8.99222 67.7854 14.1168 67.7854 21.6103C67.7854 29.1522 72.7386 34.2284 80.317 34.2284ZM72.2928 19.0964C72.689 15.0837 76.1067 12.4731 79.8216 12.4731C84.0319 12.4731 87.0038 14.842 87.4 19.0964H72.2928Z" fill="#E2FF6F"/>
<path d="M108.423 8.99222C104.163 8.99222 101.587 10.7326 100.101 12.6181L99.5565 9.28229H96.0398V33.9384H100.101V21.6103C100.101 16.0506 102.974 12.6181 107.729 12.6181C112.138 12.6181 114.565 15.3254 114.565 20.45V33.9384H118.626V20.2083C118.626 12.038 114.119 8.99222 108.423 8.99222Z" fill="#E2FF6F"/>
<path d="M122.411 25.8164C122.51 31.231 127.017 34.2284 133.556 34.2284C139.153 34.2284 143.66 31.3761 143.66 26.7833C143.66 21.3203 139.054 20.2567 133.308 19.5798C129.642 19.1447 126.968 18.8063 126.968 16.099C126.968 13.8267 129.345 12.3764 132.862 12.3764C136.329 12.3764 138.707 14.2619 139.004 16.7758H143.165C142.768 11.6512 138.608 9.04056 132.862 8.99222C127.166 8.94387 122.956 11.8929 122.956 16.389C122.956 21.5136 127.463 22.6256 133.11 23.3024C136.874 23.7375 139.648 23.9792 139.648 27.0733C139.648 29.3456 137.122 30.8443 133.556 30.8443C129.345 30.8443 126.72 28.7171 126.572 25.8164H122.411Z" fill="#E2FF6F"/>
<path d="M149.895 5.1246C151.381 5.1246 152.52 4.061 152.52 2.5623C152.52 1.0636 151.381 0 149.895 0C148.409 0 147.27 1.0636 147.27 2.5623C147.27 4.061 148.409 5.1246 149.895 5.1246ZM147.815 33.9384H151.876V9.28229H147.815V33.9384Z" fill="#E2FF6F"/>
<path d="M158.969 27.5085C158.969 31.8595 160.703 33.9384 165.557 33.9384H169.965V30.3125H165.953C163.774 30.3125 163.031 29.539 163.031 27.4601V12.9082H169.569V9.28229H163.031V2.36892H158.969V9.28229H154.412V12.9082H158.969V27.5085Z" fill="#E2FF6F"/>
<path d="M180.462 34.0834L179.223 37.0808C178.282 39.4014 177.886 39.9815 175.558 39.9815H171.942V43.6074H176.796C180.363 43.6074 181.304 42.0604 182.889 38.0961L194.529 9.28229H190.219L182.691 28.9588L174.914 9.28229H170.605L180.462 34.0834Z" fill="#E2FF6F"/>
</svg>
