<svg
  width="127"
  height="92"
  viewBox="0 0 127 92"
  fill="none"
  xmlns="http://www.w3.org/2000/svg"
>
  <g clip-path="url(#clip0_510_18839)">
    <path
      d="M55.8588 0.755859C53.5054 2.86927 50.8235 5.66367 48.2589 9.24864C44.0914 15.0801 41.8787 20.7237 40.659 24.8174C40.4713 25.4201 38.2664 32.9815 43.3096 39.1495C47.3363 44.073 53.0831 44.5661 54.0918 44.6365C60.7769 45.6384 67.2822 42.5623 70.355 37.0283C74.0924 30.3045 70.8554 23.3537 70.5348 22.6962C69.0649 19.1347 66.9303 14.8374 63.8184 10.3132C61.1131 6.37597 58.3296 3.22151 55.8588 0.755859Z"
      fill="url(#paint0_linear_510_18839)"
    />
    <path
      d="M79.5814 4.41162C78.4789 5.40571 77.2123 6.72072 76.0082 8.40362C74.0535 11.1432 73.0057 13.7967 72.435 15.7223C72.349 16.0041 71.3091 19.5577 73.6782 22.4617C75.5703 24.7786 78.2678 25.0056 78.7448 25.0369C81.888 25.5066 84.9452 24.0585 86.3916 21.4598C88.1509 18.2975 86.6262 15.0335 86.4776 14.7204C85.7818 13.0453 84.781 11.0258 83.3188 8.89675C82.0522 7.04947 80.9467 5.80153 79.7895 4.64306L79.5814 4.41162Z"
      fill="url(#paint1_linear_510_18839)"
    />
    <path
      d="M85.0757 19.8932C85.4274 18.8718 85.5075 18.1223 85.4796 17.575C85.4796 17.5681 85.4796 17.5611 85.4796 17.5611C85.4343 16.7977 85.2672 16.2399 85.0792 15.832"
      fill="white"
    />
    <path
      d="M85.0757 19.8932C85.4274 18.8718 85.5075 18.1223 85.4796 17.575C85.4796 17.5681 85.4796 17.5611 85.4796 17.5611C85.4343 16.7977 85.2672 16.2399 85.0792 15.832"
      stroke="#EBFF25"
      stroke-miterlimit="10"
    />
    <path
      d="M83.7666 22.1522L84.8356 20.6079"
      stroke="#EBFF25"
      stroke-miterlimit="10"
    />
    <path
      d="M69.5576 34.2572C70.3473 31.9637 70.5272 30.2808 70.4646 29.0519C70.4646 29.0363 70.4646 29.0206 70.4646 29.0206C70.363 27.3064 69.9877 26.054 69.5654 25.1382"
      stroke="#EBFF25"
      stroke-miterlimit="10"
    />
    <path
      d="M66.6177 39.3294L69.0181 35.8618"
      stroke="#EBFF25"
      stroke-miterlimit="10"
    />
    <path
      d="M55.9646 31.9156V30.4916C55.2233 30.3263 54.5966 30.0063 54.0846 29.5316C53.5779 29.0516 53.2099 28.473 52.9806 27.7956L54.6766 27.1716C54.8953 27.6623 55.2046 28.065 55.6046 28.3796C56.0099 28.6943 56.4739 28.8516 56.9966 28.8516C57.5299 28.8516 57.9566 28.7183 58.2766 28.4516C58.5966 28.185 58.7566 27.7983 58.7566 27.2916C58.7566 26.9343 58.6553 26.6356 58.4526 26.3956C58.2499 26.1503 57.9806 25.9396 57.6446 25.7636C57.3139 25.5876 56.9486 25.4223 56.5486 25.2676C56.1699 25.1183 55.7913 24.9583 55.4126 24.7876C55.0393 24.6116 54.6979 24.401 54.3886 24.1556C54.0846 23.905 53.8393 23.5983 53.6526 23.2356C53.4713 22.873 53.3806 22.433 53.3806 21.9156C53.3806 21.2436 53.6046 20.6436 54.0526 20.1156C54.5006 19.5823 55.1379 19.2463 55.9646 19.1076V17.8356H57.7806V19.1236C58.4259 19.2623 58.9513 19.5343 59.3566 19.9396C59.7619 20.3396 60.0419 20.8116 60.1966 21.3556L58.5326 21.9076C58.4046 21.5876 58.1913 21.3183 57.8926 21.0996C57.5939 20.8756 57.2099 20.7636 56.7406 20.7636C56.2819 20.7636 55.9246 20.865 55.6686 21.0676C55.4126 21.265 55.2846 21.5476 55.2846 21.9156C55.2846 22.1983 55.3779 22.4383 55.5646 22.6356C55.7566 22.833 56.0099 23.009 56.3246 23.1636C56.6393 23.313 56.9833 23.457 57.3566 23.5956C57.7246 23.7343 58.1006 23.897 58.4846 24.0836C58.8739 24.2703 59.2313 24.4996 59.5566 24.7716C59.8873 25.0436 60.1539 25.3823 60.3566 25.7876C60.5593 26.193 60.6606 26.6863 60.6606 27.2676C60.6606 27.8863 60.5326 28.4223 60.2766 28.8756C60.0259 29.329 59.6846 29.697 59.2526 29.9796C58.8206 30.257 58.3299 30.441 57.7806 30.5316V31.9156H55.9646Z"
      fill="black"
    />
    <path
      d="M79.775 20.8389V19.7709C79.219 19.6469 78.749 19.4069 78.365 19.0509C77.985 18.6909 77.709 18.2569 77.537 17.7489L78.809 17.2809C78.973 17.6489 79.205 17.9509 79.505 18.1869C79.809 18.4229 80.157 18.5409 80.549 18.5409C80.949 18.5409 81.269 18.4409 81.509 18.2409C81.749 18.0409 81.869 17.7509 81.869 17.3709C81.869 17.1029 81.793 16.8789 81.641 16.6989C81.489 16.5149 81.287 16.3569 81.035 16.2249C80.787 16.0929 80.513 15.9689 80.213 15.8529C79.929 15.7409 79.645 15.6209 79.361 15.4929C79.081 15.3609 78.825 15.2029 78.593 15.0189C78.365 14.8309 78.181 14.6009 78.041 14.3289C77.905 14.0569 77.837 13.7269 77.837 13.3389C77.837 12.8349 78.005 12.3849 78.341 11.9889C78.677 11.5889 79.155 11.3369 79.775 11.2329V10.2789H81.137V11.2449C81.621 11.3489 82.015 11.5529 82.319 11.8569C82.623 12.1569 82.833 12.5109 82.949 12.9189L81.701 13.3329C81.605 13.0929 81.445 12.8909 81.221 12.7269C80.997 12.5589 80.709 12.4749 80.357 12.4749C80.013 12.4749 79.745 12.5509 79.553 12.7029C79.361 12.8509 79.265 13.0629 79.265 13.3389C79.265 13.5509 79.335 13.7309 79.475 13.8789C79.619 14.0269 79.809 14.1589 80.045 14.2749C80.281 14.3869 80.539 14.4949 80.819 14.5989C81.095 14.7029 81.377 14.8249 81.665 14.9649C81.957 15.1049 82.225 15.2769 82.469 15.4809C82.717 15.6849 82.917 15.9389 83.069 16.2429C83.221 16.5469 83.297 16.9169 83.297 17.3529C83.297 17.8169 83.201 18.2189 83.009 18.5589C82.821 18.8989 82.565 19.1749 82.241 19.3869C81.917 19.5949 81.549 19.7329 81.137 19.8009V20.8389H79.775Z"
      fill="#024D00"
    />
  </g>
  <path
    d="M1.83295 79.2158V66.2558H6.56695C10.617 66.2558 13.083 68.9198 13.083 72.7358C13.083 76.6058 10.617 79.2158 6.56695 79.2158H1.83295ZM4.40695 76.9478H6.42295C8.87095 76.9478 10.383 75.3098 10.383 72.6638C10.383 70.0178 8.87095 68.5238 6.42295 68.5238H4.40695V76.9478ZM23.8027 74.3918C23.8027 71.5298 21.9487 69.6758 19.1587 69.6758C16.3687 69.6758 14.4967 71.6198 14.4967 74.5358C14.4967 77.4698 16.3687 79.4138 19.1767 79.4138C21.5347 79.4138 23.3167 78.0998 23.7307 76.1558H21.1927C20.9047 76.9658 20.1667 77.3798 19.2487 77.3798C18.0427 77.3798 17.0707 76.6058 17.0347 75.2198H23.8027V74.3918ZM19.1587 71.6378C20.2567 71.6378 21.1747 72.2678 21.2827 73.5638H17.0527C17.1607 72.2678 18.0787 71.6378 19.1587 71.6378ZM34.5077 74.3918C34.5077 71.5298 32.6537 69.6758 29.8637 69.6758C27.0737 69.6758 25.2017 71.6198 25.2017 74.5358C25.2017 77.4698 27.0737 79.4138 29.8817 79.4138C32.2397 79.4138 34.0217 78.0998 34.4357 76.1558H31.8977C31.6097 76.9658 30.8717 77.3798 29.9537 77.3798C28.7477 77.3798 27.7757 76.6058 27.7397 75.2198H34.5077V74.3918ZM29.8637 71.6378C30.9617 71.6378 31.8797 72.2678 31.9877 73.5638H27.7577C27.8657 72.2678 28.7837 71.6378 29.8637 71.6378ZM41.8259 69.6758C40.3859 69.6758 39.2699 70.3238 38.8019 71.1338L38.6579 69.8558H36.2999V82.8158H38.8199V78.0278C39.3059 78.8558 40.4579 79.4138 41.8259 79.4138C44.5259 79.4138 46.2539 77.5238 46.2539 74.5538C46.2539 71.4218 44.3819 69.6758 41.8259 69.6758ZM41.2679 77.1638C39.8999 77.1638 38.8739 76.1918 38.8739 74.5718C38.8739 72.9338 39.8999 71.9258 41.2679 71.9258C42.6539 71.9438 43.6619 72.9338 43.6619 74.5538C43.6619 76.1918 42.6539 77.1638 41.2679 77.1638ZM54.1179 76.8578V66.2558H51.5439V79.2158H60.0219V76.8578H54.1179ZM61.6291 68.4158H64.1851V65.9858H61.6291V68.4158ZM61.6651 79.2158H64.1851V69.8558H61.6651V79.2158ZM73.5961 69.8558L73.4341 71.1338C72.9661 70.3238 71.8501 69.6758 70.4101 69.6758C67.8541 69.6758 65.9821 71.4218 65.9821 74.5538C65.9821 77.5238 67.7281 79.3958 70.4101 79.3958C71.7961 79.3958 72.9301 78.8378 73.4161 78.0098V82.7978H75.9361V69.8558H73.5961ZM70.9861 77.1458C69.5821 77.1458 68.5741 76.1738 68.5741 74.5538C68.5741 72.9338 69.5821 71.9258 70.9861 71.9258C72.3361 71.9258 73.3621 72.9338 73.3621 74.5538C73.3621 76.1738 72.3361 77.1458 70.9861 77.1458ZM84.1683 69.8558V74.9858C84.1683 76.3718 83.5203 77.1998 82.2783 77.2178C81.0903 77.2538 80.3343 76.5518 80.3343 75.0938V69.8558H77.9403V75.4178C77.9403 77.8118 79.3263 79.3958 81.7203 79.3958C82.8363 79.3958 83.6463 78.8918 84.1323 78.1898L84.2583 79.2158H86.5623V69.8558H84.1683ZM88.6115 68.4158H91.1675V65.9858H88.6115V68.4158ZM88.6475 79.2158H91.1675V69.8558H88.6475V79.2158ZM100.399 65.6978V71.0438C99.9126 70.2338 98.7966 69.6758 97.3926 69.6758C94.8366 69.6758 92.9646 71.4218 92.9646 74.5358C92.9646 77.5238 94.7106 79.3958 97.3926 79.3958C98.8326 79.3958 99.9486 78.7478 100.417 77.9378L100.579 79.2158H102.919V65.6978H100.399ZM97.9686 77.1458C96.5646 77.1458 95.5566 76.1738 95.5566 74.5358C95.5566 72.9338 96.5646 71.9258 97.9686 71.9258C99.3186 71.9258 100.345 72.9158 100.345 74.5358C100.345 76.1738 99.3186 77.1458 97.9686 77.1458ZM104.977 68.4158H107.533V65.9858H104.977V68.4158ZM105.013 79.2158H107.533V69.8558H105.013V79.2158ZM112.93 79.2158H114.838V77.0018H113.74C112.912 77.0018 112.696 76.6958 112.696 75.8858V72.0878H114.838V69.8558H112.696V67.2998H110.176V68.9378C110.176 69.5678 110.014 69.8558 109.438 69.8558H108.736V72.0878H110.176V76.4438C110.176 78.1358 111.076 79.2158 112.93 79.2158ZM118.273 69.8558H115.573L119.119 79.0178C119.227 79.3058 119.281 79.5038 119.281 79.7198C119.281 80.2958 118.957 80.5838 118.345 80.5838H116.059V82.8158H118.345C119.767 82.8158 121.063 82.5278 121.711 80.7098L125.617 69.8558H123.043L120.721 76.9478L118.273 69.8558Z"
    fill="white"
  />
  <defs>
    <linearGradient
      id="paint0_linear_510_18839"
      x1="67.1089"
      y1="1.69417"
      x2="42.0946"
      y2="36.6124"
      gradientUnits="userSpaceOnUse"
    >
      <stop offset="0.4375" stop-color="#D4F938" />
      <stop offset="1" stop-color="#32D875" stop-opacity="0.96" />
    </linearGradient>
    <linearGradient
      id="paint1_linear_510_18839"
      x1="84.867"
      y1="4.85265"
      x2="73.1097"
      y2="21.2648"
      gradientUnits="userSpaceOnUse"
    >
      <stop offset="0.4375" stop-color="#D4F938" />
      <stop offset="1" stop-color="#32D875" stop-opacity="0.96" />
    </linearGradient>
    <clipPath id="clip0_510_18839">
      <rect
        width="48"
        height="45"
        fill="white"
        transform="translate(39.627 0.21582)"
      />
    </clipPath>
  </defs>
</svg>
