<svg
  width="116"
  height="104"
  viewBox="0 0 116 104"
  fill="none"
  xmlns="http://www.w3.org/2000/svg"
>
  <path
    d="M75.0077 28.9959L70.3091 26.7443L77.001 5.86328L81.6978 8.11484L75.0077 28.9959Z"
    fill="url(#paint0_linear_510_973)"
  />
  <path
    d="M54.1852 47.6827L49.4883 45.4311L58.699 32.2744L63.3976 34.526L54.1852 47.6827Z"
    fill="url(#paint1_linear_510_973)"
  />
  <path
    d="M63.3959 34.5247L58.6973 32.2732L70.3071 26.7451L75.004 28.9967L63.3959 34.5247Z"
    fill="#BACC11"
  />
  <path
    d="M36.3998 56.1476L31.7012 53.8961L49.4883 45.4277L54.187 47.6793L36.3998 56.1476Z"
    fill="#BACC11"
  />
  <path
    d="M36.4037 57.0445L31.7051 54.7929V53.8965L36.4037 56.148V57.0445Z"
    fill="#32D875"
  />
  <path
    d="M81.7003 8.11523L82.369 8.43048L75.7495 29.5446L63.7899 35.234L54.5847 48.3892L36.4043 57.0443V56.1479L54.1897 47.6795L63.4021 34.5213L75.0102 28.9933L81.7003 8.11523Z"
    fill="#00A44C"
  />
  <path
    d="M83.708 9.80654L74.7583 5.51857L81.9884 0.299805L83.708 9.80654Z"
    fill="url(#paint2_linear_510_973)"
  />
  <path
    d="M81.9849 0.298813L82.6463 0L84.2989 9.4126L83.7027 9.80704L81.9849 0.298813Z"
    fill="#158C45"
  />
  <path
    d="M54.1868 47.6797L54.5836 48.3894L36.4032 57.043L36.3018 56.0599L54.1868 47.6797Z"
    fill="#158C45"
  />
  <path
    d="M7.146 86.2389C8.622 85.0509 9.72 83.8989 9.72 82.0089C9.72 79.3449 7.704 77.9049 5.076 77.9049C2.628 77.9049 0.558 79.4889 0.504 82.3509H2.934C2.988 81.0909 3.852 80.2449 5.058 80.2449C6.3 80.2449 7.11 80.9469 7.074 82.2249C7.056 83.1609 6.498 83.7729 5.526 84.6369L0.702 88.7589V91.0449H9.612V88.6869H4.194L7.146 86.2389ZM16.0595 82.1169C14.9435 82.1169 14.2415 82.3869 13.7735 82.7829L14.2955 80.2629H19.8575V78.0849H12.3695L11.0195 85.5549H13.3955C13.6295 84.9069 14.4035 84.1509 15.5735 84.1509C16.9595 84.1509 17.8775 85.1589 17.8775 86.6169C17.8775 88.0929 16.9595 89.0649 15.5555 89.0649C14.2775 89.0649 13.3775 88.2909 13.3055 87.0309H10.9115C10.9835 89.8569 13.1975 91.2249 15.6455 91.2249C18.3995 91.2249 20.5055 89.4969 20.5055 86.5809C20.5055 83.8809 18.6695 82.1169 16.0595 82.1169ZM21.4002 91.0449H24.3162L26.3142 87.7329L28.3122 91.0449H31.2282L28.0782 86.1669L31.2822 81.6849H28.3122L26.3142 84.7449L24.2982 81.6849H21.3462L24.5502 86.2029L21.4002 91.0449ZM38.6726 88.6869V78.0849H36.0986V91.0449H44.5766V88.6869H38.6726ZM54.8691 86.2209C54.8691 83.3589 53.0151 81.5049 50.2251 81.5049C47.4351 81.5049 45.5631 83.4489 45.5631 86.3649C45.5631 89.2989 47.4351 91.2429 50.2431 91.2429C52.6011 91.2429 54.3831 89.9289 54.7971 87.9849H52.2591C51.9711 88.7949 51.2331 89.2089 50.3151 89.2089C49.1091 89.2089 48.1371 88.4349 48.1011 87.0489H54.8691V86.2209ZM50.2251 83.4669C51.3231 83.4669 52.2411 84.0969 52.3491 85.3929H48.1191C48.2271 84.0969 49.1451 83.4669 50.2251 83.4669ZM57.7907 81.6849H55.1807L58.7807 91.0449H61.6427L65.3507 81.6849H62.6507L60.2567 88.4889L57.7907 81.6849ZM75.0136 86.2209C75.0136 83.3589 73.1596 81.5049 70.3696 81.5049C67.5796 81.5049 65.7076 83.4489 65.7076 86.3649C65.7076 89.2989 67.5796 91.2429 70.3876 91.2429C72.7456 91.2429 74.5276 89.9289 74.9416 87.9849H72.4036C72.1156 88.7949 71.3776 89.2089 70.4596 89.2089C69.2536 89.2089 68.2816 88.4349 68.2456 87.0489H75.0136V86.2209ZM70.3696 83.4669C71.4676 83.4669 72.3856 84.0969 72.4936 85.3929H68.2636C68.3716 84.0969 69.2896 83.4669 70.3696 83.4669ZM81.4857 81.6849C80.4417 81.6849 79.7757 82.1889 79.4697 82.7649L79.1997 81.6849H76.8417V91.0449H79.3797V86.2389C79.3797 84.8169 79.8477 83.9349 81.3417 83.9349H82.7637V81.6849H81.4857ZM92.6536 89.2089C92.3476 89.2089 92.1136 89.1369 92.1136 88.6689V85.1769C92.1136 82.4229 90.0076 81.5049 87.9736 81.5049C85.5256 81.5049 83.7976 82.7829 83.7976 84.8889H86.0836C86.1196 84.0609 86.8216 83.5029 87.8656 83.5029C88.9096 83.5029 89.5756 84.0789 89.5756 85.1229V85.5369H87.0736C84.6796 85.5369 83.5636 86.6709 83.5636 88.3449C83.5636 90.1449 84.8956 91.2249 86.9656 91.2249C88.3516 91.2249 89.4316 90.7389 89.9536 89.9469C90.1516 90.7569 90.8356 91.0449 91.6636 91.0449H93.0316V89.2089H92.6536ZM89.5756 87.5169C89.5756 88.6329 88.8556 89.2449 87.6136 89.2449C86.7856 89.2449 86.1556 88.9569 86.1556 88.1829C86.1556 87.6789 86.4436 87.1749 87.5236 87.1749H89.5756V87.5169ZM101.244 81.6849L101.046 82.7829C100.506 82.0089 99.5875 81.5049 98.2735 81.5049C95.7535 81.5049 94.0075 83.2869 94.0075 86.1669C94.0075 89.0109 95.7355 90.8289 98.2375 90.8289C99.5335 90.8289 100.542 90.3429 101.046 89.5689V90.6849C101.046 91.9269 100.2 92.7729 98.7595 92.7729C97.7335 92.7729 96.9235 92.3589 96.6715 91.4409H94.2415C94.4935 93.4749 96.2755 94.8249 98.7415 94.8249C101.622 94.8249 103.512 93.1149 103.512 90.2889V81.6849H101.244ZM98.8135 88.6329C97.4815 88.6329 96.5995 87.6249 96.5995 86.1849C96.5995 84.7629 97.4815 83.7369 98.8135 83.7369C100.164 83.7369 101.046 84.7629 101.046 86.2029C101.046 87.6249 100.164 88.6329 98.8135 88.6329ZM114.635 86.2209C114.635 83.3589 112.781 81.5049 109.991 81.5049C107.201 81.5049 105.329 83.4489 105.329 86.3649C105.329 89.2989 107.201 91.2429 110.009 91.2429C112.367 91.2429 114.149 89.9289 114.563 87.9849H112.025C111.737 88.7949 110.999 89.2089 110.081 89.2089C108.875 89.2089 107.903 88.4349 107.867 87.0489H114.635V86.2209ZM109.991 83.4669C111.089 83.4669 112.007 84.0969 112.115 85.3929H107.885C107.993 84.0969 108.911 83.4669 109.991 83.4669Z"
    fill="white"
  />
  <defs>
    <linearGradient
      id="paint0_linear_510_973"
      x1="79.9137"
      y1="6.35583"
      x2="66.0697"
      y2="19.4084"
      gradientUnits="userSpaceOnUse"
    >
      <stop offset="0.4375" stop-color="#D4F938" />
      <stop offset="1" stop-color="#32D875" stop-opacity="0.96" />
    </linearGradient>
    <linearGradient
      id="paint1_linear_510_973"
      x1="61.2186"
      y1="32.6025"
      x2="53.2114"
      y2="46.4452"
      gradientUnits="userSpaceOnUse"
    >
      <stop offset="0.4375" stop-color="#D4F938" />
      <stop offset="1" stop-color="#32D875" stop-opacity="0.96" />
    </linearGradient>
    <linearGradient
      id="paint2_linear_510_973"
      x1="82.306"
      y1="0.502224"
      x2="77.471"
      y2="9.21894"
      gradientUnits="userSpaceOnUse"
    >
      <stop offset="0.4375" stop-color="#D4F938" />
      <stop offset="1" stop-color="#32D875" stop-opacity="0.96" />
    </linearGradient>
  </defs>
</svg>
