<svg width="1220" height="53" viewBox="0 0 1220 53" fill="none" xmlns="http://www.w3.org/2000/svg">
<path d="M381.161 48.0959C379.925 48.0959 378.857 47.8259 377.957 47.2859C377.069 46.7339 376.379 45.9719 375.887 44.9999C375.395 44.0159 375.149 42.8759 375.149 41.5799C375.149 40.2959 375.395 39.1679 375.887 38.1959C376.379 37.2119 377.069 36.4439 377.957 35.8919C378.857 35.3399 379.925 35.0639 381.161 35.0639C382.601 35.0639 383.771 35.4119 384.671 36.1079C385.583 36.7919 386.165 37.7519 386.417 38.9879H384.743C384.551 38.2079 384.155 37.5839 383.555 37.1159C382.967 36.6359 382.169 36.3959 381.161 36.3959C380.261 36.3959 379.475 36.6059 378.803 37.0259C378.131 37.4339 377.609 38.0279 377.237 38.8079C376.877 39.5759 376.697 40.4999 376.697 41.5799C376.697 42.6599 376.877 43.5899 377.237 44.3699C377.609 45.1379 378.131 45.7319 378.803 46.1519C379.475 46.5599 380.261 46.7639 381.161 46.7639C382.169 46.7639 382.967 46.5359 383.555 46.0799C384.155 45.6119 384.551 44.9939 384.743 44.2259H386.417C386.165 45.4379 385.583 46.3859 384.671 47.0699C383.771 47.7539 382.601 48.0959 381.161 48.0959ZM392.568 48.0959C391.728 48.0959 390.972 47.9039 390.3 47.5199C389.628 47.1359 389.094 46.5959 388.698 45.8999C388.314 45.1919 388.122 44.3639 388.122 43.4159C388.122 42.4679 388.32 41.6459 388.716 40.9499C389.112 40.2419 389.646 39.6959 390.318 39.3119C391.002 38.9279 391.764 38.7359 392.604 38.7359C393.444 38.7359 394.2 38.9279 394.872 39.3119C395.544 39.6959 396.072 40.2419 396.456 40.9499C396.852 41.6459 397.05 42.4679 397.05 43.4159C397.05 44.3639 396.852 45.1919 396.456 45.8999C396.06 46.5959 395.52 47.1359 394.836 47.5199C394.164 47.9039 393.408 48.0959 392.568 48.0959ZM392.568 46.7999C393.084 46.7999 393.564 46.6739 394.008 46.4219C394.452 46.1699 394.812 45.7919 395.088 45.2879C395.364 44.7839 395.502 44.1599 395.502 43.4159C395.502 42.6719 395.364 42.0479 395.088 41.5439C394.824 41.0399 394.47 40.6619 394.026 40.4099C393.582 40.1579 393.108 40.0319 392.604 40.0319C392.088 40.0319 391.608 40.1579 391.164 40.4099C390.72 40.6619 390.36 41.0399 390.084 41.5439C389.808 42.0479 389.67 42.6719 389.67 43.4159C389.67 44.1599 389.808 44.7839 390.084 45.2879C390.36 45.7919 390.714 46.1699 391.146 46.4219C391.59 46.6739 392.064 46.7999 392.568 46.7999ZM399.152 51.8399V38.9519H400.52L400.664 40.4279C400.952 39.9959 401.36 39.6059 401.888 39.2579C402.428 38.9099 403.112 38.7359 403.94 38.7359C404.828 38.7359 405.602 38.9399 406.262 39.3479C406.922 39.7559 407.432 40.3139 407.792 41.0219C408.164 41.7299 408.35 42.5339 408.35 43.4339C408.35 44.3339 408.164 45.1379 407.792 45.8459C407.432 46.5419 406.916 47.0939 406.244 47.5019C405.584 47.8979 404.81 48.0959 403.922 48.0959C403.19 48.0959 402.536 47.9459 401.96 47.6459C401.396 47.3459 400.964 46.9259 400.664 46.3859V51.8399H399.152ZM403.76 46.7819C404.36 46.7819 404.888 46.6439 405.344 46.3679C405.8 46.0799 406.16 45.6839 406.424 45.1799C406.688 44.6759 406.82 44.0879 406.82 43.4159C406.82 42.7439 406.688 42.1559 406.424 41.6519C406.16 41.1479 405.8 40.7579 405.344 40.4819C404.888 40.1939 404.36 40.0499 403.76 40.0499C403.16 40.0499 402.632 40.1939 402.176 40.4819C401.72 40.7579 401.36 41.1479 401.096 41.6519C400.832 42.1559 400.7 42.7439 400.7 43.4159C400.7 44.0879 400.832 44.6759 401.096 45.1799C401.36 45.6839 401.72 46.0799 402.176 46.3679C402.632 46.6439 403.16 46.7819 403.76 46.7819ZM410.706 51.8399L412.92 47.0159H412.398L408.852 38.9519H410.49L413.442 45.8999L416.574 38.9519H418.14L412.29 51.8399H410.706ZM419.736 47.8799V38.9519H421.104L421.23 40.6619C421.506 40.0739 421.926 39.6059 422.49 39.2579C423.054 38.9099 423.75 38.7359 424.578 38.7359V40.3199H424.164C423.636 40.3199 423.15 40.4159 422.706 40.6079C422.262 40.7879 421.908 41.0999 421.644 41.5439C421.38 41.9879 421.248 42.5999 421.248 43.3799V47.8799H419.736ZM427.193 36.9719C426.893 36.9719 426.641 36.8759 426.437 36.6839C426.245 36.4799 426.149 36.2279 426.149 35.9279C426.149 35.6399 426.245 35.3999 426.437 35.2079C426.641 35.0159 426.893 34.9199 427.193 34.9199C427.481 34.9199 427.727 35.0159 427.931 35.2079C428.135 35.3999 428.237 35.6399 428.237 35.9279C428.237 36.2279 428.135 36.4799 427.931 36.6839C427.727 36.8759 427.481 36.9719 427.193 36.9719ZM426.437 47.8799V38.9519H427.949V47.8799H426.437ZM434.11 45.0719C433.606 45.0719 433.144 45.0059 432.724 44.8739L431.824 45.7199C431.956 45.8159 432.118 45.8999 432.31 45.9719C432.514 46.0319 432.802 46.0919 433.174 46.1519C433.546 46.1999 434.068 46.2539 434.74 46.3139C435.94 46.3979 436.798 46.6739 437.314 47.1419C437.83 47.6099 438.088 48.2219 438.088 48.9779C438.088 49.4939 437.944 49.9859 437.656 50.4539C437.38 50.9219 436.948 51.3059 436.36 51.6059C435.784 51.9059 435.04 52.0559 434.128 52.0559C433.324 52.0559 432.61 51.9479 431.986 51.7319C431.362 51.5279 430.876 51.2099 430.528 50.7779C430.18 50.3579 430.006 49.8239 430.006 49.1759C430.006 48.8399 430.096 48.4739 430.276 48.0779C430.456 47.6939 430.792 47.3279 431.284 46.9799C431.02 46.8719 430.792 46.7579 430.6 46.6379C430.42 46.5059 430.252 46.3619 430.096 46.2059V45.7919L431.626 44.2799C430.918 43.6799 430.564 42.8879 430.564 41.9039C430.564 41.3159 430.702 40.7819 430.978 40.3019C431.254 39.8219 431.656 39.4439 432.184 39.1679C432.712 38.8799 433.354 38.7359 434.11 38.7359C434.626 38.7359 435.094 38.8079 435.514 38.9519H438.808V40.0859L437.134 40.1579C437.482 40.6619 437.656 41.2439 437.656 41.9039C437.656 42.4919 437.512 43.0259 437.224 43.5059C436.948 43.9859 436.546 44.3699 436.018 44.6579C435.502 44.9339 434.866 45.0719 434.11 45.0719ZM434.11 43.8299C434.746 43.8299 435.25 43.6679 435.622 43.3439C436.006 43.0079 436.198 42.5279 436.198 41.9039C436.198 41.2919 436.006 40.8239 435.622 40.4999C435.25 40.1639 434.746 39.9959 434.11 39.9959C433.462 39.9959 432.946 40.1639 432.562 40.4999C432.19 40.8239 432.004 41.2919 432.004 41.9039C432.004 42.5279 432.19 43.0079 432.562 43.3439C432.946 43.6679 433.462 43.8299 434.11 43.8299ZM431.482 49.0319C431.482 49.6319 431.734 50.0759 432.238 50.3639C432.742 50.6639 433.372 50.8139 434.128 50.8139C434.872 50.8139 435.466 50.6519 435.91 50.3279C436.366 50.0039 436.594 49.5719 436.594 49.0319C436.594 48.6479 436.438 48.3119 436.126 48.0239C435.814 47.7479 435.238 47.5859 434.398 47.5379C433.738 47.4899 433.168 47.4299 432.688 47.3579C432.196 47.6219 431.872 47.9039 431.716 48.2039C431.56 48.5159 431.482 48.7919 431.482 49.0319ZM440.513 47.8799V34.9199H442.025V40.4819C442.325 39.9299 442.751 39.5039 443.303 39.2039C443.855 38.8919 444.455 38.7359 445.103 38.7359C446.135 38.7359 446.963 39.0599 447.587 39.7079C448.211 40.3439 448.523 41.3279 448.523 42.6599V47.8799H447.029V42.8219C447.029 40.9619 446.279 40.0319 444.779 40.0319C443.999 40.0319 443.345 40.3139 442.817 40.8779C442.289 41.4299 442.025 42.2219 442.025 43.2539V47.8799H440.513ZM454.342 47.8799C453.526 47.8799 452.884 47.6819 452.416 47.2859C451.948 46.8899 451.714 46.1759 451.714 45.1439V40.2299H450.166V38.9519H451.714L451.912 36.8099H453.226V38.9519H455.854V40.2299H453.226V45.1439C453.226 45.7079 453.34 46.0919 453.568 46.2959C453.796 46.4879 454.198 46.5839 454.774 46.5839H455.71V47.8799H454.342ZM468.443 47.9519C467.207 47.9519 466.121 47.6819 465.185 47.1419C464.249 46.5899 463.517 45.8339 462.989 44.8739C462.473 43.9139 462.215 42.8159 462.215 41.5799C462.215 40.3319 462.473 39.2279 462.989 38.2679C463.517 37.3079 464.249 36.5579 465.185 36.0179C466.121 35.4779 467.207 35.2079 468.443 35.2079C469.679 35.2079 470.765 35.4779 471.701 36.0179C472.637 36.5579 473.363 37.3079 473.879 38.2679C474.407 39.2279 474.671 40.3319 474.671 41.5799C474.671 42.8159 474.407 43.9139 473.879 44.8739C473.363 45.8339 472.637 46.5899 471.701 47.1419C470.765 47.6819 469.679 47.9519 468.443 47.9519ZM468.443 47.2859C469.571 47.2859 470.549 47.0459 471.377 46.5659C472.205 46.0859 472.841 45.4139 473.285 44.5499C473.741 43.6859 473.969 42.6959 473.969 41.5799C473.969 40.4399 473.741 39.4439 473.285 38.5919C472.841 37.7279 472.205 37.0559 471.377 36.5759C470.549 36.0959 469.571 35.8559 468.443 35.8559C467.315 35.8559 466.337 36.0959 465.509 36.5759C464.681 37.0559 464.039 37.7279 463.583 38.5919C463.139 39.4439 462.917 40.4399 462.917 41.5799C462.917 42.6959 463.139 43.6859 463.583 44.5499C464.039 45.4139 464.681 46.0859 465.509 46.5659C466.337 47.0459 467.315 47.2859 468.443 47.2859ZM468.443 45.7379C467.723 45.7379 467.069 45.5759 466.481 45.2519C465.893 44.9279 465.419 44.4539 465.059 43.8299C464.711 43.1939 464.537 42.4379 464.537 41.5619C464.537 40.6859 464.711 39.9359 465.059 39.3119C465.419 38.6879 465.893 38.2139 466.481 37.8899C467.069 37.5539 467.723 37.3859 468.443 37.3859C469.331 37.3859 470.111 37.6259 470.783 38.1059C471.455 38.5739 471.905 39.2519 472.133 40.1399H470.747C470.579 39.5999 470.285 39.1919 469.865 38.9159C469.445 38.6279 468.965 38.4839 468.425 38.4839C467.729 38.4839 467.129 38.7419 466.625 39.2579C466.121 39.7739 465.869 40.5479 465.869 41.5799C465.869 42.5999 466.121 43.3679 466.625 43.8839C467.129 44.3999 467.729 44.6579 468.425 44.6579C469.601 44.6579 470.375 44.1119 470.747 43.0199H472.133C471.905 43.8599 471.455 44.5259 470.783 45.0179C470.111 45.4979 469.331 45.7379 468.443 45.7379ZM481.486 47.8799V46.8179C482.338 46.1459 483.142 45.4679 483.898 44.7839C484.666 44.0879 485.344 43.4039 485.932 42.7319C486.532 42.0599 487 41.3999 487.336 40.7519C487.684 40.1039 487.858 39.4799 487.858 38.8799C487.858 38.4359 487.78 38.0219 487.624 37.6379C487.48 37.2539 487.24 36.9479 486.904 36.7199C486.568 36.4799 486.112 36.3599 485.536 36.3599C484.984 36.3599 484.522 36.4859 484.15 36.7379C483.778 36.9779 483.496 37.3019 483.304 37.7099C483.124 38.1179 483.034 38.5559 483.034 39.0239H481.576C481.576 38.1959 481.75 37.4879 482.098 36.8999C482.446 36.2999 482.92 35.8439 483.52 35.5319C484.12 35.2199 484.798 35.0639 485.554 35.0639C486.67 35.0639 487.582 35.3819 488.29 36.0179C489.01 36.6419 489.37 37.5779 489.37 38.8259C489.37 39.5699 489.184 40.3079 488.812 41.0399C488.44 41.7599 487.966 42.4619 487.39 43.1459C486.814 43.8179 486.196 44.4479 485.536 45.0359C484.888 45.6239 484.282 46.1519 483.718 46.6199H489.802V47.8799H481.486ZM496.723 48.0959C495.607 48.0959 494.641 47.8259 493.825 47.2859C493.021 46.7339 492.403 45.9719 491.971 44.9999C491.539 44.0159 491.323 42.8759 491.323 41.5799C491.323 40.2839 491.539 39.1499 491.971 38.1779C492.403 37.1939 493.021 36.4319 493.825 35.8919C494.641 35.3399 495.607 35.0639 496.723 35.0639C497.839 35.0639 498.799 35.3399 499.603 35.8919C500.407 36.4319 501.025 37.1939 501.457 38.1779C501.889 39.1499 502.105 40.2839 502.105 41.5799C502.105 42.8759 501.889 44.0159 501.457 44.9999C501.025 45.9719 500.407 46.7339 499.603 47.2859C498.799 47.8259 497.839 48.0959 496.723 48.0959ZM496.723 46.7639C497.455 46.7639 498.109 46.5599 498.685 46.1519C499.273 45.7319 499.729 45.1379 500.053 44.3699C500.389 43.5899 500.557 42.6599 500.557 41.5799C500.557 40.4999 500.389 39.5759 500.053 38.8079C499.729 38.0399 499.273 37.4519 498.685 37.0439C498.109 36.6239 497.455 36.4139 496.723 36.4139C495.979 36.4139 495.319 36.6239 494.743 37.0439C494.167 37.4519 493.711 38.0399 493.375 38.8079C493.039 39.5759 492.871 40.4999 492.871 41.5799C492.871 42.6599 493.039 43.5899 493.375 44.3699C493.711 45.1379 494.167 45.7319 494.743 46.1519C495.319 46.5599 495.979 46.7639 496.723 46.7639ZM503.915 47.8799V46.8179C504.767 46.1459 505.571 45.4679 506.327 44.7839C507.095 44.0879 507.773 43.4039 508.361 42.7319C508.961 42.0599 509.429 41.3999 509.765 40.7519C510.113 40.1039 510.287 39.4799 510.287 38.8799C510.287 38.4359 510.209 38.0219 510.053 37.6379C509.909 37.2539 509.669 36.9479 509.333 36.7199C508.997 36.4799 508.541 36.3599 507.965 36.3599C507.413 36.3599 506.951 36.4859 506.579 36.7379C506.207 36.9779 505.925 37.3019 505.733 37.7099C505.553 38.1179 505.463 38.5559 505.463 39.0239H504.005C504.005 38.1959 504.179 37.4879 504.527 36.8999C504.875 36.2999 505.349 35.8439 505.949 35.5319C506.549 35.2199 507.227 35.0639 507.983 35.0639C509.099 35.0639 510.011 35.3819 510.719 36.0179C511.439 36.6419 511.799 37.5779 511.799 38.8259C511.799 39.5699 511.613 40.3079 511.241 41.0399C510.869 41.7599 510.395 42.4619 509.819 43.1459C509.243 43.8179 508.625 44.4479 507.965 45.0359C507.317 45.6239 506.711 46.1519 506.147 46.6199H512.231V47.8799H503.915ZM518.338 48.0959C517.534 48.0959 516.808 47.9519 516.16 47.6639C515.512 47.3639 514.99 46.9199 514.594 46.3319C514.21 45.7439 514.006 45.0119 513.982 44.1359H515.512C515.524 44.8559 515.776 45.4799 516.268 46.0079C516.76 46.5239 517.45 46.7819 518.338 46.7819C519.226 46.7819 519.892 46.5359 520.336 46.0439C520.792 45.5519 521.02 44.9579 521.02 44.2619C521.02 43.6739 520.876 43.1939 520.588 42.8219C520.312 42.4499 519.934 42.1739 519.454 41.9939C518.986 41.8139 518.47 41.7239 517.906 41.7239H516.97V40.4459H517.906C518.722 40.4459 519.358 40.2599 519.814 39.8879C520.282 39.5159 520.516 38.9939 520.516 38.3219C520.516 37.7579 520.33 37.2959 519.958 36.9359C519.598 36.5639 519.058 36.3779 518.338 36.3779C517.642 36.3779 517.084 36.5879 516.664 37.0079C516.244 37.4159 516.01 37.9319 515.962 38.5559H514.432C514.468 37.8719 514.648 37.2659 514.972 36.7379C515.308 36.2099 515.764 35.8019 516.34 35.5139C516.916 35.2139 517.582 35.0639 518.338 35.0639C519.154 35.0639 519.832 35.2079 520.372 35.4959C520.924 35.7839 521.338 36.1679 521.614 36.6479C521.902 37.1279 522.046 37.6559 522.046 38.2319C522.046 38.8679 521.872 39.4499 521.524 39.9779C521.176 40.4939 520.654 40.8419 519.958 41.0219C520.702 41.1779 521.32 41.5319 521.812 42.0839C522.304 42.6359 522.55 43.3619 522.55 44.2619C522.55 44.9579 522.388 45.5999 522.064 46.1879C521.752 46.7639 521.284 47.2259 520.66 47.5739C520.036 47.9219 519.262 48.0959 518.338 48.0959ZM529.76 47.8799V35.2799H533.63C535.85 35.2799 537.482 35.8439 538.526 36.9719C539.582 38.0999 540.11 39.6479 540.11 41.6159C540.11 43.5479 539.582 45.0779 538.526 46.2059C537.482 47.3219 535.85 47.8799 533.63 47.8799H529.76ZM531.272 46.6199H533.594C534.818 46.6199 535.79 46.4219 536.51 46.0259C537.242 45.6179 537.764 45.0419 538.076 44.2979C538.388 43.5419 538.544 42.6479 538.544 41.6159C538.544 40.5599 538.388 39.6539 538.076 38.8979C537.764 38.1419 537.242 37.5599 536.51 37.1519C535.79 36.7439 534.818 36.5399 533.594 36.5399H531.272V46.6199ZM546.217 48.0959C545.365 48.0959 544.609 47.9039 543.949 47.5199C543.289 47.1239 542.767 46.5779 542.383 45.8819C542.011 45.1859 541.825 44.3639 541.825 43.4159C541.825 42.4799 542.011 41.6639 542.383 40.9679C542.755 40.2599 543.271 39.7139 543.931 39.3299C544.603 38.9339 545.377 38.7359 546.253 38.7359C547.117 38.7359 547.861 38.9339 548.485 39.3299C549.121 39.7139 549.607 40.2239 549.943 40.8599C550.279 41.4959 550.447 42.1799 550.447 42.9119C550.447 43.0439 550.441 43.1759 550.429 43.3079C550.429 43.4399 550.429 43.5899 550.429 43.7579H543.319C543.355 44.4419 543.511 45.0119 543.787 45.4679C544.075 45.9119 544.429 46.2479 544.849 46.4759C545.281 46.7039 545.737 46.8179 546.217 46.8179C546.841 46.8179 547.363 46.6739 547.783 46.3859C548.203 46.0979 548.509 45.7079 548.701 45.2159H550.195C549.955 46.0439 549.493 46.7339 548.809 47.2859C548.137 47.8259 547.273 48.0959 546.217 48.0959ZM546.217 40.0139C545.497 40.0139 544.855 40.2359 544.291 40.6799C543.739 41.1119 543.421 41.7479 543.337 42.5879H548.953C548.917 41.7839 548.641 41.1539 548.125 40.6979C547.609 40.2419 546.973 40.0139 546.217 40.0139ZM552.451 47.8799V38.9519H553.819L553.909 40.5539C554.197 39.9899 554.611 39.5459 555.151 39.2219C555.691 38.8979 556.303 38.7359 556.987 38.7359C558.043 38.7359 558.883 39.0599 559.507 39.7079C560.143 40.3439 560.461 41.3279 560.461 42.6599V47.8799H558.949V42.8219C558.949 40.9619 558.181 40.0319 556.645 40.0319C555.877 40.0319 555.235 40.3139 554.719 40.8779C554.215 41.4299 553.963 42.2219 553.963 43.2539V47.8799H552.451ZM566.172 48.0959C565.104 48.0959 564.216 47.8259 563.508 47.2859C562.8 46.7459 562.386 46.0139 562.266 45.0899H563.814C563.91 45.5579 564.156 45.9659 564.552 46.3139C564.96 46.6499 565.506 46.8179 566.19 46.8179C566.826 46.8179 567.294 46.6859 567.594 46.4219C567.894 46.1459 568.044 45.8219 568.044 45.4499C568.044 44.9099 567.846 44.5499 567.45 44.3699C567.066 44.1899 566.52 44.0279 565.812 43.8839C565.332 43.7879 564.852 43.6499 564.372 43.4699C563.892 43.2899 563.49 43.0379 563.166 42.7139C562.842 42.3779 562.68 41.9399 562.68 41.3999C562.68 40.6199 562.968 39.9839 563.544 39.4919C564.132 38.9879 564.924 38.7359 565.92 38.7359C566.868 38.7359 567.642 38.9759 568.242 39.4559C568.854 39.9239 569.208 40.5959 569.304 41.4719H567.81C567.75 41.0159 567.552 40.6619 567.216 40.4099C566.892 40.1459 566.454 40.0139 565.902 40.0139C565.362 40.0139 564.942 40.1279 564.642 40.3559C564.354 40.5839 564.21 40.8839 564.21 41.2559C564.21 41.6159 564.396 41.8979 564.768 42.1019C565.152 42.3059 565.668 42.4799 566.316 42.6239C566.868 42.7439 567.39 42.8939 567.882 43.0739C568.386 43.2419 568.794 43.4999 569.106 43.8479C569.43 44.1839 569.592 44.6759 569.592 45.3239C569.604 46.1279 569.298 46.7939 568.674 47.3219C568.062 47.8379 567.228 48.0959 566.172 48.0959ZM572.67 36.9719C572.37 36.9719 572.118 36.8759 571.914 36.6839C571.722 36.4799 571.626 36.2279 571.626 35.9279C571.626 35.6399 571.722 35.3999 571.914 35.2079C572.118 35.0159 572.37 34.9199 572.67 34.9199C572.958 34.9199 573.204 35.0159 573.408 35.2079C573.612 35.3999 573.714 35.6399 573.714 35.9279C573.714 36.2279 573.612 36.4799 573.408 36.6839C573.204 36.8759 572.958 36.9719 572.67 36.9719ZM571.914 47.8799V38.9519H573.426V47.8799H571.914ZM579.586 47.8799C578.77 47.8799 578.128 47.6819 577.66 47.2859C577.192 46.8899 576.958 46.1759 576.958 45.1439V40.2299H575.41V38.9519H576.958L577.156 36.8099H578.47V38.9519H581.098V40.2299H578.47V45.1439C578.47 45.7079 578.584 46.0919 578.812 46.2959C579.04 46.4879 579.442 46.5839 580.018 46.5839H580.954V47.8799H579.586ZM583.991 51.8399L586.205 47.0159H585.683L582.137 38.9519H583.775L586.727 45.8999L589.859 38.9519H591.425L585.575 51.8399H583.991ZM597.875 47.8799V35.2799H605.669V36.5219H599.387V40.9139H605.129V42.1379H599.387V46.6379H605.669V47.8799H597.875ZM607.045 47.8799L610.141 43.4159L607.045 38.9519H608.683L611.185 42.6419L613.705 38.9519H615.325L612.229 43.4159L615.325 47.8799H613.705L611.185 44.1899L608.683 47.8799H607.045ZM620.627 48.0959C619.775 48.0959 619.007 47.9039 618.323 47.5199C617.651 47.1239 617.117 46.5779 616.721 45.8819C616.337 45.1739 616.145 44.3519 616.145 43.4159C616.145 42.4799 616.337 41.6639 616.721 40.9679C617.117 40.2599 617.651 39.7139 618.323 39.3299C619.007 38.9339 619.775 38.7359 620.627 38.7359C621.683 38.7359 622.571 39.0119 623.291 39.5639C624.023 40.1159 624.485 40.8539 624.677 41.7779H623.129C623.009 41.2259 622.715 40.7999 622.247 40.4999C621.779 40.1879 621.233 40.0319 620.609 40.0319C620.105 40.0319 619.631 40.1579 619.187 40.4099C618.743 40.6619 618.383 41.0399 618.107 41.5439C617.831 42.0479 617.693 42.6719 617.693 43.4159C617.693 44.1599 617.831 44.7839 618.107 45.2879C618.383 45.7919 618.743 46.1759 619.187 46.4399C619.631 46.6919 620.105 46.8179 620.609 46.8179C621.233 46.8179 621.779 46.6679 622.247 46.3679C622.715 46.0559 623.009 45.6179 623.129 45.0539H624.677C624.497 45.9539 624.041 46.6859 623.309 47.2499C622.577 47.8139 621.683 48.0959 620.627 48.0959ZM626.789 47.8799V34.9199H628.301V40.4819C628.601 39.9299 629.027 39.5039 629.579 39.2039C630.131 38.8919 630.731 38.7359 631.379 38.7359C632.411 38.7359 633.239 39.0599 633.863 39.7079C634.487 40.3439 634.799 41.3279 634.799 42.6599V47.8799H633.305V42.8219C633.305 40.9619 632.555 40.0319 631.055 40.0319C630.275 40.0319 629.621 40.3139 629.093 40.8779C628.565 41.4299 628.301 42.2219 628.301 43.2539V47.8799H626.789ZM640.06 48.0959C639.316 48.0959 638.698 47.9699 638.206 47.7179C637.714 47.4659 637.348 47.1299 637.108 46.7099C636.868 46.2899 636.748 45.8339 636.748 45.3419C636.748 44.4299 637.096 43.7279 637.792 43.2359C638.488 42.7439 639.436 42.4979 640.636 42.4979H643.048V42.3899C643.048 41.6099 642.844 41.0219 642.436 40.6259C642.028 40.2179 641.482 40.0139 640.798 40.0139C640.21 40.0139 639.7 40.1639 639.268 40.4639C638.848 40.7519 638.584 41.1779 638.476 41.7419H636.928C636.988 41.0939 637.204 40.5479 637.576 40.1039C637.96 39.6599 638.434 39.3239 638.998 39.0959C639.562 38.8559 640.162 38.7359 640.798 38.7359C642.046 38.7359 642.982 39.0719 643.606 39.7439C644.242 40.4039 644.56 41.2859 644.56 42.3899V47.8799H643.21L643.12 46.2779C642.868 46.7819 642.496 47.2139 642.004 47.5739C641.524 47.9219 640.876 48.0959 640.06 48.0959ZM640.294 46.8179C640.87 46.8179 641.362 46.6679 641.77 46.3679C642.19 46.0679 642.508 45.6779 642.724 45.1979C642.94 44.7179 643.048 44.2139 643.048 43.6859V43.6679H640.762C639.874 43.6679 639.244 43.8239 638.872 44.1359C638.512 44.4359 638.332 44.8139 638.332 45.2699C638.332 45.7379 638.5 46.1159 638.836 46.4039C639.184 46.6799 639.67 46.8179 640.294 46.8179ZM646.828 47.8799V38.9519H648.196L648.286 40.5539C648.574 39.9899 648.988 39.5459 649.528 39.2219C650.068 38.8979 650.68 38.7359 651.364 38.7359C652.42 38.7359 653.26 39.0599 653.884 39.7079C654.52 40.3439 654.838 41.3279 654.838 42.6599V47.8799H653.326V42.8219C653.326 40.9619 652.558 40.0319 651.022 40.0319C650.254 40.0319 649.612 40.3139 649.096 40.8779C648.592 41.4299 648.34 42.2219 648.34 43.2539V47.8799H646.828ZM660.657 45.0719C660.153 45.0719 659.691 45.0059 659.271 44.8739L658.371 45.7199C658.503 45.8159 658.665 45.8999 658.857 45.9719C659.061 46.0319 659.349 46.0919 659.721 46.1519C660.093 46.1999 660.615 46.2539 661.287 46.3139C662.487 46.3979 663.345 46.6739 663.861 47.1419C664.377 47.6099 664.635 48.2219 664.635 48.9779C664.635 49.4939 664.491 49.9859 664.203 50.4539C663.927 50.9219 663.495 51.3059 662.907 51.6059C662.331 51.9059 661.587 52.0559 660.675 52.0559C659.871 52.0559 659.157 51.9479 658.533 51.7319C657.909 51.5279 657.423 51.2099 657.075 50.7779C656.727 50.3579 656.553 49.8239 656.553 49.1759C656.553 48.8399 656.643 48.4739 656.823 48.0779C657.003 47.6939 657.339 47.3279 657.831 46.9799C657.567 46.8719 657.339 46.7579 657.147 46.6379C656.967 46.5059 656.799 46.3619 656.643 46.2059V45.7919L658.173 44.2799C657.465 43.6799 657.111 42.8879 657.111 41.9039C657.111 41.3159 657.249 40.7819 657.525 40.3019C657.801 39.8219 658.203 39.4439 658.731 39.1679C659.259 38.8799 659.901 38.7359 660.657 38.7359C661.173 38.7359 661.641 38.8079 662.061 38.9519H665.355V40.0859L663.681 40.1579C664.029 40.6619 664.203 41.2439 664.203 41.9039C664.203 42.4919 664.059 43.0259 663.771 43.5059C663.495 43.9859 663.093 44.3699 662.565 44.6579C662.049 44.9339 661.413 45.0719 660.657 45.0719ZM660.657 43.8299C661.293 43.8299 661.797 43.6679 662.169 43.3439C662.553 43.0079 662.745 42.5279 662.745 41.9039C662.745 41.2919 662.553 40.8239 662.169 40.4999C661.797 40.1639 661.293 39.9959 660.657 39.9959C660.009 39.9959 659.493 40.1639 659.109 40.4999C658.737 40.8239 658.551 41.2919 658.551 41.9039C658.551 42.5279 658.737 43.0079 659.109 43.3439C659.493 43.6679 660.009 43.8299 660.657 43.8299ZM658.029 49.0319C658.029 49.6319 658.281 50.0759 658.785 50.3639C659.289 50.6639 659.919 50.8139 660.675 50.8139C661.419 50.8139 662.013 50.6519 662.457 50.3279C662.913 50.0039 663.141 49.5719 663.141 49.0319C663.141 48.6479 662.985 48.3119 662.673 48.0239C662.361 47.7479 661.785 47.5859 660.945 47.5379C660.285 47.4899 659.715 47.4299 659.235 47.3579C658.743 47.6219 658.419 47.9039 658.263 48.2039C658.107 48.5159 658.029 48.7919 658.029 49.0319ZM670.723 48.0959C669.871 48.0959 669.115 47.9039 668.455 47.5199C667.795 47.1239 667.273 46.5779 666.889 45.8819C666.517 45.1859 666.331 44.3639 666.331 43.4159C666.331 42.4799 666.517 41.6639 666.889 40.9679C667.261 40.2599 667.777 39.7139 668.437 39.3299C669.109 38.9339 669.883 38.7359 670.759 38.7359C671.623 38.7359 672.367 38.9339 672.991 39.3299C673.627 39.7139 674.113 40.2239 674.449 40.8599C674.785 41.4959 674.953 42.1799 674.953 42.9119C674.953 43.0439 674.947 43.1759 674.935 43.3079C674.935 43.4399 674.935 43.5899 674.935 43.7579H667.825C667.861 44.4419 668.017 45.0119 668.293 45.4679C668.581 45.9119 668.935 46.2479 669.355 46.4759C669.787 46.7039 670.243 46.8179 670.723 46.8179C671.347 46.8179 671.869 46.6739 672.289 46.3859C672.709 46.0979 673.015 45.7079 673.207 45.2159H674.701C674.461 46.0439 673.999 46.7339 673.315 47.2859C672.643 47.8259 671.779 48.0959 670.723 48.0959ZM670.723 40.0139C670.003 40.0139 669.361 40.2359 668.797 40.6799C668.245 41.1119 667.927 41.7479 667.843 42.5879H673.459C673.423 41.7839 673.147 41.1539 672.631 40.6979C672.115 40.2419 671.479 40.0139 670.723 40.0139ZM681.811 49.6799V34.9199H683.323V49.6799H681.811ZM689.966 47.8799L694.61 35.2799H696.212L700.838 47.8799H699.236L698.084 44.6399H692.72L691.55 47.8799H689.966ZM693.17 43.4159H697.634L695.402 37.1879L693.17 43.4159ZM702.621 47.8799V34.9199H704.133V47.8799H702.621ZM706.611 47.8799V34.9199H708.123V47.8799H706.611ZM715.455 47.8799V35.2799H719.523C720.507 35.2799 721.311 35.4419 721.935 35.7659C722.559 36.0899 723.021 36.5339 723.321 37.0979C723.621 37.6619 723.771 38.2859 723.771 38.9699C723.771 39.7619 723.555 40.4759 723.123 41.1119C722.703 41.7479 722.043 42.1979 721.143 42.4619L723.897 47.8799H722.115L719.559 42.6779H719.451H716.967V47.8799H715.455ZM716.967 41.4899H719.415C720.387 41.4899 721.095 41.2559 721.539 40.7879C721.983 40.3199 722.205 39.7199 722.205 38.9879C722.205 38.2439 721.983 37.6559 721.539 37.2239C721.107 36.7799 720.393 36.5579 719.397 36.5579H716.967V41.4899ZM726.953 36.9719C726.653 36.9719 726.401 36.8759 726.197 36.6839C726.005 36.4799 725.909 36.2279 725.909 35.9279C725.909 35.6399 726.005 35.3999 726.197 35.2079C726.401 35.0159 726.653 34.9199 726.953 34.9199C727.241 34.9199 727.487 35.0159 727.691 35.2079C727.895 35.3999 727.997 35.6399 727.997 35.9279C727.997 36.2279 727.895 36.4799 727.691 36.6839C727.487 36.8759 727.241 36.9719 726.953 36.9719ZM726.197 47.8799V38.9519H727.709V47.8799H726.197ZM733.87 45.0719C733.366 45.0719 732.904 45.0059 732.484 44.8739L731.584 45.7199C731.716 45.8159 731.878 45.8999 732.07 45.9719C732.274 46.0319 732.562 46.0919 732.934 46.1519C733.306 46.1999 733.828 46.2539 734.5 46.3139C735.7 46.3979 736.558 46.6739 737.074 47.1419C737.59 47.6099 737.848 48.2219 737.848 48.9779C737.848 49.4939 737.704 49.9859 737.416 50.4539C737.14 50.9219 736.708 51.3059 736.12 51.6059C735.544 51.9059 734.8 52.0559 733.888 52.0559C733.084 52.0559 732.37 51.9479 731.746 51.7319C731.122 51.5279 730.636 51.2099 730.288 50.7779C729.94 50.3579 729.766 49.8239 729.766 49.1759C729.766 48.8399 729.856 48.4739 730.036 48.0779C730.216 47.6939 730.552 47.3279 731.044 46.9799C730.78 46.8719 730.552 46.7579 730.36 46.6379C730.18 46.5059 730.012 46.3619 729.856 46.2059V45.7919L731.386 44.2799C730.678 43.6799 730.324 42.8879 730.324 41.9039C730.324 41.3159 730.462 40.7819 730.738 40.3019C731.014 39.8219 731.416 39.4439 731.944 39.1679C732.472 38.8799 733.114 38.7359 733.87 38.7359C734.386 38.7359 734.854 38.8079 735.274 38.9519H738.568V40.0859L736.894 40.1579C737.242 40.6619 737.416 41.2439 737.416 41.9039C737.416 42.4919 737.272 43.0259 736.984 43.5059C736.708 43.9859 736.306 44.3699 735.778 44.6579C735.262 44.9339 734.626 45.0719 733.87 45.0719ZM733.87 43.8299C734.506 43.8299 735.01 43.6679 735.382 43.3439C735.766 43.0079 735.958 42.5279 735.958 41.9039C735.958 41.2919 735.766 40.8239 735.382 40.4999C735.01 40.1639 734.506 39.9959 733.87 39.9959C733.222 39.9959 732.706 40.1639 732.322 40.4999C731.95 40.8239 731.764 41.2919 731.764 41.9039C731.764 42.5279 731.95 43.0079 732.322 43.3439C732.706 43.6679 733.222 43.8299 733.87 43.8299ZM731.242 49.0319C731.242 49.6319 731.494 50.0759 731.998 50.3639C732.502 50.6639 733.132 50.8139 733.888 50.8139C734.632 50.8139 735.226 50.6519 735.67 50.3279C736.126 50.0039 736.354 49.5719 736.354 49.0319C736.354 48.6479 736.198 48.3119 735.886 48.0239C735.574 47.7479 734.998 47.5859 734.158 47.5379C733.498 47.4899 732.928 47.4299 732.448 47.3579C731.956 47.6219 731.632 47.9039 731.476 48.2039C731.32 48.5159 731.242 48.7919 731.242 49.0319ZM740.273 47.8799V34.9199H741.785V40.4819C742.085 39.9299 742.511 39.5039 743.063 39.2039C743.615 38.8919 744.215 38.7359 744.863 38.7359C745.895 38.7359 746.723 39.0599 747.347 39.7079C747.971 40.3439 748.283 41.3279 748.283 42.6599V47.8799H746.789V42.8219C746.789 40.9619 746.039 40.0319 744.539 40.0319C743.759 40.0319 743.105 40.3139 742.577 40.8779C742.049 41.4299 741.785 42.2219 741.785 43.2539V47.8799H740.273ZM754.102 47.8799C753.286 47.8799 752.644 47.6819 752.176 47.2859C751.708 46.8899 751.474 46.1759 751.474 45.1439V40.2299H749.926V38.9519H751.474L751.672 36.8099H752.986V38.9519H755.614V40.2299H752.986V45.1439C752.986 45.7079 753.1 46.0919 753.328 46.2959C753.556 46.4879 753.958 46.5839 754.534 46.5839H755.47V47.8799H754.102ZM760.955 48.0959C759.887 48.0959 758.999 47.8259 758.291 47.2859C757.583 46.7459 757.169 46.0139 757.049 45.0899H758.597C758.693 45.5579 758.939 45.9659 759.335 46.3139C759.743 46.6499 760.289 46.8179 760.973 46.8179C761.609 46.8179 762.077 46.6859 762.377 46.4219C762.677 46.1459 762.827 45.8219 762.827 45.4499C762.827 44.9099 762.629 44.5499 762.233 44.3699C761.849 44.1899 761.303 44.0279 760.595 43.8839C760.115 43.7879 759.635 43.6499 759.155 43.4699C758.675 43.2899 758.273 43.0379 757.949 42.7139C757.625 42.3779 757.463 41.9399 757.463 41.3999C757.463 40.6199 757.751 39.9839 758.327 39.4919C758.915 38.9879 759.707 38.7359 760.703 38.7359C761.651 38.7359 762.425 38.9759 763.025 39.4559C763.637 39.9239 763.991 40.5959 764.087 41.4719H762.593C762.533 41.0159 762.335 40.6619 761.999 40.4099C761.675 40.1459 761.237 40.0139 760.685 40.0139C760.145 40.0139 759.725 40.1279 759.425 40.3559C759.137 40.5839 758.993 40.8839 758.993 41.2559C758.993 41.6159 759.179 41.8979 759.551 42.1019C759.935 42.3059 760.451 42.4799 761.099 42.6239C761.651 42.7439 762.173 42.8939 762.665 43.0739C763.169 43.2419 763.577 43.4999 763.889 43.8479C764.213 44.1839 764.375 44.6759 764.375 45.3239C764.387 46.1279 764.081 46.7939 763.457 47.3219C762.845 47.8379 762.011 48.0959 760.955 48.0959ZM771.389 47.8799V35.2799H775.457C776.441 35.2799 777.245 35.4419 777.869 35.7659C778.493 36.0899 778.955 36.5339 779.255 37.0979C779.555 37.6619 779.705 38.2859 779.705 38.9699C779.705 39.7619 779.489 40.4759 779.057 41.1119C778.637 41.7479 777.977 42.1979 777.077 42.4619L779.831 47.8799H778.049L775.493 42.6779H775.385H772.901V47.8799H771.389ZM772.901 41.4899H775.349C776.321 41.4899 777.029 41.2559 777.473 40.7879C777.917 40.3199 778.139 39.7199 778.139 38.9879C778.139 38.2439 777.917 37.6559 777.473 37.2239C777.041 36.7799 776.327 36.5579 775.331 36.5579H772.901V41.4899ZM785.438 48.0959C784.586 48.0959 783.83 47.9039 783.17 47.5199C782.51 47.1239 781.988 46.5779 781.604 45.8819C781.232 45.1859 781.046 44.3639 781.046 43.4159C781.046 42.4799 781.232 41.6639 781.604 40.9679C781.976 40.2599 782.492 39.7139 783.152 39.3299C783.824 38.9339 784.598 38.7359 785.474 38.7359C786.338 38.7359 787.082 38.9339 787.706 39.3299C788.342 39.7139 788.828 40.2239 789.164 40.8599C789.5 41.4959 789.668 42.1799 789.668 42.9119C789.668 43.0439 789.662 43.1759 789.65 43.3079C789.65 43.4399 789.65 43.5899 789.65 43.7579H782.54C782.576 44.4419 782.732 45.0119 783.008 45.4679C783.296 45.9119 783.65 46.2479 784.07 46.4759C784.502 46.7039 784.958 46.8179 785.438 46.8179C786.062 46.8179 786.584 46.6739 787.004 46.3859C787.424 46.0979 787.73 45.7079 787.922 45.2159H789.416C789.176 46.0439 788.714 46.7339 788.03 47.2859C787.358 47.8259 786.494 48.0959 785.438 48.0959ZM785.438 40.0139C784.718 40.0139 784.076 40.2359 783.512 40.6799C782.96 41.1119 782.642 41.7479 782.558 42.5879H788.174C788.138 41.7839 787.862 41.1539 787.346 40.6979C786.83 40.2419 786.194 40.0139 785.438 40.0139ZM795.092 48.0959C794.024 48.0959 793.136 47.8259 792.428 47.2859C791.72 46.7459 791.306 46.0139 791.186 45.0899H792.734C792.83 45.5579 793.076 45.9659 793.472 46.3139C793.88 46.6499 794.426 46.8179 795.11 46.8179C795.746 46.8179 796.214 46.6859 796.514 46.4219C796.814 46.1459 796.964 45.8219 796.964 45.4499C796.964 44.9099 796.766 44.5499 796.37 44.3699C795.986 44.1899 795.44 44.0279 794.732 43.8839C794.252 43.7879 793.772 43.6499 793.292 43.4699C792.812 43.2899 792.41 43.0379 792.086 42.7139C791.762 42.3779 791.6 41.9399 791.6 41.3999C791.6 40.6199 791.888 39.9839 792.464 39.4919C793.052 38.9879 793.844 38.7359 794.84 38.7359C795.788 38.7359 796.562 38.9759 797.162 39.4559C797.774 39.9239 798.128 40.5959 798.224 41.4719H796.73C796.67 41.0159 796.472 40.6619 796.136 40.4099C795.812 40.1459 795.374 40.0139 794.822 40.0139C794.282 40.0139 793.862 40.1279 793.562 40.3559C793.274 40.5839 793.13 40.8839 793.13 41.2559C793.13 41.6159 793.316 41.8979 793.688 42.1019C794.072 42.3059 794.588 42.4799 795.236 42.6239C795.788 42.7439 796.31 42.8939 796.802 43.0739C797.306 43.2419 797.714 43.4999 798.026 43.8479C798.35 44.1839 798.512 44.6759 798.512 45.3239C798.524 46.1279 798.218 46.7939 797.594 47.3219C796.982 47.8379 796.148 48.0959 795.092 48.0959ZM804.686 48.0959C803.834 48.0959 803.078 47.9039 802.418 47.5199C801.758 47.1239 801.236 46.5779 800.852 45.8819C800.48 45.1859 800.294 44.3639 800.294 43.4159C800.294 42.4799 800.48 41.6639 800.852 40.9679C801.224 40.2599 801.74 39.7139 802.4 39.3299C803.072 38.9339 803.846 38.7359 804.722 38.7359C805.586 38.7359 806.33 38.9339 806.954 39.3299C807.59 39.7139 808.076 40.2239 808.412 40.8599C808.748 41.4959 808.916 42.1799 808.916 42.9119C808.916 43.0439 808.91 43.1759 808.898 43.3079C808.898 43.4399 808.898 43.5899 808.898 43.7579H801.788C801.824 44.4419 801.98 45.0119 802.256 45.4679C802.544 45.9119 802.898 46.2479 803.318 46.4759C803.75 46.7039 804.206 46.8179 804.686 46.8179C805.31 46.8179 805.832 46.6739 806.252 46.3859C806.672 46.0979 806.978 45.7079 807.17 45.2159H808.664C808.424 46.0439 807.962 46.7339 807.278 47.2859C806.606 47.8259 805.742 48.0959 804.686 48.0959ZM804.686 40.0139C803.966 40.0139 803.324 40.2359 802.76 40.6799C802.208 41.1119 801.89 41.7479 801.806 42.5879H807.422C807.386 41.7839 807.11 41.1539 806.594 40.6979C806.078 40.2419 805.442 40.0139 804.686 40.0139ZM810.92 47.8799V38.9519H812.288L812.414 40.6619C812.69 40.0739 813.11 39.6059 813.674 39.2579C814.238 38.9099 814.934 38.7359 815.762 38.7359V40.3199H815.348C814.82 40.3199 814.334 40.4159 813.89 40.6079C813.446 40.7879 813.092 41.0999 812.828 41.5439C812.564 41.9879 812.432 42.5999 812.432 43.3799V47.8799H810.92ZM820.033 47.8799L816.649 38.9519H818.233L820.915 46.4219L823.615 38.9519H825.163L821.779 47.8799H820.033ZM830.402 48.0959C829.55 48.0959 828.794 47.9039 828.134 47.5199C827.474 47.1239 826.952 46.5779 826.568 45.8819C826.196 45.1859 826.01 44.3639 826.01 43.4159C826.01 42.4799 826.196 41.6639 826.568 40.9679C826.94 40.2599 827.456 39.7139 828.116 39.3299C828.788 38.9339 829.562 38.7359 830.438 38.7359C831.302 38.7359 832.046 38.9339 832.67 39.3299C833.306 39.7139 833.792 40.2239 834.128 40.8599C834.464 41.4959 834.632 42.1799 834.632 42.9119C834.632 43.0439 834.626 43.1759 834.614 43.3079C834.614 43.4399 834.614 43.5899 834.614 43.7579H827.504C827.54 44.4419 827.696 45.0119 827.972 45.4679C828.26 45.9119 828.614 46.2479 829.034 46.4759C829.466 46.7039 829.922 46.8179 830.402 46.8179C831.026 46.8179 831.548 46.6739 831.968 46.3859C832.388 46.0979 832.694 45.7079 832.886 45.2159H834.38C834.14 46.0439 833.678 46.7339 832.994 47.2859C832.322 47.8259 831.458 48.0959 830.402 48.0959ZM830.402 40.0139C829.682 40.0139 829.04 40.2359 828.476 40.6799C827.924 41.1119 827.606 41.7479 827.522 42.5879H833.138C833.102 41.7839 832.826 41.1539 832.31 40.6979C831.794 40.2419 831.158 40.0139 830.402 40.0139ZM840.687 48.0959C839.799 48.0959 839.019 47.8919 838.347 47.4839C837.687 47.0759 837.171 46.5179 836.799 45.8099C836.439 45.1019 836.259 44.2979 836.259 43.3979C836.259 42.4979 836.445 41.6999 836.817 41.0039C837.189 40.2959 837.705 39.7439 838.365 39.3479C839.025 38.9399 839.805 38.7359 840.705 38.7359C841.437 38.7359 842.085 38.8859 842.649 39.1859C843.213 39.4859 843.651 39.9059 843.963 40.4459V34.9199H845.475V47.8799H844.107L843.963 46.4039C843.675 46.8359 843.261 47.2259 842.721 47.5739C842.181 47.9219 841.503 48.0959 840.687 48.0959ZM840.849 46.7819C841.449 46.7819 841.977 46.6439 842.433 46.3679C842.901 46.0799 843.261 45.6839 843.513 45.1799C843.777 44.6759 843.909 44.0879 843.909 43.4159C843.909 42.7439 843.777 42.1559 843.513 41.6519C843.261 41.1479 842.901 40.7579 842.433 40.4819C841.977 40.1939 841.449 40.0499 840.849 40.0499C840.261 40.0499 839.733 40.1939 839.265 40.4819C838.809 40.7579 838.449 41.1479 838.185 41.6519C837.933 42.1559 837.807 42.7439 837.807 43.4159C837.807 44.0879 837.933 44.6759 838.185 45.1799C838.449 45.6839 838.809 46.0799 839.265 46.3679C839.733 46.6439 840.261 46.7819 840.849 46.7819Z" fill="#E2FF6F"/>
<line x1="1220" y1="1.37988" x2="4.37115e-08" y2="1.37999" stroke="#E2FF6F"/>
</svg>
