<svg width="154" height="102" viewBox="0 0 154 102" fill="none" xmlns="http://www.w3.org/2000/svg">
<path d="M69.0605 23.9382C68.9873 20.571 68.9214 17.211 68.8482 13.8438C68.9287 13.0093 69.2508 10.8133 70.9857 8.91738C73.2183 6.47979 76.2049 6.29679 77.237 6.23091C78.0569 6.17967 80.8971 6.04058 83.525 7.92185C85.9699 9.66403 87.3314 12.0138 87.3314 13.7852V23.9455H93.0923V14.078C93.0045 12.5701 92.558 8.68313 89.5787 5.38909C85.1134 0.440713 78.4741 0.909201 76.6295 1.03364C74.7409 1.1654 70.8027 1.42894 67.3329 4.51801C64.0169 7.46801 63.1532 11.2086 62.9189 12.5189C62.9043 16.3253 62.8896 20.1391 62.875 23.9455H69.0605V23.9382Z" fill="#024D00"/>
<path d="M61.5332 23.9381H92.2995C92.6728 23.9088 93.4341 23.9015 94.2247 24.3188C95.7326 25.1093 96.062 26.7417 96.106 26.9686V49.7268C96.0328 49.9903 95.8571 50.4954 95.3959 50.9346C94.598 51.7105 93.5732 51.6886 93.3682 51.6812H61.5259C61.2404 51.652 60.5889 51.5422 59.9594 51.0517C59.2054 50.4661 58.9638 49.6975 58.8906 49.4413V26.2952C58.9785 25.9951 59.1761 25.4534 59.6519 24.9483C60.362 24.1943 61.2257 24.004 61.5259 23.9528L61.5332 23.9381Z" fill="url(#paint0_linear_510_18830)"/>
<path d="M68.2607 23.9382C68.1875 20.571 68.1216 17.211 68.0484 13.8438C68.1289 13.0093 68.451 10.8133 70.1859 8.91738C72.4185 6.47979 75.4051 6.29679 76.4372 6.23091C77.2571 6.17967 80.0973 6.04058 82.7252 7.92185C85.1701 9.66403 86.5316 12.0138 86.5316 13.7852V23.9455H92.2925V14.078C92.2047 12.5701 91.7581 8.68313 88.7789 5.38909C84.3136 0.440713 77.6743 0.909201 75.8296 1.03364C73.9411 1.1654 70.0028 1.42894 66.5331 4.51801C63.2171 7.46801 62.3534 11.2086 62.1191 12.5189C62.1045 16.3253 62.0898 20.1391 62.0752 23.9455H68.2607V23.9382Z" fill="#5EAA5E"/>
<path d="M77.2912 46.381V44.957C76.5499 44.7916 75.9232 44.4716 75.4112 43.997C74.9046 43.517 74.5366 42.9383 74.3072 42.261L76.0032 41.637C76.2219 42.1276 76.5312 42.5303 76.9312 42.845C77.3366 43.1596 77.8006 43.317 78.3232 43.317C78.8566 43.317 79.2832 43.1836 79.6032 42.917C79.9232 42.6503 80.0832 42.2636 80.0832 41.757C80.0832 41.3996 79.9819 41.101 79.7792 40.861C79.5766 40.6156 79.3072 40.405 78.9712 40.229C78.6406 40.053 78.2752 39.8876 77.8752 39.733C77.4966 39.5836 77.1179 39.4236 76.7392 39.253C76.3659 39.077 76.0246 38.8663 75.7152 38.621C75.4112 38.3703 75.1659 38.0636 74.9792 37.701C74.7979 37.3383 74.7072 36.8983 74.7072 36.381C74.7072 35.709 74.9312 35.109 75.3792 34.581C75.8272 34.0476 76.4646 33.7116 77.2912 33.573V32.301H79.1072V33.589C79.7526 33.7276 80.2779 33.9996 80.6832 34.405C81.0886 34.805 81.3686 35.277 81.5232 35.821L79.8592 36.373C79.7312 36.053 79.5179 35.7836 79.2192 35.565C78.9206 35.341 78.5366 35.229 78.0672 35.229C77.6086 35.229 77.2512 35.3303 76.9952 35.533C76.7392 35.7303 76.6112 36.013 76.6112 36.381C76.6112 36.6636 76.7046 36.9036 76.8912 37.101C77.0832 37.2983 77.3366 37.4743 77.6512 37.629C77.9659 37.7783 78.3099 37.9223 78.6832 38.061C79.0512 38.1996 79.4272 38.3623 79.8112 38.549C80.2006 38.7356 80.5579 38.965 80.8832 39.237C81.2139 39.509 81.4806 39.8476 81.6832 40.253C81.8859 40.6583 81.9872 41.1516 81.9872 41.733C81.9872 42.3516 81.8592 42.8876 81.6032 43.341C81.3526 43.7943 81.0112 44.1623 80.5792 44.445C80.1472 44.7223 79.6566 44.9063 79.1072 44.997V46.381H77.2912Z" fill="#024D00"/>
<path d="M76.7351 46.381V44.957C75.9938 44.7916 75.3671 44.4716 74.8551 43.997C74.3484 43.517 73.9804 42.9383 73.7511 42.261L75.4471 41.637C75.6658 42.1276 75.9751 42.5303 76.3751 42.845C76.7804 43.1596 77.2444 43.317 77.7671 43.317C78.3004 43.317 78.7271 43.1836 79.0471 42.917C79.3671 42.6503 79.5271 42.2636 79.5271 41.757C79.5271 41.3996 79.4258 41.101 79.2231 40.861C79.0204 40.6156 78.7511 40.405 78.4151 40.229C78.0844 40.053 77.7191 39.8876 77.3191 39.733C76.9404 39.5836 76.5618 39.4236 76.1831 39.253C75.8098 39.077 75.4684 38.8663 75.1591 38.621C74.8551 38.3703 74.6098 38.0636 74.4231 37.701C74.2418 37.3383 74.1511 36.8983 74.1511 36.381C74.1511 35.709 74.3751 35.109 74.8231 34.581C75.2711 34.0476 75.9084 33.7116 76.7351 33.573V32.301H78.5511V33.589C79.1964 33.7276 79.7218 33.9996 80.1271 34.405C80.5324 34.805 80.8124 35.277 80.9671 35.821L79.3031 36.373C79.1751 36.053 78.9618 35.7836 78.6631 35.565C78.3644 35.341 77.9804 35.229 77.5111 35.229C77.0524 35.229 76.6951 35.3303 76.4391 35.533C76.1831 35.7303 76.0551 36.013 76.0551 36.381C76.0551 36.6636 76.1484 36.9036 76.3351 37.101C76.5271 37.2983 76.7804 37.4743 77.0951 37.629C77.4098 37.7783 77.7538 37.9223 78.1271 38.061C78.4951 38.1996 78.8711 38.3623 79.2551 38.549C79.6444 38.7356 80.0018 38.965 80.3271 39.237C80.6578 39.509 80.9244 39.8476 81.1271 40.253C81.3298 40.6583 81.4311 41.1516 81.4311 41.733C81.4311 42.3516 81.3031 42.8876 81.0471 43.341C80.7964 43.7943 80.4551 44.1623 80.0231 44.445C79.5911 44.7223 79.1004 44.9063 78.5511 44.997V46.381H76.7351Z" fill="#5EAA5E"/>
<path d="M11.9245 85.7257C11.9245 83.6917 10.8085 82.4137 8.41454 81.9457L6.36254 81.5677C4.97654 81.2977 4.45454 80.8297 4.45454 79.9837C4.45454 79.0477 5.31854 78.4357 6.68654 78.4357C8.10854 78.4357 9.17054 78.9757 9.17054 80.2717H11.7085C11.7085 77.4097 9.26054 76.3297 6.72254 76.3297C3.62654 76.3297 1.80854 78.0217 1.80854 80.2177C1.80854 82.1617 3.08654 83.4037 5.40854 83.8357L7.44254 84.2317C8.70254 84.4657 9.24254 84.8977 9.24254 85.7977C9.24254 86.8237 8.27054 87.4717 6.83054 87.4717C5.01254 87.4717 4.13054 86.7157 4.13054 85.6537H1.52054C1.52054 88.0477 3.53654 89.6317 6.83054 89.6317C9.69254 89.6317 11.9245 88.2277 11.9245 85.7257ZM22.2674 87.6337C21.9614 87.6337 21.7274 87.5617 21.7274 87.0937V83.6017C21.7274 80.8477 19.6214 79.9297 17.5874 79.9297C15.1394 79.9297 13.4114 81.2077 13.4114 83.3137H15.6974C15.7334 82.4857 16.4354 81.9277 17.4794 81.9277C18.5234 81.9277 19.1894 82.5037 19.1894 83.5477V83.9617H16.6874C14.2934 83.9617 13.1774 85.0957 13.1774 86.7697C13.1774 88.5697 14.5094 89.6497 16.5794 89.6497C17.9654 89.6497 19.0454 89.1637 19.5674 88.3717C19.7654 89.1817 20.4494 89.4697 21.2774 89.4697H22.6454V87.6337H22.2674ZM19.1894 85.9417C19.1894 87.0577 18.4694 87.6697 17.2274 87.6697C16.3994 87.6697 15.7694 87.3817 15.7694 86.6077C15.7694 86.1037 16.0574 85.5997 17.1374 85.5997H19.1894V85.9417ZM23.2948 80.1097V82.3057H24.7348V89.4697H27.2728V82.3057H29.4148V80.1097H27.2728V79.1557C27.2728 78.4897 27.4528 77.9857 28.4788 77.9857H29.4148V75.9337H27.9208C25.5628 75.9337 24.7348 77.0857 24.7348 78.9037V80.1097H23.2948ZM39.6254 84.6457C39.6254 81.7837 37.7714 79.9297 34.9814 79.9297C32.1914 79.9297 30.3194 81.8737 30.3194 84.7897C30.3194 87.7237 32.1914 89.6677 34.9994 89.6677C37.3574 89.6677 39.1394 88.3537 39.5534 86.4097H37.0154C36.7274 87.2197 35.9894 87.6337 35.0714 87.6337C33.8654 87.6337 32.8934 86.8597 32.8574 85.4737H39.6254V84.6457ZM34.9814 81.8917C36.0794 81.8917 36.9974 82.5217 37.1054 83.8177H32.8754C32.9834 82.5217 33.9014 81.8917 34.9814 81.8917ZM53.4334 87.6337C53.1274 87.6337 52.8934 87.5617 52.8934 87.0937V83.6017C52.8934 80.8477 50.7874 79.9297 48.7534 79.9297C46.3054 79.9297 44.5774 81.2077 44.5774 83.3137H46.8634C46.8994 82.4857 47.6014 81.9277 48.6454 81.9277C49.6894 81.9277 50.3554 82.5037 50.3554 83.5477V83.9617H47.8534C45.4594 83.9617 44.3434 85.0957 44.3434 86.7697C44.3434 88.5697 45.6754 89.6497 47.7454 89.6497C49.1314 89.6497 50.2114 89.1637 50.7334 88.3717C50.9314 89.1817 51.6154 89.4697 52.4434 89.4697H53.8114V87.6337H53.4334ZM50.3554 85.9417C50.3554 87.0577 49.6354 87.6697 48.3934 87.6697C47.5654 87.6697 46.9354 87.3817 46.9354 86.6077C46.9354 86.1037 47.2234 85.5997 48.3034 85.5997H50.3554V85.9417ZM60.5791 79.9297C59.1751 79.9297 58.2391 80.4517 57.7531 81.2257L57.6091 80.1097H55.2691V89.4697H57.7891V84.5197C57.7891 83.0077 58.5091 82.0897 59.8411 82.0897C61.0651 82.0897 61.8031 82.8817 61.8031 84.4297V89.4697H64.3411V83.9077C64.3411 81.5137 62.9731 79.9297 60.5791 79.9297ZM73.4537 75.9517V81.2977C72.9677 80.4877 71.8517 79.9297 70.4477 79.9297C67.8917 79.9297 66.0197 81.6757 66.0197 84.7897C66.0197 87.7777 67.7657 89.6497 70.4477 89.6497C71.8877 89.6497 73.0037 89.0017 73.4717 88.1917L73.6337 89.4697H75.9737V75.9517H73.4537ZM71.0237 87.3997C69.6197 87.3997 68.6117 86.4277 68.6117 84.7897C68.6117 83.1877 69.6197 82.1797 71.0237 82.1797C72.3737 82.1797 73.3997 83.1697 73.3997 84.7897C73.3997 86.4277 72.3737 87.3997 71.0237 87.3997ZM91.2898 85.7257C91.2898 83.6917 90.1738 82.4137 87.7798 81.9457L85.7278 81.5677C84.3418 81.2977 83.8198 80.8297 83.8198 79.9837C83.8198 79.0477 84.6838 78.4357 86.0518 78.4357C87.4738 78.4357 88.5358 78.9757 88.5358 80.2717H91.0738C91.0738 77.4097 88.6258 76.3297 86.0878 76.3297C82.9918 76.3297 81.1738 78.0217 81.1738 80.2177C81.1738 82.1617 82.4518 83.4037 84.7738 83.8357L86.8078 84.2317C88.0678 84.4657 88.6078 84.8977 88.6078 85.7977C88.6078 86.8237 87.6358 87.4717 86.1958 87.4717C84.3778 87.4717 83.4958 86.7157 83.4958 85.6537H80.8858C80.8858 88.0477 82.9018 89.6317 86.1958 89.6317C89.0578 89.6317 91.2898 88.2277 91.2898 85.7257ZM101.993 84.6457C101.993 81.7837 100.139 79.9297 97.3486 79.9297C94.5586 79.9297 92.6866 81.8737 92.6866 84.7897C92.6866 87.7237 94.5586 89.6677 97.3666 89.6677C99.7246 89.6677 101.507 88.3537 101.921 86.4097H99.3826C99.0946 87.2197 98.3566 87.6337 97.4386 87.6337C96.2326 87.6337 95.2606 86.8597 95.2246 85.4737H101.993V84.6457ZM97.3486 81.8917C98.4466 81.8917 99.3646 82.5217 99.4726 83.8177H95.2426C95.3506 82.5217 96.2686 81.8917 97.3486 81.8917ZM109.998 83.7457H112.68C112.266 81.2977 110.484 79.9297 108.108 79.9297C105.264 79.9297 103.356 81.8737 103.356 84.7897C103.356 87.7237 105.264 89.6677 108.09 89.6677C110.448 89.6677 112.23 88.2277 112.68 85.7977H109.998C109.692 86.8957 109.026 87.4717 108.018 87.4717C106.83 87.4717 105.93 86.6077 105.93 84.7897C105.93 83.1337 106.776 82.0897 108.09 82.0897C109.026 82.0897 109.764 82.6657 109.998 83.7457ZM120.347 80.1097V85.2397C120.347 86.6257 119.699 87.4537 118.457 87.4717C117.269 87.5077 116.513 86.8057 116.513 85.3477V80.1097H114.119V85.6717C114.119 88.0657 115.505 89.6497 117.899 89.6497C119.015 89.6497 119.825 89.1457 120.311 88.4437L120.437 89.4697H122.741V80.1097H120.347ZM129.506 80.1097C128.462 80.1097 127.796 80.6137 127.49 81.1897L127.22 80.1097H124.862V89.4697H127.4V84.6637C127.4 83.2417 127.868 82.3597 129.362 82.3597H130.784V80.1097H129.506ZM140.911 84.6457C140.911 81.7837 139.057 79.9297 136.267 79.9297C133.477 79.9297 131.605 81.8737 131.605 84.7897C131.605 87.7237 133.477 89.6677 136.285 89.6677C138.643 89.6677 140.425 88.3537 140.839 86.4097H138.301C138.013 87.2197 137.275 87.6337 136.357 87.6337C135.151 87.6337 134.179 86.8597 134.143 85.4737H140.911V84.6457ZM136.267 81.8917C137.365 81.8917 138.283 82.5217 138.391 83.8177H134.161C134.269 82.5217 135.187 81.8917 136.267 81.8917ZM149.708 75.9517V81.2977C149.222 80.4877 148.106 79.9297 146.702 79.9297C144.146 79.9297 142.274 81.6757 142.274 84.7897C142.274 87.7777 144.02 89.6497 146.702 89.6497C148.142 89.6497 149.258 89.0017 149.726 88.1917L149.888 89.4697H152.228V75.9517H149.708ZM147.278 87.3997C145.874 87.3997 144.866 86.4277 144.866 84.7897C144.866 83.1877 145.874 82.1797 147.278 82.1797C148.628 82.1797 149.654 83.1697 149.654 84.7897C149.654 86.4277 148.628 87.3997 147.278 87.3997Z" fill="white"/>
<path d="M8.41454 81.9457L8.6064 80.9642L8.5957 80.9623L8.41454 81.9457ZM6.36254 81.5677L6.17131 82.5493L6.18137 82.5512L6.36254 81.5677ZM9.17054 80.2717H8.17054V81.2717H9.17054V80.2717ZM11.7085 80.2717V81.2717H12.7085V80.2717H11.7085ZM5.40854 83.8357L5.59964 82.8541L5.59144 82.8526L5.40854 83.8357ZM7.44254 84.2317L7.25143 85.2133L7.25994 85.2149L7.44254 84.2317ZM4.13054 85.6537H5.13054V84.6537H4.13054V85.6537ZM1.52054 85.6537V84.6537H0.520535V85.6537H1.52054ZM12.9245 85.7257C12.9245 84.518 12.588 83.4295 11.8052 82.5736C11.0357 81.7322 9.93348 81.2237 8.60639 80.9643L8.22268 82.9271C9.28959 83.1357 9.94238 83.5002 10.3294 83.9234C10.703 84.3319 10.9245 84.8995 10.9245 85.7257H12.9245ZM8.5957 80.9623L6.5437 80.5843L6.18137 82.5512L8.23337 82.9292L8.5957 80.9623ZM6.55375 80.5862C5.91202 80.4612 5.63985 80.3171 5.53397 80.2277C5.49435 80.1942 5.48434 80.1738 5.47889 80.1609C5.47123 80.1428 5.45454 80.0926 5.45454 79.9837H3.45454C3.45454 80.6479 3.67706 81.2773 4.2436 81.7558C4.74522 82.1793 5.42705 82.4043 6.17132 82.5493L6.55375 80.5862ZM5.45454 79.9837C5.45454 79.8657 5.49125 79.7755 5.62972 79.6789C5.79901 79.5607 6.13651 79.4357 6.68654 79.4357V77.4357C5.86856 77.4357 5.09007 77.6167 4.48535 78.0386C3.84982 78.482 3.45454 79.1657 3.45454 79.9837H5.45454ZM6.68654 79.4357C7.29585 79.4357 7.69174 79.5555 7.90514 79.6985C8.06086 79.8028 8.17054 79.9445 8.17054 80.2717H10.1705C10.1705 79.303 9.74921 78.5266 9.01843 78.037C8.34533 77.586 7.49922 77.4357 6.68654 77.4357V79.4357ZM9.17054 81.2717H11.7085V79.2717H9.17054V81.2717ZM12.7085 80.2717C12.7085 78.5049 11.9286 77.2105 10.7271 76.3988C9.57649 75.6216 8.11062 75.3297 6.72254 75.3297V77.3297C7.87245 77.3297 8.89958 77.5779 9.6075 78.0561C10.2645 78.4999 10.7085 79.1765 10.7085 80.2717H12.7085ZM6.72254 75.3297C4.99777 75.3297 3.5263 75.8018 2.46638 76.6803C1.39394 77.5692 0.808535 78.8243 0.808535 80.2177H2.80854C2.80854 79.4152 3.13213 78.7262 3.74269 78.2201C4.36577 77.7037 5.3513 77.3297 6.72254 77.3297V75.3297ZM0.808535 80.2177C0.808535 81.4281 1.21527 82.4884 2.03199 83.3021C2.82854 84.0958 3.93833 84.5794 5.22563 84.8189L5.59144 82.8526C4.55674 82.6601 3.86653 82.3067 3.44358 81.8853C3.0408 81.484 2.80854 80.9514 2.80854 80.2177H0.808535ZM5.21743 84.8173L7.25143 85.2133L7.63364 83.2502L5.59964 82.8542L5.21743 84.8173ZM7.25994 85.2149C7.83969 85.3226 8.07685 85.4496 8.16569 85.5255C8.19688 85.5521 8.20659 85.5695 8.21383 85.5871C8.22361 85.6108 8.24254 85.6718 8.24254 85.7977H10.2425C10.2425 85.1185 10.0235 84.4819 9.46438 84.0045C8.96822 83.5808 8.30538 83.3749 7.62513 83.2485L7.25994 85.2149ZM8.24254 85.7977C8.24254 85.9496 8.18902 86.0726 8.01075 86.1949C7.80225 86.338 7.41578 86.4717 6.83053 86.4717V88.4717C7.68529 88.4717 8.50482 88.2815 9.14232 87.844C9.81005 87.3859 10.2425 86.6719 10.2425 85.7977H8.24254ZM6.83053 86.4717C6.04148 86.4717 5.59952 86.305 5.38234 86.1489C5.20405 86.0208 5.13054 85.8728 5.13054 85.6537H3.13054C3.13054 86.4967 3.49802 87.2577 4.21523 87.7731C4.89355 88.2605 5.80159 88.4717 6.83053 88.4717V86.4717ZM4.13054 84.6537H1.52054V86.6537H4.13054V84.6537ZM0.520535 85.6537C0.520535 87.1626 1.17015 88.4521 2.3356 89.3369C3.47426 90.2014 5.03589 90.6317 6.83053 90.6317V88.6317C5.33118 88.6317 4.23781 88.27 3.54497 87.744C2.87892 87.2383 2.52054 86.5389 2.52054 85.6537H0.520535ZM6.83053 90.6317C8.41055 90.6317 9.90722 90.246 11.0377 89.4267C12.1983 88.5854 12.9245 87.3148 12.9245 85.7257H10.9245C10.9245 86.6386 10.5347 87.3211 9.86392 87.8073C9.16285 88.3154 8.11252 88.6317 6.83053 88.6317V90.6317ZM13.4114 83.3137H12.4114V84.3137H13.4114V83.3137ZM15.6974 83.3137V84.3137H16.6548L16.6964 83.3572L15.6974 83.3137ZM19.1894 83.9617V84.9617H20.1894V83.9617H19.1894ZM19.5674 88.3717L20.5388 88.1343L19.9943 85.9068L18.7324 87.8214L19.5674 88.3717ZM22.6454 89.4697V90.4697H23.6454V89.4697H22.6454ZM22.6454 87.6337H23.6454V86.6337H22.6454V87.6337ZM19.1894 85.5997H20.1894V84.5997H19.1894V85.5997ZM22.2674 86.6337C22.2229 86.6337 22.231 86.6303 22.2654 86.6378C22.3049 86.6463 22.4001 86.6736 22.5028 86.7548C22.6128 86.8417 22.6766 86.9472 22.7071 87.03C22.7332 87.1007 22.7274 87.1335 22.7274 87.0937H20.7274C20.7274 87.4738 20.8235 87.9766 21.2624 88.3236C21.6463 88.6272 22.09 88.6337 22.2674 88.6337V86.6337ZM22.7274 87.0937V83.6017H20.7274V87.0937H22.7274ZM22.7274 83.6017C22.7274 81.9332 22.0702 80.7046 21.0123 79.9272C20.002 79.1848 18.7322 78.9297 17.5874 78.9297V80.9297C18.4765 80.9297 19.2767 81.1337 19.8279 81.5388C20.3315 81.9089 20.7274 82.5162 20.7274 83.6017H22.7274ZM17.5874 78.9297C16.2001 78.9297 14.9191 79.2911 13.9616 80.0472C12.9805 80.8219 12.4114 81.9585 12.4114 83.3137H14.4114C14.4114 82.563 14.7062 82.0076 15.2011 81.6168C15.7197 81.2073 16.5267 80.9297 17.5874 80.9297V78.9297ZM13.4114 84.3137H15.6974V82.3137H13.4114V84.3137ZM16.6964 83.3572C16.7016 83.2378 16.7443 83.1622 16.8267 83.0977C16.9243 83.0213 17.1289 82.9277 17.4794 82.9277V80.9277C16.7858 80.9277 16.1174 81.1132 15.5941 81.5227C15.0554 81.9443 14.7291 82.5616 14.6983 83.2703L16.6964 83.3572ZM17.4794 82.9277C17.824 82.9277 17.983 83.0214 18.0471 83.0806C18.0998 83.1293 18.1894 83.2459 18.1894 83.5477H20.1894C20.1894 82.8056 19.9459 82.1121 19.4046 81.6118C18.8747 81.1221 18.1787 80.9277 17.4794 80.9277V82.9277ZM18.1894 83.5477V83.9617H20.1894V83.5477H18.1894ZM19.1894 82.9617H16.6874V84.9617H19.1894V82.9617ZM16.6874 82.9617C15.3468 82.9617 14.2059 83.2782 13.386 83.9768C12.5435 84.6948 12.1774 85.6989 12.1774 86.7697H14.1774C14.1774 86.1666 14.3693 85.7666 14.6832 85.4991C15.0198 85.2122 15.6339 84.9617 16.6874 84.9617V82.9617ZM12.1774 86.7697C12.1774 87.9365 12.62 88.9487 13.4605 89.6518C14.2798 90.3371 15.3804 90.6497 16.5794 90.6497V88.6497C15.7084 88.6497 15.108 88.4224 14.7437 88.1177C14.4007 87.8308 14.1774 87.4029 14.1774 86.7697H12.1774ZM16.5794 90.6497C18.1631 90.6497 19.6302 90.0935 20.4023 88.922L18.7324 87.8214C18.4605 88.2339 17.7676 88.6497 16.5794 88.6497V90.6497ZM18.596 88.6092C18.7587 89.2748 19.1464 89.778 19.6851 90.0899C20.1905 90.3825 20.7624 90.4697 21.2774 90.4697V88.4697C20.9643 88.4697 20.7802 88.4129 20.6871 88.3591C20.646 88.3352 20.6215 88.3117 20.6038 88.2878C20.5858 88.2637 20.5594 88.2187 20.5388 88.1343L18.596 88.6092ZM21.2774 90.4697H22.6454V88.4697H21.2774V90.4697ZM23.6454 89.4697V87.6337H21.6454V89.4697H23.6454ZM22.6454 86.6337H22.2674V88.6337H22.6454V86.6337ZM18.1894 85.9417C18.1894 86.2743 18.0906 86.4062 18.0167 86.4707C17.9219 86.5534 17.6973 86.6697 17.2274 86.6697V88.6697C17.9994 88.6697 18.7558 88.4801 19.3315 87.9777C19.9281 87.4573 20.1894 86.7251 20.1894 85.9417H18.1894ZM17.2274 86.6697C17.0756 86.6697 16.9562 86.6563 16.8677 86.6366C16.7783 86.6166 16.7391 86.5946 16.7308 86.5892C16.7281 86.5875 16.7481 86.6013 16.7643 86.6319C16.7797 86.661 16.7694 86.6631 16.7694 86.6077H14.7694C14.7694 87.3171 15.085 87.9067 15.6449 88.2687C16.1377 88.5873 16.7257 88.6697 17.2274 88.6697V86.6697ZM16.7694 86.6077C16.7694 86.5747 16.7743 86.5706 16.7687 86.5858C16.7611 86.6061 16.7449 86.6329 16.7226 86.6532C16.6773 86.6946 16.7361 86.5997 17.1374 86.5997V84.5997C16.4587 84.5997 15.8335 84.7568 15.3741 85.1762C14.8997 85.6094 14.7694 86.1677 14.7694 86.6077H16.7694ZM17.1374 86.5997H19.1894V84.5997H17.1374V86.5997ZM18.1894 85.5997V85.9417H20.1894V85.5997H18.1894ZM23.2948 80.1097V79.1097H22.2948V80.1097H23.2948ZM23.2948 82.3057H22.2948V83.3057H23.2948V82.3057ZM24.7348 82.3057H25.7348V81.3057H24.7348V82.3057ZM24.7348 89.4697H23.7348V90.4697H24.7348V89.4697ZM27.2728 89.4697V90.4697H28.2728V89.4697H27.2728ZM27.2728 82.3057V81.3057H26.2728V82.3057H27.2728ZM29.4148 82.3057V83.3057H30.4148V82.3057H29.4148ZM29.4148 80.1097H30.4148V79.1097H29.4148V80.1097ZM27.2728 80.1097H26.2728V81.1097H27.2728V80.1097ZM29.4148 77.9857V78.9857H30.4148V77.9857H29.4148ZM29.4148 75.9337H30.4148V74.9337H29.4148V75.9337ZM24.7348 80.1097V81.1097H25.7348V80.1097H24.7348ZM22.2948 80.1097V82.3057H24.2948V80.1097H22.2948ZM23.2948 83.3057H24.7348V81.3057H23.2948V83.3057ZM23.7348 82.3057V89.4697H25.7348V82.3057H23.7348ZM24.7348 90.4697H27.2728V88.4697H24.7348V90.4697ZM28.2728 89.4697V82.3057H26.2728V89.4697H28.2728ZM27.2728 83.3057H29.4148V81.3057H27.2728V83.3057ZM30.4148 82.3057V80.1097H28.4148V82.3057H30.4148ZM29.4148 79.1097H27.2728V81.1097H29.4148V79.1097ZM28.2728 80.1097V79.1557H26.2728V80.1097H28.2728ZM28.2728 79.1557C28.2728 79.0276 28.2822 78.956 28.2907 78.9194C28.298 78.8883 28.297 78.9156 28.2613 78.9587C28.2211 79.0072 28.1833 79.0204 28.1943 79.0164C28.2162 79.0086 28.2984 78.9857 28.4788 78.9857V76.9857C27.8236 76.9857 27.1649 77.1468 26.7208 77.6832C26.3111 78.1781 26.2728 78.781 26.2728 79.1557H28.2728ZM28.4788 78.9857H29.4148V76.9857H28.4788V78.9857ZM30.4148 77.9857V75.9337H28.4148V77.9857H30.4148ZM29.4148 74.9337H27.9208V76.9337H29.4148V74.9337ZM27.9208 74.9337C26.5944 74.9337 25.4881 75.2578 24.7271 76.0393C23.9703 76.8165 23.7348 77.8624 23.7348 78.9037H25.7348C25.7348 78.1271 25.9133 77.688 26.16 77.4346C26.4024 77.1857 26.8891 76.9337 27.9208 76.9337V74.9337ZM23.7348 78.9037V80.1097H25.7348V78.9037H23.7348ZM24.7348 79.1097H23.2948V81.1097H24.7348V79.1097ZM39.5534 86.4097L40.5315 86.618L40.7888 85.4097H39.5534V86.4097ZM37.0154 86.4097V85.4097H36.3096L36.0732 86.0747L37.0154 86.4097ZM32.8574 85.4737V84.4737H31.8311L31.8577 85.4997L32.8574 85.4737ZM39.6254 85.4737V86.4737H40.6254V85.4737H39.6254ZM37.1054 83.8177V84.8177H38.1922L38.102 83.7347L37.1054 83.8177ZM32.8754 83.8177L31.8789 83.7347L31.7886 84.8177H32.8754V83.8177ZM40.6254 84.6457C40.6254 82.995 40.0866 81.5486 39.0607 80.5113C38.0339 79.4732 36.6031 78.9297 34.9814 78.9297V80.9297C36.1497 80.9297 37.0409 81.3133 37.6387 81.9177C38.2372 82.5229 38.6254 83.4345 38.6254 84.6457H40.6254ZM34.9814 78.9297C33.3458 78.9297 31.909 79.505 30.8829 80.5736C29.8601 81.6386 29.3194 83.1156 29.3194 84.7897H31.3194C31.3194 83.5479 31.7147 82.5948 32.3254 81.9589C32.9328 81.3264 33.827 80.9297 34.9814 80.9297V78.9297ZM29.3194 84.7897C29.3194 86.4713 29.8592 87.9534 30.8852 89.0217C31.9146 90.0935 33.3565 90.6677 34.9994 90.6677V88.6677C33.8344 88.6677 32.9362 88.2699 32.3276 87.6363C31.7156 86.999 31.3194 86.0421 31.3194 84.7897H29.3194ZM34.9994 90.6677C37.7312 90.6677 40 89.1134 40.5315 86.618L38.5753 86.2014C38.2788 87.594 36.9837 88.6677 34.9994 88.6677V90.6677ZM39.5534 85.4097H37.0154V87.4097H39.5534V85.4097ZM36.0732 86.0747C35.9615 86.3889 35.6795 86.6337 35.0714 86.6337V88.6337C36.2993 88.6337 37.4933 88.0505 37.9576 86.7447L36.0732 86.0747ZM35.0714 86.6337C34.6809 86.6337 34.3902 86.5102 34.2031 86.3379C34.0247 86.1736 33.8688 85.9001 33.8571 85.4478L31.8577 85.4997C31.882 86.4333 32.2301 87.2399 32.8482 87.8091C33.4576 88.3702 34.2559 88.6337 35.0714 88.6337V86.6337ZM32.8574 86.4737H39.6254V84.4737H32.8574V86.4737ZM40.6254 85.4737V84.6457H38.6254V85.4737H40.6254ZM34.9814 82.8917C35.3438 82.8917 35.6054 82.9949 35.7714 83.1343C35.9246 83.2631 36.0744 83.4867 36.1089 83.9008L38.102 83.7347C38.0285 82.8528 37.6652 82.1134 37.058 81.6031C36.4634 81.1036 35.717 80.8917 34.9814 80.8917V82.8917ZM37.1054 82.8177H32.8754V84.8177H37.1054V82.8177ZM33.872 83.9008C33.9065 83.4865 34.0566 83.2617 34.2094 83.1325C34.3745 82.9929 34.6315 82.8917 34.9814 82.8917V80.8917C34.2513 80.8917 33.5093 81.1055 32.9184 81.605C32.3152 82.1148 31.9523 82.853 31.8789 83.7347L33.872 83.9008ZM44.5774 83.3137H43.5774V84.3137H44.5774V83.3137ZM46.8634 83.3137V84.3137H47.8208L47.8624 83.3572L46.8634 83.3137ZM50.3554 83.9617V84.9617H51.3554V83.9617H50.3554ZM50.7334 88.3717L51.7048 88.1343L51.1603 85.9068L49.8984 87.8214L50.7334 88.3717ZM53.8114 89.4697V90.4697H54.8114V89.4697H53.8114ZM53.8114 87.6337H54.8114V86.6337H53.8114V87.6337ZM50.3554 85.5997H51.3554V84.5997H50.3554V85.5997ZM53.4334 86.6337C53.389 86.6337 53.397 86.6303 53.4315 86.6378C53.4709 86.6463 53.5662 86.6736 53.6689 86.7548C53.7788 86.8417 53.8426 86.9472 53.8731 87.03C53.8992 87.1007 53.8934 87.1335 53.8934 87.0937H51.8934C51.8934 87.4738 51.9895 87.9766 52.4284 88.3236C52.8123 88.6272 53.256 88.6337 53.4334 88.6337V86.6337ZM53.8934 87.0937V83.6017H51.8934V87.0937H53.8934ZM53.8934 83.6017C53.8934 81.9332 53.2362 80.7046 52.1783 79.9272C51.1681 79.1848 49.8983 78.9297 48.7534 78.9297V80.9297C49.6425 80.9297 50.4427 81.1337 50.994 81.5388C51.4975 81.9089 51.8934 82.5162 51.8934 83.6017H53.8934ZM48.7534 78.9297C47.3661 78.9297 46.0851 79.2911 45.1277 80.0472C44.1465 80.8219 43.5774 81.9585 43.5774 83.3137H45.5774C45.5774 82.563 45.8722 82.0076 46.3671 81.6168C46.8857 81.2073 47.6927 80.9297 48.7534 80.9297V78.9297ZM44.5774 84.3137H46.8634V82.3137H44.5774V84.3137ZM47.8624 83.3572C47.8676 83.2378 47.9103 83.1622 47.9927 83.0977C48.0904 83.0213 48.2949 82.9277 48.6454 82.9277V80.9277C47.9518 80.9277 47.2834 81.1132 46.7601 81.5227C46.2214 81.9443 45.8951 82.5616 45.8643 83.2703L47.8624 83.3572ZM48.6454 82.9277C48.9901 82.9277 49.1491 83.0214 49.2131 83.0806C49.2659 83.1293 49.3554 83.2459 49.3554 83.5477H51.3554C51.3554 82.8056 51.1119 82.1121 50.5706 81.6118C50.0407 81.1221 49.3447 80.9277 48.6454 80.9277V82.9277ZM49.3554 83.5477V83.9617H51.3554V83.5477H49.3554ZM50.3554 82.9617H47.8534V84.9617H50.3554V82.9617ZM47.8534 82.9617C46.5128 82.9617 45.3719 83.2782 44.552 83.9768C43.7095 84.6948 43.3434 85.6989 43.3434 86.7697H45.3434C45.3434 86.1666 45.5353 85.7666 45.8492 85.4991C46.1859 85.2122 46.7999 84.9617 47.8534 84.9617V82.9617ZM43.3434 86.7697C43.3434 87.9365 43.786 88.9487 44.6265 89.6518C45.4458 90.3371 46.5464 90.6497 47.7454 90.6497V88.6497C46.8744 88.6497 46.274 88.4224 45.9097 88.1177C45.5667 87.8308 45.3434 87.4029 45.3434 86.7697H43.3434ZM47.7454 90.6497C49.3291 90.6497 50.7962 90.0935 51.5683 88.922L49.8984 87.8214C49.6265 88.2339 48.9337 88.6497 47.7454 88.6497V90.6497ZM49.762 88.6092C49.9247 89.2748 50.3124 89.778 50.8511 90.0899C51.3565 90.3825 51.9284 90.4697 52.4434 90.4697V88.4697C52.1303 88.4697 51.9463 88.4129 51.8532 88.3591C51.812 88.3352 51.7876 88.3117 51.7698 88.2878C51.7518 88.2637 51.7254 88.2187 51.7048 88.1343L49.762 88.6092ZM52.4434 90.4697H53.8114V88.4697H52.4434V90.4697ZM54.8114 89.4697V87.6337H52.8114V89.4697H54.8114ZM53.8114 86.6337H53.4334V88.6337H53.8114V86.6337ZM49.3554 85.9417C49.3554 86.2743 49.2566 86.4062 49.1827 86.4707C49.0879 86.5534 48.8633 86.6697 48.3934 86.6697V88.6697C49.1654 88.6697 49.9218 88.4801 50.4976 87.9777C51.0941 87.4573 51.3554 86.7251 51.3554 85.9417H49.3554ZM48.3934 86.6697C48.2417 86.6697 48.1223 86.6563 48.0337 86.6366C47.9443 86.6166 47.9051 86.5946 47.8968 86.5892C47.8941 86.5875 47.9141 86.6013 47.9303 86.6319C47.9457 86.661 47.9354 86.6631 47.9354 86.6077H45.9354C45.9354 87.3171 46.251 87.9067 46.8109 88.2687C47.3037 88.5873 47.8917 88.6697 48.3934 88.6697V86.6697ZM47.9354 86.6077C47.9354 86.5747 47.9403 86.5706 47.9347 86.5858C47.9271 86.6061 47.9109 86.6329 47.8886 86.6532C47.8433 86.6946 47.9021 86.5997 48.3034 86.5997V84.5997C47.6247 84.5997 46.9995 84.7568 46.5401 85.1762C46.0657 85.6094 45.9354 86.1677 45.9354 86.6077H47.9354ZM48.3034 86.5997H50.3554V84.5997H48.3034V86.5997ZM49.3554 85.5997V85.9417H51.3554V85.5997H49.3554ZM57.7531 81.2257L56.7613 81.3537L57.118 84.1177L58.6 81.7575L57.7531 81.2257ZM57.6091 80.1097L58.6009 79.9818L58.4884 79.1097H57.6091V80.1097ZM55.2691 80.1097V79.1097H54.2691V80.1097H55.2691ZM55.2691 89.4697H54.2691V90.4697H55.2691V89.4697ZM57.7891 89.4697V90.4697H58.7891V89.4697H57.7891ZM61.8031 89.4697H60.8031V90.4697H61.8031V89.4697ZM64.3411 89.4697V90.4697H65.3411V89.4697H64.3411ZM60.5791 78.9297C58.9188 78.9297 57.6174 79.5613 56.9062 80.694L58.6 81.7575C58.8608 81.3421 59.4314 80.9297 60.5791 80.9297V78.9297ZM58.7449 81.0978L58.6009 79.9818L56.6173 80.2377L56.7613 81.3537L58.7449 81.0978ZM57.6091 79.1097H55.2691V81.1097H57.6091V79.1097ZM54.2691 80.1097V89.4697H56.2691V80.1097H54.2691ZM55.2691 90.4697H57.7891V88.4697H55.2691V90.4697ZM58.7891 89.4697V84.5197H56.7891V89.4697H58.7891ZM58.7891 84.5197C58.7891 83.9073 58.9362 83.5562 59.0859 83.3755C59.2123 83.2227 59.4225 83.0897 59.8411 83.0897V81.0897C58.9277 81.0897 58.1119 81.4158 57.5453 82.1C57.0019 82.7563 56.7891 83.6201 56.7891 84.5197H58.7891ZM59.8411 83.0897C60.2271 83.0897 60.4148 83.2059 60.5237 83.3322C60.652 83.481 60.8031 83.8 60.8031 84.4297H62.8031C62.8031 83.5115 62.5852 82.6605 62.0385 82.0263C61.4724 81.3696 60.6791 81.0897 59.8411 81.0897V83.0897ZM60.8031 84.4297V89.4697H62.8031V84.4297H60.8031ZM61.8031 90.4697H64.3411V88.4697H61.8031V90.4697ZM65.3411 89.4697V83.9077H63.3411V89.4697H65.3411ZM65.3411 83.9077C65.3411 82.5251 64.9444 81.2661 64.0929 80.343C63.2315 79.409 62.0063 78.9297 60.5791 78.9297V80.9297C61.5459 80.9297 62.2017 81.2424 62.6228 81.699C63.0538 82.1663 63.3411 82.8963 63.3411 83.9077H65.3411ZM73.4537 75.9517V74.9517H72.4537V75.9517H73.4537ZM73.4537 81.2977L72.5962 81.8122L74.4537 84.908V81.2977H73.4537ZM73.4717 88.1917L74.4638 88.066L74.0906 85.1217L72.6059 87.6914L73.4717 88.1917ZM73.6337 89.4697L72.6417 89.5955L72.7525 90.4697H73.6337V89.4697ZM75.9737 89.4697V90.4697H76.9737V89.4697H75.9737ZM75.9737 75.9517H76.9737V74.9517H75.9737V75.9517ZM72.4537 75.9517V81.2977H74.4537V75.9517H72.4537ZM74.3112 80.7832C73.5873 79.5766 72.0752 78.9297 70.4477 78.9297V80.9297C71.6282 80.9297 72.3482 81.3988 72.5962 81.8122L74.3112 80.7832ZM70.4477 78.9297C68.9362 78.9297 67.5536 79.4511 66.5516 80.5018C65.5518 81.5502 65.0197 83.0312 65.0197 84.7897H67.0197C67.0197 83.4342 67.4237 82.4852 67.9989 81.8821C68.5718 81.2814 69.4033 80.9297 70.4477 80.9297V78.9297ZM65.0197 84.7897C65.0197 86.4758 65.5145 87.9514 66.491 89.0161C67.4756 90.0897 68.8632 90.6497 70.4477 90.6497V88.6497C69.3503 88.6497 68.5239 88.2737 67.965 87.6643C67.398 87.0461 67.0197 86.0917 67.0197 84.7897H65.0197ZM70.4477 90.6497C72.1598 90.6497 73.6521 89.8784 74.3376 88.692L72.6059 87.6914C72.3554 88.125 71.6156 88.6497 70.4477 88.6497V90.6497ZM72.4797 88.3175L72.6417 89.5955L74.6258 89.344L74.4638 88.066L72.4797 88.3175ZM73.6337 90.4697H75.9737V88.4697H73.6337V90.4697ZM76.9737 89.4697V75.9517H74.9737V89.4697H76.9737ZM75.9737 74.9517H73.4537V76.9517H75.9737V74.9517ZM71.0237 86.3997C70.5593 86.3997 70.23 86.2441 70.0145 86.0184C69.7966 85.7902 69.6117 85.4018 69.6117 84.7897H67.6117C67.6117 85.8156 67.9309 86.7323 68.568 87.3995C69.2074 88.0693 70.0842 88.3997 71.0237 88.3997V86.3997ZM69.6117 84.7897C69.6117 84.2004 69.7939 83.8079 70.018 83.5709C70.2388 83.3372 70.5698 83.1797 71.0237 83.1797V81.1797C70.0737 81.1797 69.1986 81.5262 68.5645 82.197C67.9336 82.8645 67.6117 83.777 67.6117 84.7897H69.6117ZM71.0237 83.1797C71.4462 83.1797 71.7697 83.3297 71.9912 83.5641C72.2145 83.8003 72.3997 84.1937 72.3997 84.7897H74.3997C74.3997 83.7657 74.072 82.8541 73.4448 82.1904C72.8158 81.5248 71.9513 81.1797 71.0237 81.1797V83.1797ZM72.3997 84.7897C72.3997 85.3971 72.2131 85.7885 71.9929 86.0203C71.7742 86.2506 71.4515 86.3997 71.0237 86.3997V88.3997C71.946 88.3997 72.8113 88.0629 73.4431 87.3976C74.0734 86.734 74.3997 85.8204 74.3997 84.7897H72.3997ZM87.7798 81.9457L87.9716 80.9642L87.9609 80.9623L87.7798 81.9457ZM85.7278 81.5677L85.5366 82.5493L85.5466 82.5512L85.7278 81.5677ZM88.5358 80.2717H87.5358V81.2717H88.5358V80.2717ZM91.0738 80.2717V81.2717H92.0738V80.2717H91.0738ZM84.7738 83.8357L84.9649 82.8541L84.9567 82.8526L84.7738 83.8357ZM86.8078 84.2317L86.6167 85.2133L86.6252 85.2149L86.8078 84.2317ZM83.4958 85.6537H84.4958V84.6537H83.4958V85.6537ZM80.8858 85.6537V84.6537H79.8858V85.6537H80.8858ZM92.2898 85.7257C92.2898 84.518 91.9533 83.4295 91.1704 82.5736C90.4009 81.7322 89.2987 81.2237 87.9716 80.9643L87.5879 82.9271C88.6548 83.1357 89.3076 83.5002 89.6946 83.9234C90.0683 84.3319 90.2898 84.8995 90.2898 85.7257H92.2898ZM87.9609 80.9623L85.9089 80.5843L85.5466 82.5512L87.5986 82.9292L87.9609 80.9623ZM85.919 80.5862C85.2773 80.4612 85.0051 80.3171 84.8992 80.2277C84.8596 80.1942 84.8496 80.1738 84.8441 80.1609C84.8365 80.1428 84.8198 80.0926 84.8198 79.9837H82.8198C82.8198 80.6479 83.0423 81.2773 83.6088 81.7558C84.1105 82.1793 84.7923 82.4043 85.5366 82.5493L85.919 80.5862ZM84.8198 79.9837C84.8198 79.8657 84.8565 79.7755 84.9949 79.6789C85.1642 79.5607 85.5017 79.4357 86.0518 79.4357V77.4357C85.2338 77.4357 84.4553 77.6167 83.8506 78.0386C83.215 78.482 82.8198 79.1657 82.8198 79.9837H84.8198ZM86.0518 79.4357C86.6611 79.4357 87.057 79.5555 87.2704 79.6985C87.4261 79.8028 87.5358 79.9445 87.5358 80.2717H89.5358C89.5358 79.303 89.1144 78.5266 88.3837 78.037C87.7106 77.586 86.8645 77.4357 86.0518 77.4357V79.4357ZM88.5358 81.2717H91.0738V79.2717H88.5358V81.2717ZM92.0738 80.2717C92.0738 78.5049 91.2938 77.2105 90.0923 76.3988C88.9417 75.6216 87.4759 75.3297 86.0878 75.3297V77.3297C87.2377 77.3297 88.2648 77.5779 88.9727 78.0561C89.6297 78.4999 90.0738 79.1765 90.0738 80.2717H92.0738ZM86.0878 75.3297C84.363 75.3297 82.8915 75.8018 81.8316 76.6803C80.7592 77.5692 80.1738 78.8243 80.1738 80.2177H82.1738C82.1738 79.4152 82.4974 78.7262 83.1079 78.2201C83.731 77.7037 84.7165 77.3297 86.0878 77.3297V75.3297ZM80.1738 80.2177C80.1738 81.4281 80.5805 82.4884 81.3972 83.3021C82.1938 84.0958 83.3036 84.5794 84.5909 84.8189L84.9567 82.8526C83.922 82.6601 83.2318 82.3067 82.8088 81.8853C82.406 81.484 82.1738 80.9514 82.1738 80.2177H80.1738ZM84.5827 84.8173L86.6167 85.2133L86.9989 83.2502L84.9649 82.8542L84.5827 84.8173ZM86.6252 85.2149C87.2049 85.3226 87.4421 85.4496 87.5309 85.5255C87.5621 85.5521 87.5718 85.5695 87.5791 85.5871C87.5889 85.6108 87.6078 85.6718 87.6078 85.7977H89.6078C89.6078 85.1185 89.3887 84.4819 88.8296 84.0045C88.3335 83.5808 87.6706 83.3749 86.9904 83.2485L86.6252 85.2149ZM87.6078 85.7977C87.6078 85.9496 87.5543 86.0726 87.376 86.1949C87.1675 86.338 86.781 86.4717 86.1958 86.4717V88.4717C87.0505 88.4717 87.8701 88.2815 88.5076 87.844C89.1753 87.3859 89.6078 86.6719 89.6078 85.7977H87.6078ZM86.1958 86.4717C85.4067 86.4717 84.9648 86.305 84.7476 86.1489C84.5693 86.0208 84.4958 85.8728 84.4958 85.6537H82.4958C82.4958 86.4967 82.8633 87.2577 83.5805 87.7731C84.2588 88.2605 85.1668 88.4717 86.1958 88.4717V86.4717ZM83.4958 84.6537H80.8858V86.6537H83.4958V84.6537ZM79.8858 85.6537C79.8858 87.1626 80.5354 88.4521 81.7008 89.3369C82.8395 90.2014 84.4011 90.6317 86.1958 90.6317V88.6317C84.6964 88.6317 83.603 88.27 82.9102 87.744C82.2442 87.2383 81.8858 86.5389 81.8858 85.6537H79.8858ZM86.1958 90.6317C87.7758 90.6317 89.2725 90.246 90.4029 89.4267C91.5636 88.5854 92.2898 87.3148 92.2898 85.7257H90.2898C90.2898 86.6386 89.9 87.3211 89.2291 87.8073C88.5281 88.3154 87.4778 88.6317 86.1958 88.6317V90.6317ZM101.921 86.4097L102.899 86.618L103.156 85.4097H101.921V86.4097ZM99.3826 86.4097V85.4097H98.6768L98.4404 86.0747L99.3826 86.4097ZM95.2246 85.4737V84.4737H94.1983L94.2249 85.4997L95.2246 85.4737ZM101.993 85.4737V86.4737H102.993V85.4737H101.993ZM99.4726 83.8177V84.8177H100.559L100.469 83.7347L99.4726 83.8177ZM95.2426 83.8177L94.2461 83.7347L94.1558 84.8177H95.2426V83.8177ZM102.993 84.6457C102.993 82.995 102.454 81.5486 101.428 80.5113C100.401 79.4732 98.9703 78.9297 97.3486 78.9297V80.9297C98.5169 80.9297 99.4081 81.3133 100.006 81.9177C100.604 82.5229 100.993 83.4345 100.993 84.6457H102.993ZM97.3486 78.9297C95.713 78.9297 94.2762 79.505 93.2501 80.5736C92.2273 81.6386 91.6866 83.1156 91.6866 84.7897H93.6866C93.6866 83.5479 94.0819 82.5948 94.6926 81.9589C95.3 81.3264 96.1942 80.9297 97.3486 80.9297V78.9297ZM91.6866 84.7897C91.6866 86.4713 92.2264 87.9534 93.2524 89.0217C94.2818 90.0935 95.7236 90.6677 97.3666 90.6677V88.6677C96.2015 88.6677 95.3034 88.2699 94.6948 87.6363C94.0828 86.999 93.6866 86.0421 93.6866 84.7897H91.6866ZM97.3666 90.6677C100.098 90.6677 102.367 89.1134 102.899 86.618L100.943 86.2014C100.646 87.594 99.3508 88.6677 97.3666 88.6677V90.6677ZM101.921 85.4097H99.3826V87.4097H101.921V85.4097ZM98.4404 86.0747C98.3287 86.3889 98.0467 86.6337 97.4386 86.6337V88.6337C98.6665 88.6337 99.8605 88.0505 100.325 86.7447L98.4404 86.0747ZM97.4386 86.6337C97.0481 86.6337 96.7574 86.5102 96.5703 86.3379C96.3919 86.1736 96.236 85.9001 96.2243 85.4478L94.2249 85.4997C94.2492 86.4333 94.5973 87.2399 95.2154 87.8091C95.8248 88.3702 96.6231 88.6337 97.4386 88.6337V86.6337ZM95.2246 86.4737H101.993V84.4737H95.2246V86.4737ZM102.993 85.4737V84.6457H100.993V85.4737H102.993ZM97.3486 82.8917C97.711 82.8917 97.9726 82.9949 98.1385 83.1343C98.2918 83.2631 98.4415 83.4867 98.4761 83.9008L100.469 83.7347C100.396 82.8528 100.032 82.1134 99.4251 81.6031C98.8306 81.1036 98.0842 80.8917 97.3486 80.8917V82.8917ZM99.4726 82.8177H95.2426V84.8177H99.4726V82.8177ZM96.2391 83.9008C96.2737 83.4865 96.4238 83.2617 96.5766 83.1325C96.7417 82.9929 96.9987 82.8917 97.3486 82.8917V80.8917C96.6185 80.8917 95.8765 81.1055 95.2856 81.605C94.6824 82.1148 94.3195 82.853 94.2461 83.7347L96.2391 83.9008ZM109.998 83.7457L109.02 83.9575L109.191 84.7457H109.998V83.7457ZM112.68 83.7457V84.7457H113.863L113.666 83.579L112.68 83.7457ZM112.68 85.7977L113.663 85.9798L113.882 84.7977H112.68V85.7977ZM109.998 85.7977V84.7977H109.238L109.034 85.5293L109.998 85.7977ZM109.998 84.7457H112.68V82.7457H109.998V84.7457ZM113.666 83.579C113.423 82.145 112.765 80.9636 111.762 80.1449C110.762 79.3295 109.489 78.9297 108.108 78.9297V80.9297C109.102 80.9297 109.908 81.214 110.497 81.6946C111.082 82.1719 111.522 82.8984 111.694 83.9125L113.666 83.579ZM108.108 78.9297C106.451 78.9297 104.994 79.5008 103.951 80.5667C102.909 81.6308 102.356 83.1101 102.356 84.7897H104.356C104.356 83.5534 104.756 82.6027 105.38 81.9657C106.001 81.3306 106.92 80.9297 108.108 80.9297V78.9297ZM102.356 84.7897C102.356 86.4767 102.908 87.9599 103.946 89.0266C104.987 90.0954 106.44 90.6677 108.09 90.6677V88.6677C106.913 88.6677 105.999 88.2681 105.379 87.6314C104.757 86.9925 104.356 86.0367 104.356 84.7897H102.356ZM108.09 90.6677C109.477 90.6677 110.745 90.2415 111.74 89.4122C112.736 88.5825 113.4 87.3974 113.663 85.9798L111.696 85.6156C111.509 86.628 111.057 87.3779 110.46 87.8758C109.862 88.374 109.061 88.6677 108.09 88.6677V90.6677ZM112.68 84.7977H109.998V86.7977H112.68V84.7977ZM109.034 85.5293C108.918 85.9465 108.76 86.1681 108.623 86.2847C108.498 86.3907 108.32 86.4717 108.018 86.4717V88.4717C108.724 88.4717 109.382 88.2648 109.919 87.8083C110.443 87.3623 110.771 86.747 110.961 86.0662L109.034 85.5293ZM108.018 86.4717C107.681 86.4717 107.453 86.3586 107.293 86.1681C107.117 85.9588 106.93 85.5442 106.93 84.7897H104.93C104.93 85.8533 105.193 86.7796 105.763 87.4569C106.35 88.1528 107.166 88.4717 108.018 88.4717V86.4717ZM106.93 84.7897C106.93 84.1216 107.101 83.6888 107.297 83.4448C107.474 83.2234 107.722 83.0897 108.09 83.0897V81.0897C107.143 81.0897 106.311 81.478 105.737 82.1927C105.182 82.8847 104.93 83.8018 104.93 84.7897H106.93ZM108.09 83.0897C108.346 83.0897 108.529 83.1652 108.662 83.2771C108.797 83.391 108.942 83.5963 109.02 83.9575L110.975 83.534C110.819 82.8152 110.478 82.1925 109.952 81.7484C109.423 81.3023 108.769 81.0897 108.09 81.0897V83.0897ZM120.347 80.1097V79.1097H119.347V80.1097H120.347ZM118.457 87.4717L118.442 86.4718L118.434 86.4719L118.426 86.4722L118.457 87.4717ZM116.513 80.1097H117.513V79.1097H116.513V80.1097ZM114.119 80.1097V79.1097H113.119V80.1097H114.119ZM120.311 88.4437L121.303 88.3218L120.983 85.7156L119.488 87.8745L120.311 88.4437ZM120.437 89.4697L119.444 89.5916L119.552 90.4697H120.437V89.4697ZM122.741 89.4697V90.4697H123.741V89.4697H122.741ZM122.741 80.1097H123.741V79.1097H122.741V80.1097ZM119.347 80.1097V85.2397H121.347V80.1097H119.347ZM119.347 85.2397C119.347 85.7924 119.216 86.0876 119.098 86.2303C119.001 86.3463 118.829 86.4662 118.442 86.4718L118.471 88.4716C119.326 88.4592 120.099 88.1562 120.637 87.5071C121.153 86.8848 121.347 86.0731 121.347 85.2397H119.347ZM118.426 86.4722C118.037 86.484 117.855 86.3763 117.762 86.2792C117.659 86.1711 117.513 85.9149 117.513 85.3477H115.513C115.513 86.2386 115.744 87.0623 116.316 87.6608C116.898 88.2702 117.688 88.4955 118.487 88.4713L118.426 86.4722ZM117.513 85.3477V80.1097H115.513V85.3477H117.513ZM116.513 79.1097H114.119V81.1097H116.513V79.1097ZM113.119 80.1097V85.6717H115.119V80.1097H113.119ZM113.119 85.6717C113.119 87.0577 113.522 88.317 114.378 89.239C115.244 90.1708 116.472 90.6497 117.899 90.6497V88.6497C116.931 88.6497 116.27 88.3366 115.844 87.8779C115.408 87.4095 115.119 86.6798 115.119 85.6717H113.119ZM117.899 90.6497C119.351 90.6497 120.465 89.9781 121.133 89.0129L119.488 87.8745C119.185 88.3133 118.678 88.6497 117.899 88.6497V90.6497ZM119.318 88.5656L119.444 89.5916L121.429 89.3478L121.303 88.3218L119.318 88.5656ZM120.437 90.4697H122.741V88.4697H120.437V90.4697ZM123.741 89.4697V80.1097H121.741V89.4697H123.741ZM122.741 79.1097H120.347V81.1097H122.741V79.1097ZM127.49 81.1897L126.52 81.4323L127.151 83.9585L128.373 81.6589L127.49 81.1897ZM127.22 80.1097L128.19 79.8672L128.001 79.1097H127.22V80.1097ZM124.862 80.1097V79.1097H123.862V80.1097H124.862ZM124.862 89.4697H123.862V90.4697H124.862V89.4697ZM127.4 89.4697V90.4697H128.4V89.4697H127.4ZM130.784 82.3597V83.3597H131.784V82.3597H130.784ZM130.784 80.1097H131.784V79.1097H130.784V80.1097ZM129.506 79.1097C128.104 79.1097 127.092 79.8073 126.607 80.7206L128.373 81.6589C128.5 81.4201 128.82 81.1097 129.506 81.1097V79.1097ZM128.46 80.9472L128.19 79.8672L126.25 80.3523L126.52 81.4323L128.46 80.9472ZM127.22 79.1097H124.862V81.1097H127.22V79.1097ZM123.862 80.1097V89.4697H125.862V80.1097H123.862ZM124.862 90.4697H127.4V88.4697H124.862V90.4697ZM128.4 89.4697V84.6637H126.4V89.4697H128.4ZM128.4 84.6637C128.4 84.0244 128.513 83.7199 128.616 83.5849C128.673 83.5094 128.819 83.3597 129.362 83.3597V81.3597C128.411 81.3597 127.575 81.651 127.025 82.372C126.521 83.0336 126.4 83.8811 126.4 84.6637H128.4ZM129.362 83.3597H130.784V81.3597H129.362V83.3597ZM131.784 82.3597V80.1097H129.784V82.3597H131.784ZM130.784 79.1097H129.506V81.1097H130.784V79.1097ZM140.839 86.4097L141.817 86.618L142.074 85.4097H140.839V86.4097ZM138.301 86.4097V85.4097H137.595L137.358 86.0747L138.301 86.4097ZM134.143 85.4737V84.4737H133.116L133.143 85.4997L134.143 85.4737ZM140.911 85.4737V86.4737H141.911V85.4737H140.911ZM138.391 83.8177V84.8177H139.477L139.387 83.7347L138.391 83.8177ZM134.161 83.8177L133.164 83.7347L133.074 84.8177H134.161V83.8177ZM141.911 84.6457C141.911 82.995 141.372 81.5486 140.346 80.5113C139.319 79.4732 137.888 78.9297 136.267 78.9297V80.9297C137.435 80.9297 138.326 81.3133 138.924 81.9177C139.522 82.5229 139.911 83.4345 139.911 84.6457H141.911ZM136.267 78.9297C134.631 78.9297 133.194 79.505 132.168 80.5736C131.145 81.6386 130.605 83.1156 130.605 84.7897H132.605C132.605 83.5479 133 82.5948 133.611 81.9589C134.218 81.3264 135.112 80.9297 136.267 80.9297V78.9297ZM130.605 84.7897C130.605 86.4713 131.144 87.9534 132.17 89.0217C133.2 90.0935 134.642 90.6677 136.285 90.6677V88.6677C135.12 88.6677 134.221 88.2699 133.613 87.6363C133.001 86.999 132.605 86.0421 132.605 84.7897H130.605ZM136.285 90.6677C139.016 90.6677 141.285 89.1134 141.817 86.618L139.861 86.2014C139.564 87.594 138.269 88.6677 136.285 88.6677V90.6677ZM140.839 85.4097H138.301V87.4097H140.839V85.4097ZM137.358 86.0747C137.247 86.3889 136.965 86.6337 136.357 86.6337V88.6337C137.584 88.6337 138.779 88.0505 139.243 86.7447L137.358 86.0747ZM136.357 86.6337C135.966 86.6337 135.675 86.5102 135.488 86.3379C135.31 86.1736 135.154 85.9001 135.142 85.4478L133.143 85.4997C133.167 86.4333 133.515 87.2399 134.133 87.8091C134.743 88.3702 135.541 88.6337 136.357 88.6337V86.6337ZM134.143 86.4737H140.911V84.4737H134.143V86.4737ZM141.911 85.4737V84.6457H139.911V85.4737H141.911ZM136.267 82.8917C136.629 82.8917 136.891 82.9949 137.057 83.1343C137.21 83.2631 137.36 83.4867 137.394 83.9008L139.387 83.7347C139.314 82.8528 138.95 82.1134 138.343 81.6031C137.749 81.1036 137.002 80.8917 136.267 80.8917V82.8917ZM138.391 82.8177H134.161V84.8177H138.391V82.8177ZM135.157 83.9008C135.192 83.4865 135.342 83.2617 135.495 83.1325C135.66 82.9929 135.917 82.8917 136.267 82.8917V80.8917C135.536 80.8917 134.794 81.1055 134.204 81.605C133.6 82.1148 133.237 82.853 133.164 83.7347L135.157 83.9008ZM149.708 75.9517V74.9517H148.708V75.9517H149.708ZM149.708 81.2977L148.85 81.8122L150.708 84.908V81.2977H149.708ZM149.726 88.1917L150.718 88.066L150.344 85.1217L148.86 87.6914L149.726 88.1917ZM149.888 89.4697L148.896 89.5955L149.006 90.4697H149.888V89.4697ZM152.228 89.4697V90.4697H153.228V89.4697H152.228ZM152.228 75.9517H153.228V74.9517H152.228V75.9517ZM148.708 75.9517V81.2977H150.708V75.9517H148.708ZM150.565 80.7832C149.841 79.5766 148.329 78.9297 146.702 78.9297V80.9297C147.882 80.9297 148.602 81.3988 148.85 81.8122L150.565 80.7832ZM146.702 78.9297C145.19 78.9297 143.808 79.4511 142.805 80.5018C141.806 81.5502 141.274 83.0312 141.274 84.7897H143.274C143.274 83.4342 143.678 82.4852 144.253 81.8821C144.826 81.2814 145.657 80.9297 146.702 80.9297V78.9297ZM141.274 84.7897C141.274 86.4758 141.768 87.9514 142.745 89.0161C143.73 90.0897 145.117 90.6497 146.702 90.6497V88.6497C145.604 88.6497 144.778 88.2737 144.219 87.6643C143.652 87.0461 143.274 86.0917 143.274 84.7897H141.274ZM146.702 90.6497C148.414 90.6497 149.906 89.8784 150.592 88.692L148.86 87.6914C148.609 88.125 147.87 88.6497 146.702 88.6497V90.6497ZM148.734 88.3175L148.896 89.5955L150.88 89.344L150.718 88.066L148.734 88.3175ZM149.888 90.4697H152.228V88.4697H149.888V90.4697ZM153.228 89.4697V75.9517H151.228V89.4697H153.228ZM152.228 74.9517H149.708V76.9517H152.228V74.9517ZM147.278 86.3997C146.813 86.3997 146.484 86.2441 146.268 86.0184C146.05 85.7902 145.866 85.4018 145.866 84.7897H143.866C143.866 85.8156 144.185 86.7323 144.822 87.3995C145.461 88.0693 146.338 88.3997 147.278 88.3997V86.3997ZM145.866 84.7897C145.866 84.2004 146.048 83.8079 146.272 83.5709C146.493 83.3372 146.824 83.1797 147.278 83.1797V81.1797C146.328 81.1797 145.453 81.5262 144.818 82.197C144.187 82.8645 143.866 83.777 143.866 84.7897H145.866ZM147.278 83.1797C147.7 83.1797 148.024 83.3297 148.245 83.5641C148.468 83.8003 148.654 84.1937 148.654 84.7897H150.654C150.654 83.7657 150.326 82.8541 149.699 82.1904C149.07 81.5248 148.205 81.1797 147.278 81.1797V83.1797ZM148.654 84.7897C148.654 85.3971 148.467 85.7885 148.247 86.0203C148.028 86.2506 147.705 86.3997 147.278 86.3997V88.3997C148.2 88.3997 149.065 88.0629 149.697 87.3976C150.327 86.734 150.654 85.8204 150.654 84.7897H148.654Z" fill="black"/>
<defs>
<linearGradient id="paint0_linear_510_18830" x1="90.2758" y1="24.5173" x2="79.0215" y2="53.4144" gradientUnits="userSpaceOnUse">
<stop offset="0.4375" stop-color="#D4F938"/>
<stop offset="1" stop-color="#32D875" stop-opacity="0.96"/>
</linearGradient>
</defs>
</svg>
