<svg width="39" height="64" viewBox="0 0 39 64" fill="none" xmlns="http://www.w3.org/2000/svg">
<path d="M11.0605 23.9382C10.9873 20.571 10.9214 17.211 10.8482 13.8438C10.9287 13.0093 11.2508 10.8133 12.9857 8.91738C15.2183 6.47979 18.2049 6.29679 19.237 6.23091C20.0569 6.17967 22.8971 6.04058 25.525 7.92185C27.9699 9.66403 29.3314 12.0138 29.3314 13.7852V23.9455H35.0923V14.078C35.0045 12.5701 34.558 8.68313 31.5787 5.38909C27.1134 0.440713 20.4741 0.909201 18.6295 1.03364C16.7409 1.1654 12.8027 1.42894 9.33293 4.51801C6.01693 7.46801 5.15316 11.2086 4.91892 12.5189C4.90428 16.3253 4.88964 20.1391 4.875 23.9455H11.0605V23.9382Z" fill="#024D00"/>
<path d="M3.53318 23.9381H34.2995C34.6728 23.9088 35.4341 23.9015 36.2247 24.3188C37.7326 25.1093 38.062 26.7417 38.106 26.9686V49.7268C38.0328 49.9903 37.8571 50.4954 37.3959 50.9346C36.598 51.7105 35.5732 51.6886 35.3682 51.6812H3.52586C3.24038 51.652 2.58889 51.5422 1.95936 51.0517C1.20539 50.4661 0.963826 49.6975 0.890625 49.4413V26.2952C0.978466 25.9951 1.17611 25.4534 1.65192 24.9483C2.36197 24.1943 3.22574 24.004 3.52586 23.9528L3.53318 23.9381Z" fill="url(#paint0_linear_510_18831)"/>
<path d="M10.2607 23.9382C10.1875 20.571 10.1216 17.211 10.0484 13.8438C10.1289 13.0093 10.451 10.8133 12.1859 8.91738C14.4185 6.47979 17.4051 6.29679 18.4372 6.23091C19.2571 6.17967 22.0973 6.04058 24.7252 7.92185C27.1701 9.66403 28.5316 12.0138 28.5316 13.7852V23.9455H34.2925V14.078C34.2047 12.5701 33.7581 8.68313 30.7789 5.38909C26.3136 0.440713 19.6743 0.909201 17.8296 1.03364C15.9411 1.1654 12.0028 1.42894 8.53313 4.51801C5.21713 7.46801 4.35336 11.2086 4.11911 12.5189C4.10447 16.3253 4.08984 20.1391 4.0752 23.9455H10.2607V23.9382Z" fill="#5EAA5E"/>
<path d="M19.2912 46.381V44.957C18.5499 44.7916 17.9232 44.4716 17.4112 43.997C16.9046 43.517 16.5366 42.9383 16.3072 42.261L18.0032 41.637C18.2219 42.1276 18.5312 42.5303 18.9312 42.845C19.3366 43.1596 19.8006 43.317 20.3232 43.317C20.8566 43.317 21.2832 43.1836 21.6032 42.917C21.9232 42.6503 22.0832 42.2636 22.0832 41.757C22.0832 41.3996 21.9819 41.101 21.7792 40.861C21.5766 40.6156 21.3072 40.405 20.9712 40.229C20.6406 40.053 20.2752 39.8876 19.8752 39.733C19.4966 39.5836 19.1179 39.4236 18.7392 39.253C18.3659 39.077 18.0246 38.8663 17.7152 38.621C17.4112 38.3703 17.1659 38.0636 16.9792 37.701C16.7979 37.3383 16.7072 36.8983 16.7072 36.381C16.7072 35.709 16.9312 35.109 17.3792 34.581C17.8272 34.0476 18.4646 33.7116 19.2912 33.573V32.301H21.1072V33.589C21.7526 33.7276 22.2779 33.9996 22.6832 34.405C23.0886 34.805 23.3686 35.277 23.5232 35.821L21.8592 36.373C21.7312 36.053 21.5179 35.7836 21.2192 35.565C20.9206 35.341 20.5366 35.229 20.0672 35.229C19.6086 35.229 19.2512 35.3303 18.9952 35.533C18.7392 35.7303 18.6112 36.013 18.6112 36.381C18.6112 36.6636 18.7046 36.9036 18.8912 37.101C19.0832 37.2983 19.3366 37.4743 19.6512 37.629C19.9659 37.7783 20.3099 37.9223 20.6832 38.061C21.0512 38.1996 21.4272 38.3623 21.8112 38.549C22.2006 38.7356 22.5579 38.965 22.8832 39.237C23.2139 39.509 23.4806 39.8476 23.6832 40.253C23.8859 40.6583 23.9872 41.1516 23.9872 41.733C23.9872 42.3516 23.8592 42.8876 23.6032 43.341C23.3526 43.7943 23.0112 44.1623 22.5792 44.445C22.1472 44.7223 21.6566 44.9063 21.1072 44.997V46.381H19.2912Z" fill="#024D00"/>
<path d="M18.7351 46.381V44.957C17.9938 44.7916 17.3671 44.4716 16.8551 43.997C16.3484 43.517 15.9804 42.9383 15.7511 42.261L17.4471 41.637C17.6658 42.1276 17.9751 42.5303 18.3751 42.845C18.7804 43.1596 19.2444 43.317 19.7671 43.317C20.3004 43.317 20.7271 43.1836 21.0471 42.917C21.3671 42.6503 21.5271 42.2636 21.5271 41.757C21.5271 41.3996 21.4258 41.101 21.2231 40.861C21.0204 40.6156 20.7511 40.405 20.4151 40.229C20.0844 40.053 19.7191 39.8876 19.3191 39.733C18.9404 39.5836 18.5618 39.4236 18.1831 39.253C17.8098 39.077 17.4684 38.8663 17.1591 38.621C16.8551 38.3703 16.6098 38.0636 16.4231 37.701C16.2418 37.3383 16.1511 36.8983 16.1511 36.381C16.1511 35.709 16.3751 35.109 16.8231 34.581C17.2711 34.0476 17.9084 33.7116 18.7351 33.573V32.301H20.5511V33.589C21.1964 33.7276 21.7218 33.9996 22.1271 34.405C22.5324 34.805 22.8124 35.277 22.9671 35.821L21.3031 36.373C21.1751 36.053 20.9618 35.7836 20.6631 35.565C20.3644 35.341 19.9804 35.229 19.5111 35.229C19.0524 35.229 18.6951 35.3303 18.4391 35.533C18.1831 35.7303 18.0551 36.013 18.0551 36.381C18.0551 36.6636 18.1484 36.9036 18.3351 37.101C18.5271 37.2983 18.7804 37.4743 19.0951 37.629C19.4098 37.7783 19.7538 37.9223 20.1271 38.061C20.4951 38.1996 20.8711 38.3623 21.2551 38.549C21.6444 38.7356 22.0018 38.965 22.3271 39.237C22.6578 39.509 22.9244 39.8476 23.1271 40.253C23.3298 40.6583 23.4311 41.1516 23.4311 41.733C23.4311 42.3516 23.3031 42.8876 23.0471 43.341C22.7964 43.7943 22.4551 44.1623 22.0231 44.445C21.5911 44.7223 21.1004 44.9063 20.5511 44.997V46.381H18.7351Z" fill="#5EAA5E"/>
<defs>
<linearGradient id="paint0_linear_510_18831" x1="32.2758" y1="24.5173" x2="21.0215" y2="53.4144" gradientUnits="userSpaceOnUse">
<stop offset="0.4375" stop-color="#D4F938"/>
<stop offset="1" stop-color="#32D875" stop-opacity="0.96"/>
</linearGradient>
</defs>
</svg>
