<svg width="401" height="394" viewBox="0 0 401 394" fill="none" xmlns="http://www.w3.org/2000/svg">
<path d="M6.44986 0.901367H44.6882C47.7693 0.901367 50.2621 3.36986 50.2621 6.40889V44.2116C50.2621 47.2506 47.7693 49.7191 44.6882 49.7191H6.44986C3.36878 49.7191 0.875977 47.2506 0.875977 44.2116V6.40889C0.875977 3.36986 3.36878 0.901367 6.44986 0.901367Z" fill="#333720" fill-opacity="0.13" stroke="#8FAA1F" stroke-width="0.5"/>
<path d="M76.4948 0.901367H113.449V0.939239H113.699C117.356 0.939239 120.307 3.86029 120.307 7.46949V43.1889C120.307 46.7981 117.356 49.7191 113.699 49.7191H76.4948C73.4117 49.7191 70.9209 47.2526 70.9209 44.2116V6.40889C70.9209 3.36786 73.4117 0.901367 76.4948 0.901367Z" fill="#333720" fill-opacity="0.13" stroke="#8FAA1F" stroke-width="0.5"/>
<path d="M146.477 0.901367H184.716C187.797 0.901367 190.29 3.36986 190.29 6.40889V44.2116C190.29 47.2506 187.797 49.7191 184.716 49.7191H146.477C143.396 49.7191 140.904 47.2506 140.904 44.2116V6.40889C140.904 3.36986 143.396 0.901367 146.477 0.901367Z" fill="#333720" fill-opacity="0.13" stroke="#8FAA1F" stroke-width="0.5"/>
<path d="M216.51 0.901367H254.748C257.829 0.901367 260.322 3.36986 260.322 6.40889V44.2116C260.322 47.2506 257.829 49.7191 254.748 49.7191H216.51C213.429 49.7191 210.936 47.2506 210.936 44.2116V6.40889C210.936 3.36986 213.429 0.901367 216.51 0.901367Z" fill="#333720" fill-opacity="0.13" stroke="#8FAA1F" stroke-width="0.5"/>
<path d="M286.737 69.665H324.975C328.056 69.665 330.549 72.1335 330.549 75.1726V112.975C330.549 116.014 328.056 118.483 324.975 118.483H286.737C283.656 118.483 281.163 116.014 281.163 112.975V75.1726C281.163 72.1335 283.656 69.665 286.737 69.665Z" fill="#333720" fill-opacity="0.13" stroke="#8FAA1F" stroke-width="0.5"/>
<path d="M216.51 69.665H254.748C257.829 69.665 260.322 72.1335 260.322 75.1726V112.975C260.322 116.014 257.829 118.483 254.748 118.483H216.51C213.429 118.483 210.936 116.014 210.936 112.975V75.1726C210.936 72.1335 213.429 69.665 216.51 69.665Z" fill="#333720" fill-opacity="0.13" stroke="#8FAA1F" stroke-width="0.5"/>
<path d="M146.477 69.665H184.716C187.797 69.665 190.29 72.1335 190.29 75.1726V112.975C190.29 116.014 187.797 118.483 184.716 118.483H146.477C143.396 118.483 140.904 116.014 140.904 112.975V75.1726C140.904 72.1335 143.396 69.665 146.477 69.665Z" fill="#333720" fill-opacity="0.13" stroke="#8FAA1F" stroke-width="0.5"/>
<path d="M114.733 69.6834H114.983V69.6509C117.95 69.78 120.307 72.1947 120.307 75.153V112.956C120.307 115.997 117.816 118.463 114.733 118.463H77.5293C73.8715 118.463 70.9209 115.542 70.9209 111.933V76.2136C70.9209 72.6044 73.8715 69.6834 77.5293 69.6834H114.733Z" fill="#333720" fill-opacity="0.13" stroke="#8FAA1F" stroke-width="0.5"/>
<path d="M6.44986 69.665H44.6882C47.7693 69.665 50.2621 72.1335 50.2621 75.1726V112.975C50.2621 116.014 47.7693 118.483 44.6882 118.483H6.44986C3.36878 118.483 0.875977 116.014 0.875977 112.975V75.1726C0.875977 72.1335 3.36878 69.665 6.44986 69.665Z" fill="#333720" fill-opacity="0.13" stroke="#8FAA1F" stroke-width="0.5"/>
<path d="M7.48436 138.41H43.6537C47.3061 138.41 50.2621 141.337 50.2621 144.94V180.698C50.2621 184.302 47.3061 187.228 43.6537 187.228H7.48436C3.83194 187.228 0.875977 184.302 0.875977 180.698V144.94C0.875977 141.337 3.83194 138.41 7.48436 138.41Z" fill="#333720" fill-opacity="0.13" stroke="#8FAA1F" stroke-width="0.5"/>
<path d="M114.733 138.423H114.983V138.39C117.95 138.519 120.307 140.934 120.307 143.892V181.695C120.307 184.736 117.816 187.203 114.733 187.203H77.5293C73.8715 187.203 70.9209 184.282 70.9209 180.672V144.953C70.9209 141.344 73.8715 138.423 77.5293 138.423H114.733Z" fill="#333720" fill-opacity="0.13" stroke="#8FAA1F" stroke-width="0.5"/>
<path d="M146.477 138.41H184.716C187.797 138.41 190.29 140.879 190.29 143.918V181.72C190.29 184.759 187.797 187.228 184.716 187.228H146.477C143.396 187.228 140.904 184.759 140.904 181.72V143.918C140.904 140.879 143.396 138.41 146.477 138.41Z" fill="#333720" fill-opacity="0.13" stroke="#8FAA1F" stroke-width="0.5"/>
<path d="M216.51 138.41H254.748C257.829 138.41 260.322 140.879 260.322 143.918V181.72C260.322 184.759 257.829 187.228 254.748 187.228H216.51C213.429 187.228 210.936 184.759 210.936 181.72V143.918C210.936 140.879 213.429 138.41 216.51 138.41Z" fill="#333720" fill-opacity="0.13" stroke="#8FAA1F" stroke-width="0.5"/>
<path d="M286.737 138.41H324.975C328.056 138.41 330.549 140.879 330.549 143.918V181.72C330.549 184.759 328.056 187.228 324.975 187.228H286.737C283.656 187.228 281.163 184.759 281.163 181.72V143.918C281.163 140.879 283.656 138.41 286.737 138.41Z" fill="#333720" fill-opacity="0.13" stroke="#8FAA1F" stroke-width="0.5"/>
<path d="M356.757 138.41H394.995C398.076 138.41 400.569 140.879 400.569 143.918V181.72C400.569 184.759 398.076 187.228 394.995 187.228H356.757C353.676 187.228 351.183 184.759 351.183 181.72V143.918C351.183 140.879 353.676 138.41 356.757 138.41Z" fill="#333720" fill-opacity="0.13" stroke="#8FAA1F" stroke-width="0.5"/>
<path d="M356.757 207.148H394.995C398.076 207.148 400.569 209.617 400.569 212.656V250.459C400.569 253.498 398.076 255.966 394.995 255.966H356.757C353.676 255.966 351.183 253.498 351.183 250.459V212.656C351.183 209.617 353.676 207.148 356.757 207.148Z" fill="#333720" fill-opacity="0.13" stroke="#8FAA1F" stroke-width="0.5"/>
<path d="M286.737 207.148H324.975C328.056 207.148 330.549 209.617 330.549 212.656V250.459C330.549 253.498 328.056 255.966 324.975 255.966H286.737C283.656 255.966 281.163 253.498 281.163 250.459V212.656C281.163 209.617 283.656 207.148 286.737 207.148Z" fill="#333720" fill-opacity="0.13" stroke="#8FAA1F" stroke-width="0.5"/>
<path d="M216.51 207.148H254.748C257.829 207.148 260.322 209.617 260.322 212.656V250.459C260.322 253.498 257.829 255.966 254.748 255.966H216.51C213.429 255.966 210.936 253.498 210.936 250.459V212.656C210.936 209.617 213.429 207.148 216.51 207.148Z" fill="#333720" fill-opacity="0.13" stroke="#8FAA1F" stroke-width="0.5"/>
<path d="M146.477 207.148H184.716C187.797 207.148 190.29 209.617 190.29 212.656V250.459C190.29 253.498 187.797 255.966 184.716 255.966H146.477C143.396 255.966 140.904 253.498 140.904 250.459V212.656C140.904 209.617 143.396 207.148 146.477 207.148Z" fill="#333720" fill-opacity="0.13" stroke="#8FAA1F" stroke-width="0.5"/>
<path d="M114.733 207.167H114.983V207.134C117.95 207.263 120.307 209.678 120.307 212.636V250.439C120.307 253.48 117.816 255.947 114.733 255.947H77.5293C73.8715 255.947 70.9209 253.026 70.9209 249.416V213.697C70.9209 210.088 73.8715 207.167 77.5293 207.167H114.733Z" fill="#333720" fill-opacity="0.13" stroke="#8FAA1F" stroke-width="0.5"/>
<path d="M6.44986 207.148H44.6882C47.7693 207.148 50.2621 209.617 50.2621 212.656V250.459C50.2621 253.498 47.7693 255.966 44.6882 255.966H6.44986C3.36878 255.966 0.875977 253.498 0.875977 250.459V212.656C0.875977 209.617 3.36878 207.148 6.44986 207.148Z" fill="#333720" fill-opacity="0.13" stroke="#8FAA1F" stroke-width="0.5"/>
<path d="M6.44986 275.925H44.6882C47.7693 275.925 50.2621 278.394 50.2621 281.433V319.236C50.2621 322.275 47.7693 324.743 44.6882 324.743H6.44986C3.36878 324.743 0.875977 322.275 0.875977 319.236V281.433C0.875977 278.394 3.36878 275.925 6.44986 275.925Z" fill="#333720" fill-opacity="0.13" stroke="#8FAA1F" stroke-width="0.5"/>
<path d="M113.69 275.737H113.94V275.705C116.906 275.834 119.264 278.248 119.264 281.207V319.009C119.264 322.05 116.773 324.517 113.69 324.517H76.4858C72.828 324.517 69.8774 321.596 69.8774 317.987V282.267C69.8774 278.658 72.828 275.737 76.4858 275.737H113.69Z" fill="#333720" fill-opacity="0.13" stroke="#8FAA1F" stroke-width="0.5"/>
<path d="M146.477 275.925H184.716C187.797 275.925 190.29 278.394 190.29 281.433V319.236C190.29 322.275 187.797 324.743 184.716 324.743H146.477C143.396 324.743 140.904 322.275 140.904 319.236V281.433C140.904 278.394 143.396 275.925 146.477 275.925Z" fill="#333720" fill-opacity="0.13" stroke="#8FAA1F" stroke-width="0.5"/>
<path d="M216.51 275.925H254.748C257.829 275.925 260.322 278.394 260.322 281.433V319.236C260.322 322.275 257.829 324.743 254.748 324.743H216.51C213.429 324.743 210.936 322.275 210.936 319.236V281.433C210.936 278.394 213.429 275.925 216.51 275.925Z" fill="#333720" fill-opacity="0.13" stroke="#8FAA1F" stroke-width="0.5"/>
<path d="M286.737 275.925H324.975C328.056 275.925 330.549 278.394 330.549 281.433V319.236C330.549 322.275 328.056 324.743 324.975 324.743H286.737C283.656 324.743 281.163 322.275 281.163 319.236V281.433C281.163 278.394 283.656 275.925 286.737 275.925Z" fill="#333720" fill-opacity="0.13" stroke="#8FAA1F" stroke-width="0.5"/>
<path d="M216.51 344.631H254.748C257.829 344.631 260.322 347.099 260.322 350.138V387.941C260.322 390.98 257.829 393.449 254.748 393.449H216.51C213.429 393.449 210.936 390.98 210.936 387.941V350.138C210.936 347.099 213.429 344.631 216.51 344.631Z" fill="#333720" fill-opacity="0.13" stroke="#8FAA1F" stroke-width="0.5"/>
<path d="M146.477 344.631H184.716C187.797 344.631 190.29 347.099 190.29 350.138V387.941C190.29 390.98 187.797 393.449 184.716 393.449H146.477C143.396 393.449 140.904 390.98 140.904 387.941V350.138C140.904 347.099 143.396 344.631 146.477 344.631Z" fill="#333720" fill-opacity="0.13" stroke="#8FAA1F" stroke-width="0.5"/>
<path d="M114.733 344.636H114.983V344.603C117.95 344.732 120.307 347.147 120.307 350.105V387.908C120.307 390.949 117.816 393.415 114.733 393.415H77.5293C73.8715 393.415 70.9209 390.494 70.9209 386.885V351.166C70.9209 347.557 73.8715 344.636 77.5293 344.636H114.733Z" fill="#333720" fill-opacity="0.13" stroke="#8FAA1F" stroke-width="0.5"/>
<path d="M6.44986 344.631H44.6882C47.7693 344.631 50.2621 347.099 50.2621 350.138V387.941C50.2621 390.98 47.7693 393.449 44.6882 393.449H6.44986C3.36878 393.449 0.875977 390.98 0.875977 387.941V350.138C0.875977 347.099 3.36878 344.631 6.44986 344.631Z" fill="#333720" fill-opacity="0.13" stroke="#8FAA1F" stroke-width="0.5"/>
</svg>
