<svg width="51" height="51" viewBox="0 0 51 51" fill="none" xmlns="http://www.w3.org/2000/svg">
<circle cx="25.2983" cy="25.2759" r="25" fill="#F9F9FF"/>
<path d="M25.3588 32.8356C22.4291 32.8356 19.4993 32.8356 16.5695 32.8356C16.4264 32.8356 16.2814 32.8356 16.1377 32.8208C15.4042 32.7523 15.1094 32.2582 15.4221 31.5901C15.6936 31.0134 15.9897 30.4514 16.2771 29.8808C17.6343 27.194 18.9914 24.5077 20.3485 21.8218C20.3905 21.7398 20.4343 21.6577 20.483 21.5794C20.8248 21.0316 21.38 20.9545 21.8173 21.427C22.1258 21.7577 22.3867 22.129 22.6618 22.4875C24.0601 24.3147 25.4584 26.1427 26.8566 27.9715C27.4673 28.7673 28.2366 28.8105 28.954 28.0949C29.31 27.7396 29.6579 27.375 30.0181 27.0228C30.6677 26.3874 31.4049 26.4256 31.9354 27.1665C33.0001 28.6532 34.0384 30.1596 35.0815 31.6611C35.163 31.7789 35.2255 31.9088 35.2666 32.046C35.3677 32.3909 35.2246 32.6685 34.8748 32.7604C34.6555 32.8129 34.4304 32.8371 34.2049 32.8325C31.2579 32.8375 28.3092 32.8385 25.3588 32.8356Z" fill="#D4D2E3"/>
<path d="M31.9292 18.1138C31.9285 18.6872 31.7575 19.2476 31.4379 19.7237C31.1183 20.1999 30.6645 20.5704 30.1341 20.7884C29.6037 21.0063 29.0205 21.0618 28.4584 20.9479C27.8964 20.834 27.3808 20.5558 26.9771 20.1485C26.5734 19.7413 26.2997 19.2233 26.1907 18.6603C26.0817 18.0973 26.1424 17.5146 26.365 16.9861C26.5876 16.4576 26.9621 16.0071 27.441 15.6917C27.9199 15.3763 28.4817 15.2102 29.0552 15.2144C29.8188 15.2241 30.548 15.5335 31.0856 16.0759C31.6232 16.6182 31.9262 17.3501 31.9292 18.1138Z" fill="#D4D2E3"/>
</svg>
