<svg width="195" height="38" viewBox="0 0 195 38" fill="none" xmlns="http://www.w3.org/2000/svg">
<path fill-rule="evenodd" clip-rule="evenodd" d="M152.135 2.70929C152.135 3.96668 150.995 4.85902 149.51 4.85902C148.024 4.85902 146.884 3.96668 146.884 2.70929C146.884 1.45191 148.024 0.55957 149.51 0.55957C150.995 0.55957 152.135 1.45191 152.135 2.70929ZM151.491 29.0333H147.429V8.34725H151.491V29.0333ZM59.0506 11.511C57.5151 9.52352 54.6423 8.10389 50.3825 8.10389C43.3985 8.10389 38.2472 12.3628 38.2472 18.6903C38.2472 25.4234 43.3985 29.2767 50.3825 29.2767C54.6423 29.2767 57.3665 27.6137 59.0506 25.7073L59.5955 29.0333H63.1123V0.640691H59.0506V11.511ZM50.7788 26.3157C45.7761 26.3157 42.4079 23.1925 42.4079 18.6903C42.4079 14.188 45.7761 11.0648 50.7788 11.0648C55.732 11.0648 59.1002 14.2286 59.1002 18.7714C59.1002 23.1925 55.732 26.3157 50.7788 26.3157ZM79.9313 29.2767C85.7761 29.2767 89.9368 26.2346 90.9274 22.0974H86.8163C85.9743 24.7744 83.2005 26.3157 79.6342 26.3157C74.8296 26.3157 71.8081 23.5576 71.6595 19.6232V19.3392H91.2742C91.3237 18.8525 91.3732 18.3658 91.3732 17.9196C91.1751 11.7949 86.5191 8.10389 79.3865 8.10389C72.2539 8.10389 67.3997 12.4033 67.3997 18.6903C67.3997 25.0178 72.353 29.2767 79.9313 29.2767ZM71.9072 16.5811C72.3034 13.2146 75.7211 11.0243 79.436 11.0243C83.6462 11.0243 86.6182 13.0118 87.0144 16.5811H71.9072ZM99.7158 11.146C101.202 9.56408 103.777 8.10389 108.037 8.10389C113.733 8.10389 118.241 10.6592 118.241 17.514V29.0333H114.179V17.7168C114.179 13.4174 111.752 11.146 107.344 11.146C102.589 11.146 99.7158 14.0258 99.7158 18.6903V29.0333H95.6542V8.34725H99.1709L99.7158 11.146ZM122.025 22.2191C122.124 26.7619 126.632 29.2767 133.17 29.2767C138.767 29.2767 143.274 26.8836 143.274 23.0303C143.274 18.4469 138.668 17.5546 132.922 16.9867C129.257 16.6217 126.582 16.3377 126.582 14.0663C126.582 12.16 128.96 10.9431 132.476 10.9431C135.944 10.9431 138.321 12.525 138.618 14.6342H142.779C142.383 10.3347 138.222 8.14445 132.476 8.10389C126.78 8.06333 122.57 10.5375 122.57 14.3097C122.57 18.6091 127.077 19.542 132.724 20.1099L132.998 20.1364C136.622 20.4863 139.262 20.7411 139.262 23.2736C139.262 25.18 136.736 26.4374 133.17 26.4374C128.96 26.4374 126.334 24.6527 126.186 22.2191H122.025ZM158.583 23.6387C158.583 27.2892 160.317 29.0333 165.171 29.0333H169.58V25.9912H165.567C163.388 25.9912 162.645 25.3423 162.645 23.5981V11.3893H169.183V8.34725H162.645V2.54705H158.583V8.34725H154.026V11.3893H158.583V23.6387ZM178.838 31.6697L180.076 29.155L170.219 8.34725H174.528L182.305 24.8555L189.834 8.34725H194.143L182.503 32.5215C180.918 35.8475 179.977 37.1455 176.411 37.1455H171.556V34.1034H175.172C177.5 34.1034 177.897 33.6167 178.838 31.6697ZM3.81299 6.35789H0.915008C0.671243 6.35789 0.473633 6.5218 0.473633 6.72398V9.12764C0.473633 9.32982 0.671243 9.49372 0.915008 9.49372H3.81299C4.05675 9.49372 4.25436 9.32982 4.25436 9.12764V6.72398C4.25436 6.5218 4.05675 6.35789 3.81299 6.35789ZM9.04277 6.35789H6.2232C5.97928 6.35789 5.78182 6.52167 5.78182 6.72398V9.12764C5.78182 9.32995 5.97928 9.49372 6.2232 9.49372H9.04277C9.33025 9.49372 9.56255 9.30105 9.56255 9.06261V6.79142C9.56255 6.55298 9.33025 6.3603 9.04277 6.3603V6.35789ZM11.5268 6.35789H14.4248C14.6686 6.35789 14.8662 6.5218 14.8662 6.72398V9.12764C14.8662 9.32982 14.6686 9.49372 14.4248 9.49372H11.5268C11.2831 9.49372 11.0854 9.32982 11.0854 9.12764V6.72398C11.0854 6.5218 11.2831 6.35789 11.5268 6.35789ZM19.733 6.35789H16.835C16.5912 6.35789 16.3936 6.5218 16.3936 6.72398V9.12764C16.3936 9.32982 16.5912 9.49372 16.835 9.49372H19.733C19.9768 9.49372 20.1744 9.32982 20.1744 9.12764V6.72398C20.1744 6.5218 19.9768 6.35789 19.733 6.35789ZM22.1569 10.7303H25.0549C25.2986 10.7303 25.4962 10.8942 25.4962 11.0964V13.5C25.4962 13.7022 25.2986 13.8661 25.0549 13.8661H22.1569C21.9131 13.8661 21.7155 13.7022 21.7155 13.5V11.0964C21.7155 10.8942 21.9131 10.7303 22.1569 10.7303ZM19.733 10.7303H16.835C16.5912 10.7303 16.3936 10.8942 16.3936 11.0964V13.5C16.3936 13.7022 16.5912 13.8661 16.835 13.8661H19.733C19.9768 13.8661 20.1744 13.7022 20.1744 13.5V11.0964C20.1744 10.8942 19.9768 10.7303 19.733 10.7303ZM11.5268 10.7303H14.4248C14.6686 10.7303 14.8662 10.8942 14.8662 11.0964V13.5C14.8662 13.7022 14.6686 13.8661 14.4248 13.8661H11.5268C11.2831 13.8661 11.0854 13.7022 11.0854 13.5V11.0964C11.0854 10.8942 11.2831 10.7303 11.5268 10.7303ZM9.12117 10.7312H6.3016C6.01412 10.7312 5.78182 10.9239 5.78182 11.1623V13.4335C5.78182 13.6719 6.01412 13.8646 6.3016 13.8646H9.12117C9.36509 13.8646 9.56255 13.7008 9.56255 13.4985V11.0949C9.56255 10.8925 9.36509 10.7288 9.12117 10.7288V10.7312ZM0.915008 10.7303H3.81299C4.05675 10.7303 4.25436 10.8942 4.25436 11.0964V13.5C4.25436 13.7022 4.05675 13.8661 3.81299 13.8661H0.915008C0.671243 13.8661 0.473633 13.7022 0.473633 13.5V11.0964C0.473633 10.8942 0.671243 10.7303 0.915008 10.7303ZM3.73458 15.1012H0.99341C0.706345 15.1012 0.473633 15.2942 0.473633 15.5323V17.8059C0.473633 18.044 0.706345 18.237 0.99341 18.237H3.73458C4.02165 18.237 4.25436 18.044 4.25436 17.8059V15.5323C4.25436 15.2942 4.02165 15.1012 3.73458 15.1012ZM6.3016 15.1021H9.12117V15.0997C9.36509 15.0997 9.56255 15.2634 9.56255 15.4657V17.8694C9.56255 18.0717 9.36509 18.2355 9.12117 18.2355H6.3016C6.01412 18.2355 5.78182 18.0428 5.78182 17.8044V15.5332C5.78182 15.2947 6.01412 15.1021 6.3016 15.1021ZM14.4248 15.1012H11.5268C11.2831 15.1012 11.0854 15.2651 11.0854 15.4673V17.8709C11.0854 18.0731 11.2831 18.237 11.5268 18.237H14.4248C14.6686 18.237 14.8662 18.0731 14.8662 17.8709V15.4673C14.8662 15.2651 14.6686 15.1012 14.4248 15.1012ZM16.835 15.1012H19.733C19.9768 15.1012 20.1744 15.2651 20.1744 15.4673V17.8709C20.1744 18.0731 19.9768 18.237 19.733 18.237H16.835C16.5912 18.237 16.3936 18.0731 16.3936 17.8709V15.4673C16.3936 15.2651 16.5912 15.1012 16.835 15.1012ZM25.0549 15.1012H22.1569C21.9131 15.1012 21.7155 15.2651 21.7155 15.4673V17.8709C21.7155 18.0731 21.9131 18.237 22.1569 18.237H25.0549C25.2986 18.237 25.4962 18.0731 25.4962 17.8709V15.4673C25.4962 15.2651 25.2986 15.1012 25.0549 15.1012ZM27.4641 15.1012H30.3621C30.6059 15.1012 30.8035 15.2651 30.8035 15.4673V17.8709C30.8035 18.0731 30.6059 18.237 30.3621 18.237H27.4641C27.2204 18.237 27.0228 18.0731 27.0228 17.8709V15.4673C27.0228 15.2651 27.2204 15.1012 27.4641 15.1012ZM30.3621 19.4721H27.4641C27.2204 19.4721 27.0228 19.636 27.0228 19.8382V22.2418C27.0228 22.444 27.2204 22.6079 27.4641 22.6079H30.3621C30.6059 22.6079 30.8035 22.444 30.8035 22.2418V19.8382C30.8035 19.636 30.6059 19.4721 30.3621 19.4721ZM22.1569 19.4721H25.0549C25.2986 19.4721 25.4962 19.636 25.4962 19.8382V22.2418C25.4962 22.444 25.2986 22.6079 25.0549 22.6079H22.1569C21.9131 22.6079 21.7155 22.444 21.7155 22.2418V19.8382C21.7155 19.636 21.9131 19.4721 22.1569 19.4721ZM19.733 19.4721H16.835C16.5912 19.4721 16.3936 19.636 16.3936 19.8382V22.2418C16.3936 22.444 16.5912 22.6079 16.835 22.6079H19.733C19.9768 22.6079 20.1744 22.444 20.1744 22.2418V19.8382C20.1744 19.636 19.9768 19.4721 19.733 19.4721ZM11.5268 19.4721H14.4248C14.6686 19.4721 14.8662 19.636 14.8662 19.8382V22.2418C14.8662 22.444 14.6686 22.6079 14.4248 22.6079H11.5268C11.2831 22.6079 11.0854 22.444 11.0854 22.2418V19.8382C11.0854 19.636 11.2831 19.4721 11.5268 19.4721ZM9.12117 19.4729H6.3016C6.01412 19.4729 5.78182 19.6656 5.78182 19.9041V22.1752C5.78182 22.4137 6.01412 22.6064 6.3016 22.6064H9.12117C9.36509 22.6064 9.56255 22.4426 9.56255 22.2403V19.8366C9.56255 19.6343 9.36509 19.4705 9.12117 19.4705V19.4729ZM0.915008 19.4721H3.81299C4.05675 19.4721 4.25436 19.636 4.25436 19.8382V22.2418C4.25436 22.444 4.05675 22.6079 3.81299 22.6079H0.915008C0.671243 22.6079 0.473633 22.444 0.473633 22.2418V19.8382C0.473633 19.636 0.671243 19.4721 0.915008 19.4721ZM3.81299 23.8452H0.915008C0.671243 23.8452 0.473633 24.0091 0.473633 24.2113V26.615C0.473633 26.8172 0.671243 26.9811 0.915008 26.9811H3.81299C4.05675 26.9811 4.25436 26.8172 4.25436 26.615V24.2113C4.25436 24.0091 4.05675 23.8452 3.81299 23.8452ZM6.2232 23.8331H9.04278V23.8307C9.2867 23.8307 9.48415 23.9945 9.48415 24.1968V26.6004C9.48415 26.8028 9.2867 26.9665 9.04278 26.9665H6.2232C5.93573 26.9665 5.70342 26.7739 5.70342 26.5354V24.2642C5.70342 24.0258 5.93573 23.8331 6.2232 23.8331ZM14.4248 23.8452H11.5268C11.2831 23.8452 11.0854 24.0091 11.0854 24.2113V26.615C11.0854 26.8172 11.2831 26.9811 11.5268 26.9811H14.4248C14.6686 26.9811 14.8662 26.8172 14.8662 26.615V24.2113C14.8662 24.0091 14.6686 23.8452 14.4248 23.8452ZM16.835 23.8452H19.733C19.9768 23.8452 20.1744 24.0091 20.1744 24.2113V26.615C20.1744 26.8172 19.9768 26.9811 19.733 26.9811H16.835C16.5912 26.9811 16.3936 26.8172 16.3936 26.615V24.2113C16.3936 24.0091 16.5912 23.8452 16.835 23.8452ZM25.0549 23.8452H22.1569C21.9131 23.8452 21.7155 24.0091 21.7155 24.2113V26.615C21.7155 26.8172 21.9131 26.9811 22.1569 26.9811H25.0549C25.2986 26.9811 25.4962 26.8172 25.4962 26.615V24.2113C25.4962 24.0091 25.2986 23.8452 25.0549 23.8452ZM16.835 28.2138H19.733C19.9768 28.2138 20.1744 28.3777 20.1744 28.5799V30.9836C20.1744 31.1857 19.9768 31.3497 19.733 31.3497H16.835C16.5912 31.3497 16.3936 31.1857 16.3936 30.9836V28.5799C16.3936 28.3777 16.5912 28.2138 16.835 28.2138ZM14.4248 28.2138H11.5268C11.2831 28.2138 11.0854 28.3777 11.0854 28.5799V30.9836C11.0854 31.1857 11.2831 31.3497 11.5268 31.3497H14.4248C14.6686 31.3497 14.8662 31.1857 14.8662 30.9836V28.5799C14.8662 28.3777 14.6686 28.2138 14.4248 28.2138ZM6.3016 28.2139H9.12117V28.2115C9.36509 28.2115 9.56255 28.3753 9.56255 28.5776V30.9813C9.56255 31.1836 9.36509 31.3474 9.12117 31.3474H6.3016C6.01412 31.3474 5.78182 31.1547 5.78182 30.9162V28.6451C5.78182 28.4066 6.01412 28.2139 6.3016 28.2139ZM3.81299 28.2138H0.915008C0.671243 28.2138 0.473633 28.3777 0.473633 28.5799V30.9836C0.473633 31.1857 0.671243 31.3497 0.915008 31.3497H3.81299C4.05675 31.3497 4.25436 31.1857 4.25436 30.9836V28.5799C4.25436 28.3777 4.05675 28.2138 3.81299 28.2138Z" fill="#E2FF6F"/>
</svg>
