<svg width="171" height="268" viewBox="0 0 171 268" fill="none" xmlns="http://www.w3.org/2000/svg">
<path d="M181.686 107.634C185.442 79.6892 166.32 64.6677 140.172 54.647L148.654 16.7932L127.943 11.0515L119.686 47.9086C114.241 46.3977 108.65 44.9741 103.092 43.5628L111.41 6.46241L90.7117 0.720703L82.2244 38.5622C77.7187 37.4208 73.2933 36.2928 68.9999 35.1042L69.0238 34.9852L40.4631 27.05L34.9537 51.6612C34.9537 51.6612 50.3194 55.58 49.9956 55.8212C58.3824 58.1501 59.899 64.327 59.6472 69.2229L49.9846 112.347C50.5621 112.511 51.3112 112.747 52.1378 113.116C51.4468 112.925 50.7115 112.717 49.9486 112.514L36.4048 172.925C35.3799 175.76 32.7783 180.014 26.9147 178.398C27.1223 178.733 11.8617 174.219 11.8617 174.219L1.5791 200.596L28.531 208.071C33.545 209.47 38.4584 210.933 43.2971 212.31L34.7267 250.598L55.4137 256.34L63.901 218.458C69.5525 220.165 75.0369 221.739 80.4061 223.224L71.9474 260.927L92.6592 266.668L101.229 228.452C136.545 235.888 163.1 232.89 174.278 197.35C183.284 168.736 173.829 152.231 155.25 141.468C168.782 137.996 178.975 128.093 181.693 107.637L181.687 107.632L181.686 107.634ZM134.366 181.459C127.966 210.073 84.6636 194.605 70.6244 190.727L81.9975 140.002C96.0357 143.901 141.055 151.618 134.366 181.459ZM140.771 107.219C134.933 133.247 98.8918 120.024 87.2006 116.781L97.5117 70.7769C109.203 74.0193 146.854 80.071 140.773 107.219H140.771Z" stroke="#B5B5B5"/>
</svg>
