<svg width="178" height="137" viewBox="0 0 178 137" fill="none" xmlns="http://www.w3.org/2000/svg">
<path fill-rule="evenodd" clip-rule="evenodd" d="M7.66297 54.8643H148.148C149.909 54.8643 151.578 55.5634 152.793 56.8095L175.018 79.2089C179.117 83.3423 176.202 90.3933 170.372 90.3933H29.8879C28.1269 90.3933 26.457 89.6943 25.2425 88.4482L3.01759 66.0488C-1.11163 61.9154 1.83348 54.8643 7.66297 54.8643ZM3.01759 25.1707L25.2425 2.7713C26.4874 1.5252 28.1573 0.826172 29.8879 0.826172H170.342C176.172 0.826172 179.117 7.87727 174.987 12.0107L152.793 34.4101C151.548 35.6562 149.878 36.3552 148.148 36.3552H7.66297C1.83348 36.3552 -1.11163 29.3041 3.01759 25.1707ZM174.987 120.087L152.763 142.486C151.518 143.732 149.848 144.432 148.117 144.432H7.66297C1.83348 144.432 -1.11163 137.38 3.01759 133.247L25.2425 110.848C26.4874 109.602 28.1573 108.902 29.8879 108.902H170.342C176.172 108.902 179.117 115.954 174.987 120.087Z" stroke="#B5B5B5"/>
</svg>
