<svg width="1437" height="656" viewBox="0 0 1437 656" fill="none" xmlns="http://www.w3.org/2000/svg">
<rect x="-3" y="-1" width="1440" height="650" fill="white"/>
<path fill-rule="evenodd" clip-rule="evenodd" d="M140.505 573.958H280.99C282.751 573.958 284.421 574.657 285.635 575.903L307.86 598.303C311.959 602.436 309.044 609.487 303.215 609.487H162.73C160.969 609.487 159.3 608.788 158.085 607.542L135.86 585.143C131.731 581.009 134.676 573.958 140.505 573.958ZM135.86 544.264L158.085 521.865C159.33 520.619 161 519.92 162.73 519.92H303.185C309.014 519.92 311.959 526.971 307.83 531.104L285.635 553.504C284.391 554.75 282.721 555.449 280.99 555.449H140.505C134.676 555.449 131.731 548.398 135.86 544.264ZM307.83 639.181L285.605 661.58C284.36 662.826 282.69 663.525 280.96 663.525H140.505C134.676 663.525 131.731 656.474 135.86 652.341L158.085 629.941C159.33 628.695 161 627.996 162.73 627.996H303.185C309.014 627.996 311.959 635.047 307.83 639.181Z" stroke="#B5B5B5"/>
</svg>
